<?xml version="1.0" encoding="UTF-8"?>
<svg width="72px" height="42px" viewBox="0 0 72 42" version="1.1" xmlns="http://www.w3.org/2000/svg" xmlns:xlink="http://www.w3.org/1999/xlink">
    <!-- Generator: Sketch 51.2 (57519) - http://www.bohemiancoding.com/sketch -->
    <title>Asset 6</title>
    <desc>Created with Sketch.</desc>
    <defs></defs>
    <g id="Page-1" stroke="none" stroke-width="1" fill="none" fill-rule="evenodd">
        <g id="Asset-6" transform="translate(-1.000000, 0.000000)" fill-rule="nonzero">
            <path d="M65.77,41.19 L3.58,41.19 C2.72583535,41.1150224 1.95082089,40.659459 1.46983641,39.949619 C0.988851932,39.239779 0.85301954,38.3511087 1.1,37.53 L4.85,27.53 C4.96502396,27.039993 4.96502396,26.530007 4.85,26.04 L1.08,3.65 C0.840290283,2.82883697 0.980739065,1.94348725 1.46281746,1.23682615 C1.94489585,0.53016506 2.7179829,0.0763959758 3.57,0 L65.76,0 C66.9966652,0.0525357347 68.0293278,0.96027953 68.24,2.18 L72.36,26.08 C72.4799397,26.5694256 72.4799397,27.0805744 72.36,27.57 L68.25,39 C68.0275354,40.2098602 66.9989454,41.1057288 65.77,41.16 L65.77,41.19 Z" id="Shape" fill="#FFDB00"></path>
            <path d="M58.8,17.19 L58.8,20.33 C58.8000071,20.8303445 58.6005641,21.3100515 58.2458299,21.6629088 C57.8910958,22.0157661 57.4103374,22.2126614 56.91,22.21 L53.14,22.21 C52.8465303,20.8232303 51.6224818,19.8311079 50.205,19.8311079 C48.7875182,19.8311079 47.5634697,20.8232303 47.27,22.21 L28.39,22.21 C28.0965303,20.8232303 26.8724818,19.8311079 25.455,19.8311079 C24.0375182,19.8311079 22.8134697,20.8232303 22.52,22.21 L18.66,22.21 C17.5080201,22.1990283 16.5799478,21.2620322 16.58,20.11 L16.58,8.74 C16.5855044,7.57858632 17.5285733,6.63998696 18.69,6.64 L51.87,6.64 L53.35,6.64 L55,6.64 C55.9655215,6.62052859 56.8070527,7.29375357 57,8.24 L58.8,17.19 Z" id="Shape" fill="#FFFFFF"></path>
            <path d="M60.22,17.08 L58.35,8 C58.0216514,6.40497896 56.6283064,5.25286986 55,5.23 L18.68,5.23 C16.7879429,5.23549222 15.2554922,6.76794293 15.25,8.66 L15.25,20.22 C15.2554922,22.1120571 16.7879429,23.6445078 18.68,23.65 L22.5,23.65 C22.7514356,25.0852817 23.9978612,26.132337 25.455,26.132337 C26.9121388,26.132337 28.1585644,25.0852817 28.41,23.65 L47.25,23.65 C47.5014356,25.0852817 48.7478612,26.132337 50.205,26.132337 C51.6621388,26.132337 52.9085644,25.0852817 53.16,23.65 L56.8,23.65 C58.6959611,23.650008 60.2344885,22.1159531 60.24,20.22 L60.24,17.22 C60.2370574,17.1728767 60.2303697,17.1260623 60.22,17.08 Z M55,6.67 C55.9655215,6.65052859 56.8070527,7.32375357 57,8.27 L58.7,16.51 L55.94,16.51 C55.6500167,16.5070886 55.4007914,16.3035545 55.34,16.02 L53.34,6.67 L55,6.67 Z M25.5,24.57 C24.860409,24.5931744 24.2692703,24.2306093 24,23.65 L24,23.58 C24,23.58 24,23.53 24,23.51 C24.0043361,23.490235 24.0043361,23.469765 24,23.45 C24,23.45 24,23.45 24,23.39 C24,23.39 24,23.39 24,23.33 C23.9990302,23.3133474 23.9990302,23.2966526 24,23.28 C24,23.28 24,23.28 24,23.22 L24,22.99 C24.0041151,22.9668481 24.0041151,22.9431519 24,22.92 C24,22.92 24,22.87 24,22.85 C24,22.85 24,22.79 24,22.76 L24,22.67 L24,22.6 L24,22.52 L24.05,22.43 C24.330401,21.9251397 24.862498,21.6120104 25.44,21.6120104 C26.017502,21.6120104 26.549599,21.9251397 26.83,22.43 L26.83,22.52 L26.83,22.6 L26.83,22.67 L26.83,22.75 C26.83,22.75 26.83,22.81 26.83,22.84 C26.8348559,22.8630807 26.8348559,22.8869193 26.83,22.91 L26.83,23 L26.83,23.2 C26.8261619,23.2164457 26.8261619,23.2335543 26.83,23.25 C26.8346785,23.2697264 26.8346785,23.2902736 26.83,23.31 C26.83,23.31 26.83,23.31 26.83,23.37 C26.8256639,23.389765 26.8256639,23.410235 26.83,23.43 L26.83,23.5 L26.83,23.57 C26.6001741,24.1363617 26.0694634,24.5237417 25.46,24.57 L25.5,24.57 Z M50.25,24.57 C49.6298124,24.5682084 49.0657932,24.210348 48.8,23.65 L48.8,23.58 L48.8,23.51 C48.7956639,23.490235 48.7956639,23.469765 48.8,23.45 C48.8,23.45 48.8,23.45 48.8,23.39 C48.7953215,23.3702736 48.7953215,23.3497264 48.8,23.33 C48.8038381,23.3135543 48.8038381,23.2964457 48.8,23.28 L48.8,22.86 C48.7951441,22.8369193 48.7951441,22.8130807 48.8,22.79 C48.8046835,22.7601828 48.8046835,22.7298172 48.8,22.7 L48.8,22.61 C48.7956647,22.586868 48.7956647,22.563132 48.8,22.54 L48.8,22.46 L48.85,22.37 C49.1332002,21.86278 49.6690755,21.5489102 50.25,21.55 C50.8285139,21.5482467 51.3617289,21.8628052 51.64,22.37 L51.64,22.46 L51.64,22.54 L51.64,22.61 L51.64,22.7 C51.64,22.7 51.64,22.76 51.64,22.79 C51.6448559,22.8130807 51.6448559,22.8369193 51.64,22.86 L51.64,23.19 C51.6353215,23.2097264 51.6353215,23.2302736 51.64,23.25 C51.6361619,23.2664457 51.6361619,23.2835543 51.64,23.3 C51.6446785,23.3197264 51.6446785,23.3402736 51.64,23.36 C51.64,23.36 51.64,23.36 51.64,23.42 C51.6356639,23.439765 51.6356639,23.460235 51.64,23.48 C51.6356647,23.503132 51.6356647,23.526868 51.64,23.55 L51.64,23.62 C51.3879608,24.1872396 50.8305875,24.5575226 50.21,24.57 L50.25,24.57 Z M58.84,20.33 C58.8400071,20.8303445 58.6405641,21.3100515 58.2858299,21.6629088 C57.9310958,22.0157661 57.4503374,22.2126614 56.95,22.21 L53.14,22.21 C52.8465303,20.8232303 51.6224818,19.8311079 50.205,19.8311079 C48.7875182,19.8311079 47.5634697,20.8232303 47.27,22.21 L28.39,22.21 C28.0965303,20.8232303 26.8724818,19.8311079 25.455,19.8311079 C24.0375182,19.8311079 22.8134697,20.8232303 22.52,22.21 L18.66,22.21 C17.5080201,22.1990283 16.5799478,21.2620322 16.58,20.11 L16.58,8.74 C16.5855044,7.57858632 17.5285733,6.63998696 18.69,6.64 L51.87,6.64 L53.94,16.33 C54.1423762,17.2733642 54.9751747,17.9479309 55.94,17.95 L58.8,17.95 L58.84,20.33 Z" id="Shape" fill="#100C0B"></path>
            <path d="M19.85,31.86 C19.9931046,31.7561497 20.1040172,31.614043 20.17,31.45 C20.3881119,30.8532485 20.2442051,30.1842763 19.8,29.73 C19.4524259,29.4263878 19.0010171,29.268753 18.54,29.29 L16.85,29.29 C16.8168629,29.29 16.79,29.3168629 16.79,29.35 L16.79,35.1 C16.79,35.1331371 16.8168629,35.16 16.85,35.16 L18.71,35.16 C19.2598,35.2046447 19.8079536,35.0561127 20.26,34.74 C20.6244984,34.36552 20.8071462,33.8504532 20.76,33.33 C20.7781843,32.9750549 20.679859,32.623893 20.48,32.33 C20.3244893,32.1111381 20.104095,31.946717 19.85,31.86 Z M19,31.34 C18.8961804,31.4618794 18.7393657,31.5253521 18.58,31.51 L17.95,31.51 L17.95,30.28 L18.57,30.28 C18.7402556,30.2638846 18.9078255,30.3309126 19.02,30.46 C19.1100847,30.5848198 19.1558443,30.7361784 19.15,30.89 C19.1556338,31.053142 19.1023922,31.2128667 19,31.34 Z M17.94,32.57 L18.76,32.57 C19.0059125,32.5448886 19.2529973,32.6048949 19.46,32.74 C19.5976328,32.9118816 19.6622711,33.1309337 19.64,33.35 C19.6521134,33.4663522 19.6521134,33.5836478 19.64,33.7 C19.6204937,33.7857285 19.5791564,33.8649585 19.52,33.93 C19.4542343,34.0047107 19.3668698,34.0571294 19.27,34.08 C19.1158604,34.1151854 18.9580923,34.1319692 18.8,34.13 L17.97,34.13 L17.94,32.57 Z" id="Shape" fill="#100C0B"></path>
            <path d="M23.93,33.35 C23.9605259,33.5826223 23.8804359,33.8161264 23.7135581,33.9810409 C23.5466803,34.1459554 23.3122448,34.2232766 23.08,34.19 C22.55,34.19 22.28,33.92 22.28,33.35 L22.28,29.35 C22.28,29.3168629 22.2531371,29.29 22.22,29.29 L21.22,29.29 C21.1868629,29.29 21.16,29.3168629 21.16,29.35 L21.16,33.35 C21.1236663,33.8540959 21.3057945,34.3494846 21.66,34.71 C22.0617771,35.0378569 22.5724257,35.2021214 23.09,35.17 C23.6195355,35.1997258 24.1418663,35.0362754 24.56,34.71 C24.924952,34.3552309 25.1151636,33.8577544 25.08,33.35 L25.08,29.35 C25.078023,29.3317001 25.0677557,29.3153201 25.052147,29.3055647 C25.0365384,29.2958093 25.0173157,29.293758 25,29.3 L24,29.3 C23.9649308,29.2996406 23.9350083,29.3252884 23.93,29.36 L23.93,33.35 Z" id="Shape" fill="#100C0B"></path>
            <path d="M29.16,32.25 C29.0771753,32.1425757 28.9755251,32.0510905 28.86,31.98 C28.7504945,31.9033528 28.6287623,31.8458681 28.5,31.81 C28.3701018,31.7663765 28.2360644,31.736218 28.1,31.72 L27.26,31.59 L27.06,31.54 L26.9,31.46 C26.8511864,31.4342908 26.8098489,31.396398 26.78,31.35 C26.7529942,31.2983499 26.7296047,31.2448881 26.71,31.19 C26.7041912,31.1134434 26.7041912,31.0365566 26.71,30.96 C26.688237,30.7688528 26.7461023,30.5771741 26.87,30.43 C27.0445825,30.3253999 27.2469247,30.2765587 27.45,30.29 C27.6410419,30.2765073 27.8319403,30.3181579 28,30.41 C28.1239595,30.5257511 28.1899355,30.6906909 28.18,30.86 C28.1850083,30.8947116 28.2149308,30.9203594 28.25,30.92 L29.25,30.92 C29.2886599,30.92 29.32,30.8886599 29.32,30.85 C29.3011399,30.5940032 29.2368004,30.3434175 29.13,30.11 C29.0423397,29.911431 28.9044834,29.7391106 28.73,29.61 C28.5613992,29.4865385 28.3715963,29.3950264 28.17,29.34 C27.930543,29.2854078 27.6855971,29.2585644 27.44,29.26 C26.9210094,29.213481 26.4043549,29.3713477 26,29.7 C25.6618575,30.0434394 25.4965454,30.5210078 25.55,31 C25.5494467,31.2125675 25.5763355,31.4243173 25.63,31.63 C25.6766733,31.7916266 25.7511172,31.9438981 25.85,32.08 C25.9331502,32.2024498 26.0424458,32.3049144 26.17,32.38 C26.2849029,32.4559716 26.4093044,32.5164912 26.54,32.56 C26.6704567,32.6015961 26.8042993,32.6317107 26.94,32.65 L27.66,32.75 C27.7297034,32.7408875 27.8002966,32.7408875 27.87,32.75 L28.04,32.83 C28.0921405,32.8591069 28.1393834,32.8962263 28.18,32.94 C28.2142524,32.9908272 28.2443499,33.044334 28.27,33.1 C28.280481,33.1662547 28.280481,33.2337453 28.27,33.3 C28.3172666,33.5376379 28.2435452,33.7832433 28.073223,33.9555693 C27.9029008,34.1278953 27.6581744,34.2044841 27.42,34.16 C27.1991751,34.1812658 26.9775479,34.1284974 26.79,34.01 C26.6610109,33.8844848 26.5918626,33.7097944 26.6,33.53 C26.5950699,33.5008158 26.5695948,33.4795865 26.54,33.48 L25.54,33.48 C25.5231885,33.4761027 25.5055557,33.4811502 25.4933529,33.4933529 C25.4811502,33.5055557 25.4761027,33.5231885 25.48,33.54 C25.48,34.65 26.13,35.21 27.42,35.21 C27.9852884,35.2728613 28.5526599,35.1112682 29,34.76 C29.3496055,34.3501037 29.5190608,33.8164998 29.47,33.28 C29.4750192,33.0777024 29.4514533,32.8757092 29.4,32.68 C29.3454671,32.5238668 29.2642633,32.3783767 29.16,32.25 Z" id="Shape" fill="#100C0B"></path>
            <rect id="Rectangle-path" fill="#100C0B" x="30.14" y="32.1" width="3.19" height="1" rx="0.06"></rect>
            <path d="M36.87,31.83 C36.9778606,31.6154806 37.0649249,31.3911227 37.13,31.16 L37.13,31.01 C37.13,30.91 37.19,30.83 37.21,30.77 C37.2319287,30.7080043 37.2586771,30.6478205 37.29,30.59 C37.3126076,30.5419896 37.3430201,30.4980604 37.38,30.46 L37.52,30.38 C37.5862675,30.3696822 37.6537325,30.3696822 37.72,30.38 C37.8230897,30.369966 37.9269103,30.369966 38.03,30.38 C38.0631371,30.38 38.09,30.3531371 38.09,30.32 L38.17,29.39 C38.1825043,29.3683419 38.1825043,29.3416581 38.17,29.32 C37.9082912,29.2786331 37.6417088,29.2786331 37.38,29.32 C36.9590349,29.3858439 36.5909668,29.6398109 36.38,30.01 C36.2406357,30.2775565 36.130018,30.5591289 36.05,30.85 C36.0376216,30.9013287 36.0208945,30.95151 36,31 L36,31.12 C35.9881358,31.161836 35.971352,31.2021173 35.95,31.24 L35.95,31.35 C35.95,31.41 35.95,31.43 35.89,31.43 C35.8659576,31.4591678 35.8391678,31.4859576 35.81,31.51 C35.7919465,31.5354437 35.7679054,31.5560503 35.74,31.57 L35.63,31.57 L35.51,31.57 L35.31,31.57 L35.31,29.34 C35.31,29.3068629 35.2831371,29.28 35.25,29.28 L34.25,29.28 C34.2149308,29.2796406 34.1850083,29.3052884 34.18,29.34 L34.18,35.1 C34.18,35.1 34.18,35.16 34.25,35.16 L35.25,35.16 C35.2831371,35.16 35.31,35.1331371 35.31,35.1 L35.31,32.74 L35.62,32.74 L37.12,35.14 L38.44,35.14 C38.44,35.14 38.44,35.14 38.44,35.14 L36.57,32.26 C36.6979549,32.1383474 36.7999984,31.9920851 36.87,31.83 Z" id="Shape" fill="#100C0B"></path>
            <path d="M40.75,30.64 C40.75,30.77 40.64,31 40.53,31.33 C40.42,31.66 40.4,31.74 40.36,31.9 L40,30.64 L39.6,29.32 C39.5810138,29.3109941 39.5589862,29.3109941 39.54,29.32 L38.46,29.32 C38.46,29.32 38.46,29.32 38.46,29.32 L39.78,33.4 L39.64,33.89 C39.6147576,34.0180346 39.5096417,34.1150647 39.38,34.13 C39.238567,34.1217945 39.0980732,34.101724 38.96,34.07 C38.96,34.07 38.9,34.07 38.89,34.12 L38.7,34.98 C38.6874957,35.0016581 38.6874957,35.0283419 38.7,35.05 C38.9203138,35.12538 39.1484192,35.1756973 39.38,35.2 L39.52,35.2 C39.666388,35.2028749 39.8120824,35.1791573 39.95,35.13 C40.1294987,35.0721127 40.288968,34.9646442 40.41,34.82 C40.5487037,34.640352 40.6537313,34.4370727 40.72,34.22 L42.3,29.31 C42.3,29.31 42.3,29.31 42.3,29.31 L41.24,29.31 C41.2210138,29.3009941 41.1989862,29.3009941 41.18,29.31 L40.75,30.64 Z" id="Shape" fill="#100C0B"></path>
            <path d="M45.94,29.71 C45.4803817,29.3939573 44.9260268,29.2456585 44.37,29.29 L43,29.29 C42.9649308,29.2896406 42.9350083,29.3152884 42.93,29.35 L42.93,35.1 C42.93,35.1 42.93,35.16 43,35.16 L44,35.16 C44.0133333,35.1422222 44.0133333,35.1177778 44,35.1 L44,33.4 L44.34,33.4 C44.8974568,33.4585295 45.4575467,33.3167346 45.92,33 C46.2885223,32.6475927 46.4793989,32.1483771 46.44,31.64 L46.44,31.11 C46.4970228,30.5913291 46.3126915,30.0752015 45.94,29.71 Z M44.37,32.29 L44,32.29 L44,30.35 L44.36,30.35 C44.5606818,30.3407154 44.7612134,30.371305 44.95,30.44 C45.0648837,30.486631 45.1602215,30.5713756 45.22,30.68 C45.274241,30.8200514 45.2981013,30.9700305 45.29,31.12 L45.29,31.55 C45.3074484,31.7597992 45.2347116,31.9670991 45.09,32.12 C44.8728886,32.2486077 44.6217069,32.3079144 44.37,32.29 Z" id="Shape" fill="#100C0B"></path>
            <path d="M50.1,31.5 C49.6513278,31.1752594 49.102374,31.0194273 48.55,31.06 L48.2,31.06 L48.2,29.34 C48.2,29.3068629 48.1731371,29.28 48.14,29.28 L47.14,29.28 C47.124087,29.28 47.1088258,29.2863214 47.0975736,29.2975736 C47.0863214,29.3088258 47.08,29.324087 47.08,29.34 L47.08,35.1 C47.08,35.115913 47.0863214,35.1311742 47.0975736,35.1424264 C47.1088258,35.1536786 47.124087,35.16 47.14,35.16 L48.58,35.16 C49.1327584,35.202829 49.6834624,35.0545626 50.14,34.74 C50.4995817,34.3870371 50.6829155,33.892036 50.64,33.39 L50.64,32.86 C50.6757642,32.3482013 50.4771019,31.8478666 50.1,31.5 Z M48.57,34.13 L48.2,34.13 L48.2,32.13 L48.55,32.13 C48.8083298,32.102618 49.0677988,32.170151 49.28,32.32 C49.4338706,32.4758939 49.5107704,32.6919458 49.49,32.91 L49.49,33.33 C49.5077019,33.4459952 49.5077019,33.5640048 49.49,33.68 C49.4671245,33.7694976 49.4224647,33.8519465 49.36,33.92 C49.2861753,33.9947634 49.1924802,34.0468163 49.09,34.07 C48.9209635,34.1175421 48.7454217,34.1377969 48.57,34.13 Z" id="Shape" fill="#100C0B"></path>
            <path d="M52.38,32.71 L54.27,32.71 C54.3050692,32.7103594 54.3349917,32.6847116 54.34,32.65 L54.34,31.73 C54.3349917,31.6952884 54.3050692,31.6696406 54.27,31.67 L52.38,31.67 L52.38,30.3 L54.61,30.3 C54.6450692,30.3003594 54.6749917,30.2747116 54.68,30.24 L54.68,29.35 C54.6749917,29.3152884 54.6450692,29.2896406 54.61,29.29 L51.31,29.29 C51.2768629,29.29 51.25,29.3168629 51.25,29.35 L51.25,35.11 C51.25,35.1431371 51.2768629,35.17 51.31,35.17 L54.72,35.17 C54.7531371,35.17 54.78,35.1431371 54.78,35.11 L54.78,34.18 C54.78,34.164087 54.7736786,34.1488258 54.7624264,34.1375736 C54.7511742,34.1263214 54.735913,34.12 54.72,34.12 L52.38,34.12 L52.38,32.71 Z" id="Shape" fill="#100C0B"></path>
            <path d="M58.52,29.71 C58.0751043,29.402788 57.5395109,29.2547951 57,29.29 L55.53,29.29 C55.4968629,29.29 55.47,29.3168629 55.47,29.35 L55.47,35.1 C55.47,35.1331371 55.4968629,35.16 55.53,35.16 L56.53,35.16 C56.5631371,35.16 56.59,35.1331371 56.59,35.1 L56.59,33.4 L57,33.4 C57.5338557,33.4387819 58.0653547,33.2979875 58.51,33 C58.8752522,32.6305754 59.0551551,32.1165671 59,31.6 L59,31.07 C59.0540867,30.5673831 58.8775932,30.0673181 58.52,29.71 Z M57,32.29 L56.6,32.29 L56.6,30.35 L57,30.35 C57.1974324,30.3404286 57.3947524,30.3710472 57.58,30.44 C57.6983784,30.4808369 57.7955659,30.5672258 57.85,30.68 C57.904241,30.8200514 57.9281013,30.9700305 57.92,31.12 L57.92,31.55 C57.9374484,31.7597992 57.8647116,31.9670991 57.72,32.12 C57.5028886,32.2486077 57.2517069,32.3079144 57,32.29 Z" id="Shape" fill="#100C0B"></path>
            <path d="M18.89,18 L10.73,18 C10.5301769,18.0030856 10.3380608,17.9229801 10.1996209,17.7788509 C10.0611811,17.6347218 9.98887357,17.4395369 10,17.24 C10,16.842355 10.322355,16.52 10.72,16.52 L18.88,16.52 C19.277645,16.52 19.6,16.842355 19.6,17.24 C19.6109242,17.4360617 19.5412958,17.6280791 19.4072445,17.7715706 C19.2731933,17.915062 19.0863509,17.9975768 18.89,18 Z" id="Shape" fill="#100C0B"></path>
            <path d="M18.89,11.91 L10.73,11.91 C10.5373174,11.9126764 10.3516031,11.8380027 10.2144063,11.7026853 C10.0772095,11.5673679 9.99998141,11.3827012 10,11.19 C10,10.9990441 10.0758569,10.8159093 10.2108831,10.6808831 C10.3459093,10.5458569 10.5290441,10.47 10.72,10.47 L18.88,10.47 C19.277645,10.47 19.6,10.792355 19.6,11.19 C19.600038,11.5837723 19.2837343,11.9045309 18.89,11.91 Z" id="Shape" fill="#100C0B"></path>
            <path d="M20.18,14.93 L12,14.93 C11.602355,14.93 11.28,14.607645 11.28,14.21 C11.28,14.0190441 11.3558569,13.8359093 11.4908831,13.7008831 C11.6259093,13.5658569 11.8090441,13.49 12,13.49 L20.16,13.49 C20.557645,13.49 20.88,13.812355 20.88,14.21 C20.8801505,14.5999637 20.5698132,14.9191677 20.18,14.93 Z" id="Shape" fill="#100C0B"></path>
            <rect id="Rectangle-path" fill="#100C0B" transform="translate(27.970000, 14.785000) rotate(90.000000) translate(-27.970000, -14.785000) " x="25.095" y="14.065" width="5.75" height="1.44"></rect>
            <path d="M29.62,13.84 L27.46,11.67 C27.1907645,11.3910325 27.1907645,10.9489675 27.46,10.67 C27.7367978,10.3954444 28.1832022,10.3954444 28.46,10.67 L30.63,12.84 C30.8992355,13.1189675 30.8992355,13.5610325 30.63,13.84 C30.34979,14.1157323 29.90021,14.1157323 29.62,13.84 Z" id="Shape" fill="#100C0B"></path>
            <path d="M26.31,13.84 L28.47,11.67 C28.7392355,11.3910325 28.7392355,10.9489675 28.47,10.67 C28.1932022,10.3954444 27.7467978,10.3954444 27.47,10.67 L25.3,12.84 C25.0307645,13.1189675 25.0307645,13.5610325 25.3,13.84 C25.58021,14.1157323 26.02979,14.1157323 26.31,13.84 Z" id="Shape" fill="#100C0B"></path>
            <path d="M30.12,18 L25.81,18 C25.412355,18 25.09,17.677645 25.09,17.28 C25.09,16.882355 25.412355,16.56 25.81,16.56 L30.12,16.56 C30.517645,16.56 30.84,16.882355 30.84,17.28 C30.84,17.4709559 30.7641431,17.6540907 30.6291169,17.7891169 C30.4940907,17.9241431 30.3109559,18 30.12,18 Z" id="Shape" fill="#100C0B"></path>
            <rect id="Rectangle-path" fill="#100C0B" transform="translate(36.560000, 16.145000) rotate(90.000000) translate(-36.560000, -16.145000) " x="35.045" y="15.425" width="3.03" height="1.44"></rect>
            <path d="M38.81,18 L34.49,18 C34.092355,18 33.77,17.677645 33.77,17.28 C33.77,16.882355 34.092355,16.56 34.49,16.56 L38.81,16.56 C39.207645,16.56 39.53,16.882355 39.53,17.28 C39.53,17.677645 39.207645,18 38.81,18 Z" id="Shape" fill="#100C0B"></path>
            <path d="M36.57,15.53 C35.2721308,15.53 34.22,14.4778692 34.22,13.18 L34.22,11.18 C34.22,10.782355 34.542355,10.46 34.94,10.46 L38.21,10.46 C38.4000492,10.4599811 38.5821726,10.5361557 38.7156147,10.6714772 C38.8490567,10.8067987 38.9226768,10.9899697 38.92,11.18 L38.92,13.18 C38.92,14.4778692 37.8678692,15.53 36.57,15.53 Z M35.65,12 L35.65,13.17 C35.6132019,13.5234351 35.7810208,13.866946 36.0824322,14.0551522 C36.3838437,14.2433583 36.7661563,14.2433583 37.0675678,14.0551522 C37.3689792,13.866946 37.5367981,13.5234351 37.5,13.17 L37.5,12 C37.4947644,11.9321349 37.4380664,11.8797983 37.37,11.88 L35.77,11.88 C35.7058072,11.8847742 35.6547742,11.9358072 35.65,12 Z" id="Shape" fill="#100C0B"></path>
            <path d="M46.47,18 C45.4482732,18 44.62,17.1717268 44.62,16.15 L44.62,14.35 C44.62,13.9578778 44.9378778,13.64 45.33,13.64 C45.7221222,13.64 46.04,13.9578778 46.04,14.35 L46.04,16.1 C46.0722715,16.3097681 46.252764,16.4646165 46.465,16.4646165 C46.677236,16.4646165 46.8577285,16.3097681 46.89,16.1 C46.9329267,15.7376545 47.2401207,15.4647054 47.605,15.4647054 C47.9698793,15.4647054 48.2770733,15.7376545 48.32,16.1 C48.3334984,16.5992553 48.1445636,17.0827582 47.7961475,17.440591 C47.4477314,17.7984237 46.9694377,18.0001824 46.47,18 Z" id="Shape" fill="#100C0B"></path>
            <path d="M45.33,10.44 C44.3115687,10.44 43.3348497,10.8445703 42.61471,11.56471 C41.8945703,12.2848497 41.49,13.2615687 41.49,14.28 C41.4926201,14.3887495 41.53835,14.492 41.6171224,14.5670214 C41.6958949,14.6420428 41.8012521,14.6826848 41.91,14.68 L48.76,14.68 C48.9825883,14.6800662 49.164571,14.5025221 49.17,14.28 C49.17,12.1592266 47.4507734,10.44 45.33,10.44 Z M43.44,13.27 C43.3960491,13.2722623 43.354386,13.2502848 43.3314375,13.2127327 C43.3084889,13.1751805 43.3079373,13.1280793 43.33,13.09 C43.7139298,12.3393382 44.4868567,11.8678528 45.33,11.87 C46.1718601,11.8724192 46.9425973,12.3425689 47.33,13.09 C47.3461953,13.1285306 47.3428773,13.1724981 47.3210828,13.2081617 C47.2992884,13.2438254 47.2616759,13.2668352 47.22,13.27 L43.44,13.27 Z" id="Shape" fill="#100C0B"></path>
        </g>
    </g>
</svg>