<svg xmlns="http://www.w3.org/2000/svg" viewBox="0 0 726.45 111.59"><title>Asset 1</title><g id="Layer_2" data-name="Layer 2"><g id="Layer_1-2" data-name="Layer 1"><path d="M9.87,98.71,0,40.46l14-2.38a23.66,23.66,0,0,1,6.34-.37,9.79,9.79,0,0,1,4.71,1.74A10.5,10.5,0,0,1,28.59,44a34.76,34.76,0,0,1,2.19,8l.86,5.08a26.12,26.12,0,0,1,.13,10.16,9.73,9.73,0,0,1-3.65,5.85,18.19,18.19,0,0,1-7.66,2.79l-10,1.7L13.89,98ZM9.81,74l10-1.7q6-1,7.62-4.17t.43-10.31L27.07,53A43.52,43.52,0,0,0,26,48.08a15.21,15.21,0,0,0-1.42-3.44,5.93,5.93,0,0,0-2.22-2.28,8.49,8.49,0,0,0-3.19-.92,16.5,16.5,0,0,0-4.49.25l-10,1.7Z"/><path d="M42.53,76.84,40.64,65Q39.21,56.08,42,51.65T52.24,46q7.38-1.17,11,2.24t5.06,12.3l1,6.61L45.31,71l.79,5q1.13,7.06,3.87,9.79t8.87,1.75a17.79,17.79,0,0,0,5-1.43,6.54,6.54,0,0,0,2.75-2.38,6.87,6.87,0,0,0,1-2.94,13.45,13.45,0,0,0-.17-3.64l2.92-.46q2,12.21-11,14.27-7.44,1.19-11.45-2T42.53,76.84Zm2.23-9.32,20.63-3.28-.49-3a37.44,37.44,0,0,0-1.31-5.73,13.12,13.12,0,0,0-2.08-3.95A6.31,6.31,0,0,0,58,49.25a13.22,13.22,0,0,0-5.28-.07q-6.11,1-7.89,4.41c-1.18,2.29-1.38,5.84-.61,10.68Z"/><path d="M81,86.81,74.51,43l3.77-.56,5.44,36.71,2.43-6.52L99.84,39.24l3.13-.46,6.5,43.76-3.78.56-5.44-36.7-4.12,11L84.32,86.31ZM78.17,28.55,81.59,28c.27,1.78,1,2.92,2.11,3.41a8.55,8.55,0,0,0,4.62.32,8.27,8.27,0,0,0,4.27-1.57c.9-.79,1.22-2.08,1-3.89L97,25.76q1,7.83-8.18,9.19t-10.68-6.4Z"/><path d="M114.68,65.61l-1.61-11.77q-1.25-9,1.72-13.27t10.31-5.28q7.08-1,10.54,1.7t4.67,9.19l-3.63.5A16.92,16.92,0,0,0,135.59,43a8.41,8.41,0,0,0-2-2.69,6.37,6.37,0,0,0-3.25-1.53,14.87,14.87,0,0,0-4.8,0c-4,.54-6.56,1.91-7.83,4.1s-1.56,5.67-.91,10.42l1.59,11.6a35.31,35.31,0,0,0,1.24,5.93,11.26,11.26,0,0,0,2.1,3.86,6.25,6.25,0,0,0,3.46,2.06,15,15,0,0,0,5.26.06,17.42,17.42,0,0,0,5-1.36A6.35,6.35,0,0,0,138.37,73a8.07,8.07,0,0,0,1.1-3.3,19.87,19.87,0,0,0-.09-4.36l3.63-.5q1,7-2,10.8t-10,4.8q-7.29,1-11.19-2.42T114.68,65.61Z"/><path d="M149.92,61,148.4,48.84a26,26,0,0,1,.32-10.06A9.88,9.88,0,0,1,152.59,33a18,18,0,0,1,7.74-2.49,21.8,21.8,0,0,1,6.35,0,10,10,0,0,1,4.69,2.15,11.82,11.82,0,0,1,3.28,4.84,33.82,33.82,0,0,1,1.85,8L178,57.44q1.13,9-1.76,13.25T166,75.81a21.66,21.66,0,0,1-6.33,0A9.78,9.78,0,0,1,155,73.69a11.57,11.57,0,0,1-3.27-4.79A33.41,33.41,0,0,1,149.92,61Zm3.74-.79a42.83,42.83,0,0,0,1.15,6.14,11,11,0,0,0,2,3.9,5.79,5.79,0,0,0,3.43,2.08,16.74,16.74,0,0,0,5.38,0c4-.5,6.57-1.84,7.76-4s1.47-5.71.87-10.56L172.77,46a45.75,45.75,0,0,0-.88-5.06,16.85,16.85,0,0,0-1.3-3.58A5.61,5.61,0,0,0,168.45,35a8.32,8.32,0,0,0-3.14-1,17.38,17.38,0,0,0-4.5.07,15.77,15.77,0,0,0-5,1.34A6.37,6.37,0,0,0,153,38.17a10.19,10.19,0,0,0-1.1,4.19,33.3,33.3,0,0,0,.31,6.07Z"/><path d="M188.06,72.91l-5-44.71,12.85-1.45q5.94-.66,9.48,1.72t4.16,7.92a13.7,13.7,0,0,1-.56,6,6.24,6.24,0,0,1-3.55,3.93,11,11,0,0,1,2.79.48,5.08,5.08,0,0,1,2,1.18,11.12,11.12,0,0,1,1.36,1.62,7.48,7.48,0,0,1,.9,2.12c.24.86.41,1.64.53,2.33s.23,1.57.35,2.63a19.06,19.06,0,0,1-.42,7.81A8.35,8.35,0,0,1,209,69.17a22.12,22.12,0,0,1-8.42,2.34Zm.92-26,8.71-1c3.25-.37,5.49-1.3,6.7-2.79a7.88,7.88,0,0,0,1.39-6.06c-.32-2.84-1.22-4.79-2.69-5.82s-3.74-1.39-6.79-1l-9.08,1ZM191.45,69l8.64-1a23.46,23.46,0,0,0,4.69-1,10.16,10.16,0,0,0,2.89-1.44,4.28,4.28,0,0,0,1.46-2.17,9.26,9.26,0,0,0,.43-2.67c0-.85-.06-2-.19-3.43a22.32,22.32,0,0,0-.66-4.14,6.89,6.89,0,0,0-1.43-2.68,4.51,4.51,0,0,0-2.69-1.39,15.8,15.8,0,0,0-4.45,0l-10.76,1.21Z"/><path d="M222.59,68.75l-4.24-44.27,3.8-.37,1.7,17.78,9.74-.89q14-1.34,15.28,11.94.66,6.9-2.66,10.4t-10.12,4.15Zm3.46-3.87,9.73-.93c3.51-.33,6-1.37,7.52-3.09s2.08-4.26,1.76-7.59-1.38-5.79-3.18-7.2-4.45-2-8-1.61l-9.73.93Zm32,.47-4.26-44.27,3.79-.36L261.82,65Z"/><path d="M270.48,64.27l-3.37-44.34,3.35-.26L280.12,38l5.73,11.78,3.74-12.15,7-19.94,3.28-.25,3.37,44.34-3.8.29-1.55-20.23-.73-15.61L286.87,56.28l-1.2.09L271,28.21l1.71,15.54L274.28,64Z"/><path d="M311.74,60.94l-2.5-44.18,3.81-.21,2.09,37.05,2.94-6.27,16.29-32,3.16-.18L340,59.33l-3.8.21-2.1-37-5,10.54-14,27.67Z"/><path d="M366.37,47.09A12.22,12.22,0,0,1,368,40.27a10.11,10.11,0,0,1,4.91-4.1,28.23,28.23,0,0,1,7.9-1.84,62.18,62.18,0,0,1,10.57-.06l-.16-6.63c0-4-.85-6.82-2.41-8.56s-4.1-2.56-7.59-2.48a20,20,0,0,0-4.22.51,7.3,7.3,0,0,0-3,1.58,6.26,6.26,0,0,0-1.83,3.16,18.61,18.61,0,0,0-.48,5.15l-3.66.09q-.17-7.14,2.88-10.48t10.19-3.52q6.87-.16,10.22,3.23t3.52,11.13l.8,30.38-3.21.07-.25-5.9a12,12,0,0,1-5.19,5,19.69,19.69,0,0,1-7.83,1.56q-5.82.13-9.2-2.65T366.37,47.09Zm3.81,0q.1,4.27,2.62,6.18c1.67,1.28,4.21,1.87,7.61,1.79a13.1,13.1,0,0,0,4.42-.82,9.77,9.77,0,0,0,3.23-1.94,10.94,10.94,0,0,0,2.07-2.67,11.49,11.49,0,0,0,1.15-3,12.55,12.55,0,0,0,.28-2.93l-.14-5.78q-11.16-.86-16.27,1.26t-5,7.9Z"/><path d="M404.59,58V13h12.93q6,0,9.23,2.77c2.15,1.85,3.24,4.62,3.26,8.33a13.79,13.79,0,0,1-1.23,5.9,6.3,6.3,0,0,1-4,3.51,10.72,10.72,0,0,1,2.72.78,5,5,0,0,1,1.89,1.4,10.36,10.36,0,0,1,1.2,1.79,7.42,7.42,0,0,1,.66,2.21q.21,1.32.27,2.37c0,.7.05,1.58.05,2.65a19,19,0,0,1-1.29,7.72,8.34,8.34,0,0,1-4.43,4.2A22,22,0,0,1,417.16,58Zm3.81-3.51h8.69a21.83,21.83,0,0,0,4.77-.43,9.76,9.76,0,0,0,3-1.1,4.28,4.28,0,0,0,1.73-2,8.93,8.93,0,0,0,.73-2.59c.1-.85.16-2,.19-3.44a21.76,21.76,0,0,0-.19-4.19A6.91,6.91,0,0,0,426.2,38a4.54,4.54,0,0,0-2.55-1.76,16,16,0,0,0-4.42-.5H408.4Zm0-22.2h8.77q4.9,0,7-2a7.83,7.83,0,0,0,2.06-5.87c0-2.86-.67-4.9-2-6.09s-3.56-1.8-6.63-1.8h-9.13Z"/><path d="M436.32,16.81l.09-3.52,28.31.7-.08,3.52-12.26-.31-1,41-3.81-.1,1-40.94Z"/><path d="M468.93,42.42l.66-12.24a26,26,0,0,1,2.09-9.84,9.81,9.81,0,0,1,4.87-5,18,18,0,0,1,8-1.09,22.21,22.21,0,0,1,6.26,1.12A10.07,10.07,0,0,1,495,18.31a11.74,11.74,0,0,1,2.38,5.35,33.76,33.76,0,0,1,.4,8.22l-.65,12q-.48,9.1-4.07,12.73t-11,3.22a21.33,21.33,0,0,1-6.23-1.12,9.79,9.79,0,0,1-4.22-2.92,11.41,11.41,0,0,1-2.37-5.29A32.63,32.63,0,0,1,468.93,42.42Zm3.82-.12a40.62,40.62,0,0,0,0,6.24,11.24,11.24,0,0,0,1.26,4.2,5.84,5.84,0,0,0,3,2.65,16.48,16.48,0,0,0,5.29,1c4,.21,6.78-.66,8.35-2.59s2.48-5.35,2.73-10.24L494,31.67a44.07,44.07,0,0,0,0-5.14,17,17,0,0,0-.66-3.75,5.64,5.64,0,0,0-1.66-2.69,8.37,8.37,0,0,0-2.91-1.56,18.08,18.08,0,0,0-4.44-.73,15.15,15.15,0,0,0-5.15.44,6.27,6.27,0,0,0-3.28,2.2,10.3,10.3,0,0,0-1.83,3.94,32.74,32.74,0,0,0-.77,6Z"/><path d="M505.47,44.29l2.24-24.56a45.88,45.88,0,0,1,.75-5.22,38.69,38.69,0,0,1,1.07-4.07,12.44,12.44,0,0,1,1.46-3,19.69,19.69,0,0,1,1.66-2.19,6.6,6.6,0,0,1,2-1.47,16.05,16.05,0,0,1,2.09-.9A9.89,9.89,0,0,1,519,2.45c.9-.08,1.66-.13,2.27-.13h5.57a12.66,12.66,0,0,0,1.33-.06A6.49,6.49,0,0,0,529.59,2l1.2-.39A4.59,4.59,0,0,0,532,1a8.09,8.09,0,0,0,1.11-1l2.16,2.9a10.48,10.48,0,0,1-3.68,2.17,11.72,11.72,0,0,1-3.6.78L524,6l-2.23,0a15.19,15.19,0,0,0-2,.11,6.56,6.56,0,0,0-2.27.5,6.83,6.83,0,0,0-1.67,1.08q-3.42,3-4.28,12.37l-.19,2.09A8.81,8.81,0,0,1,516,18.76a15.4,15.4,0,0,1,6.07-.62q7.53.67,10.47,4.93t2,13.58l-1,10.67q-.8,8.74-4.54,12.32T518,62.54a21.81,21.81,0,0,1-6.18-1.33,9.84,9.84,0,0,1-4.1-3.05,11.52,11.52,0,0,1-2.1-5.46A34.8,34.8,0,0,1,505.47,44.29Zm3.79.42q-.69,7.44,1.18,10.47c1.25,2,3.88,3.21,7.91,3.57s6.84-.34,8.45-2.12,2.62-5.08,3.06-9.89l1-10.53q.67-7.41-1.2-10.56c-1.25-2.11-3.89-3.34-7.91-3.71-3.53-.32-6.19.31-8,1.9s-2.91,4.47-3.31,8.66Z"/><path d="M543,19.68l4.18.55,2.67,18.52,3.08,21.3H553l7.78-19.81L568,23l4.18.56L550.59,74.19q-2.42,5.67-6.09,7T535.21,80L537,76.84q3.88,1.91,6,1.08c1.42-.55,2.73-2.09,4-4.62L550,65.76Z"/><path d="M573.89,52.29l2.16-11.68q1.65-8.94,5.8-12.06t11.45-1.78q7,1.29,9.47,4.92t1.55,10.19l-3.6-.67a16.17,16.17,0,0,0,.1-3.87,8.27,8.27,0,0,0-1-3.13,6.43,6.43,0,0,0-2.61-2.48,15.24,15.24,0,0,0-4.55-1.51q-5.89-1.08-8.72,1.44c-1.89,1.69-3.26,4.89-4.14,9.62l-2.12,11.51a34.57,34.57,0,0,0-.68,6,11.18,11.18,0,0,0,.79,4.32,6.3,6.3,0,0,0,2.63,3,14.74,14.74,0,0,0,5,1.7,16.82,16.82,0,0,0,5.2.29,6.38,6.38,0,0,0,3.48-1.44,8,8,0,0,0,2.08-2.79,20.94,20.94,0,0,0,1.28-4.17l3.61.66q-1.29,6.92-5.32,9.63t-11,1.42q-7.23-1.34-9.85-5.81T573.89,52.29Z"/><path d="M608,63.78a12.37,12.37,0,0,1,3.36-6.14A10.1,10.1,0,0,1,617.19,55a27.87,27.87,0,0,1,8.1.36,61.12,61.12,0,0,1,10.2,2.8l1.64-6.42q1.54-5.76,0-8.9c-1-2.09-3.25-3.57-6.64-4.43a18.1,18.1,0,0,0-4.2-.65,7.25,7.25,0,0,0-3.27.71A6.25,6.25,0,0,0,620.4,41a18.37,18.37,0,0,0-1.81,4.86L615,45q1.77-6.91,5.61-9.31T631.35,35c4.45,1.14,7.44,3.09,9,5.88s1.66,6.67.38,11.66L633.19,82l-3.11-.79,1.39-5.75a12.09,12.09,0,0,1-6.37,3.45,19.49,19.49,0,0,1-8-.62q-5.62-1.42-8.14-5T608,63.78Zm3.68,1q-1.06,4.14.84,6.66t6.84,3.78a13.26,13.26,0,0,0,4.48.41,9.6,9.6,0,0,0,3.63-1,10.51,10.51,0,0,0,2.72-2,11.33,11.33,0,0,0,1.91-2.55,12.75,12.75,0,0,0,1.07-2.75l1.43-5.6q-10.51-3.84-16-3.19t-6.92,6.26Z"/><path d="M642.21,84.56l15-41.87,3.17,1.13,1.36,20.66.43,13.09L670.53,68,685,52.63l3.1,1.11-15,41.86-3.54-1.25,6.84-19.11,5.69-14.55L660.43,83.94l-1.12-.4-1.89-31.68-4.78,14.88-6.84,19.1Z"/><path d="M681.19,98.83l20-39.46,3.4,1.72L687.8,94.19l5.69-4L723.63,70.7l2.82,1.43-20,39.46-3.4-1.72,16.79-33.1-9.59,6.62-26.07,16.9Z"/></g></g></svg>