<svg xmlns="http://www.w3.org/2000/svg" viewBox="0 0 84.96 41.33"><defs><style>.cls-1{fill:#ffdb2e;fill-rule:evenodd;}.cls-2{fill:#fff;}.cls-3{fill:#18120e;}</style></defs><title>Asset 1</title><g id="Layer_2" data-name="Layer 2"><g id="Слой_1" data-name="Слой 1"><path class="cls-1" d="M78.17,34.6H6.46a4.88,4.88,0,0,1-4.88-4.88V5.81A4.89,4.89,0,0,1,6.46.93H11.2L12,9.52a5.15,5.15,0,0,0,5.1,4.68l56.16.23,1.58,6.41a4.35,4.35,0,0,0,3.53,3.26l5.1.24.23,5.41A5.54,5.54,0,0,1,78.17,34.6Z"/><circle class="cls-2" cx="21.33" cy="34.81" r="5.38"/><path class="cls-3" d="M21.33,41.33a6.53,6.53,0,1,1,6.52-6.52A6.53,6.53,0,0,1,21.33,41.33Zm0-10.76a4.24,4.24,0,1,0,4.24,4.24A4.24,4.24,0,0,0,21.33,30.57Z"/><circle class="cls-2" cx="66.49" cy="34.81" r="5.38"/><path class="cls-3" d="M66.49,41.33A6.53,6.53,0,1,1,73,34.81,6.53,6.53,0,0,1,66.49,41.33Zm0-10.76a4.24,4.24,0,1,0,4.23,4.24A4.24,4.24,0,0,0,66.49,30.57Z"/><path class="cls-3" d="M78.67,36.13H75.36a1.14,1.14,0,1,1,0-2.28h3.31a4,4,0,0,0,4-4v-5L78.2,6.57C77.46,3.69,76,2.28,73.56,2.28H6.29a4,4,0,0,0-4,4V29.84a4,4,0,0,0,4,4h6.46a1.14,1.14,0,0,1,0,2.28H6.29A6.29,6.29,0,0,1,0,29.84V6.29A6.29,6.29,0,0,1,6.29,0H73.56C77,0,79.43,2.14,80.41,6l4.52,18.41a1.24,1.24,0,0,1,0,.27v5.15A6.29,6.29,0,0,1,78.67,36.13Z"/><path class="cls-3" d="M57.7,36.13H30.43a1.14,1.14,0,0,1,0-2.28H57.7a1.14,1.14,0,0,1,0,2.28Z"/><path class="cls-3" d="M73.05,15.86H18.1A8.38,8.38,0,0,1,9.73,7.49V1.14A1.14,1.14,0,0,1,10.87,0H70.12a1.15,1.15,0,0,1,1.12.9l2.93,13.58a1.18,1.18,0,0,1-.23,1A1.15,1.15,0,0,1,73.05,15.86ZM12,2.28V7.49a6.09,6.09,0,0,0,6.09,6.09H71.64L69.2,2.28Z"/><path class="cls-3" d="M83.64,25H77.52a4.29,4.29,0,0,1-4.16-3.37L69,1.38a1.14,1.14,0,0,1,.22-1A1.18,1.18,0,0,1,70.12,0h3.65a6.58,6.58,0,0,1,6.4,5l4.58,18.62a1.16,1.16,0,0,1-.21,1A1.14,1.14,0,0,1,83.64,25ZM71.53,2.28l4.06,18.91a2,2,0,0,0,1.93,1.57h4.66L78,5.56a4.29,4.29,0,0,0-4.18-3.28Z"/></g></g></svg>