<svg xmlns="http://www.w3.org/2000/svg" viewBox="0 0 50.03 60.98"><defs><style>.cls-1{fill:#ffdb2e;}.cls-1,.cls-2{stroke:#18120e;stroke-linecap:round;stroke-linejoin:round;stroke-width:1.61px;}.cls-2{fill:#fff;}.cls-3{fill-rule:evenodd;}.cls-4{fill:#18120e;}</style></defs><title>Asset 4</title><g id="Layer_2" data-name="Layer 2"><g id="Слой_1" data-name="Слой 1"><rect class="cls-1" x="0.81" y="6.82" width="34.58" height="53.36" rx="6.59"/><rect class="cls-2" x="5.03" y="10.8" width="26.13" height="40.32" rx="3.42"/><path class="cls-3" d="M14.79,56a.83.83,0,1,1,0-1.66h6.62a.83.83,0,1,1,0,1.66Z"/><path class="cls-2" d="M41.09.81H21.76a8.13,8.13,0,0,0-8.13,8.13v5.55a8.13,8.13,0,0,0,8.13,8.13h.65c0,.31,0,.62,0,.94a9.58,9.58,0,0,0,3.26,7.21,9.08,9.08,0,0,1-.1-1.28,9.64,9.64,0,0,1,2.88-6.87H41.09a8.13,8.13,0,0,0,8.13-8.13V8.94A8.13,8.13,0,0,0,41.09.81Z"/><circle class="cls-4" cx="36.25" cy="15.66" r="1.2"/><line class="cls-2" x1="36.25" y1="7.43" x2="36.25" y2="12.67"/><circle class="cls-4" cx="31.71" cy="15.66" r="1.2"/><line class="cls-2" x1="31.71" y1="7.43" x2="31.71" y2="12.67"/><circle class="cls-4" cx="27.16" cy="15.66" r="1.2"/><line class="cls-2" x1="27.16" y1="7.43" x2="27.16" y2="12.67"/></g></g></svg>