<svg xmlns="http://www.w3.org/2000/svg" viewBox="0 0 355.08 69.52"><g id="Layer_2" data-name="Layer 2"><g id="Слой_1" data-name="Слой 1"><path d="M7.22,69.52,0,41l6.87-1.74A12.42,12.42,0,0,1,10,38.84a4.94,4.94,0,0,1,2.4.68,5.18,5.18,0,0,1,1.91,2.12,17,17,0,0,1,1.41,3.88L16.35,48a13.05,13.05,0,0,1,.47,5,4.78,4.78,0,0,1-1.58,3.05,9.14,9.14,0,0,1-3.68,1.69L6.65,59,9.19,69Zm-1-12.27L11.11,56c2-.49,3.15-1.28,3.61-2.37s.39-2.8-.2-5.13l-.59-2.33c-.25-1-.49-1.77-.72-2.39a7.5,7.5,0,0,0-.87-1.67,2.91,2.91,0,0,0-1.19-1,4,4,0,0,0-1.62-.33,8,8,0,0,0-2.21.3L2.41,42.29Z"/><path d="M22.48,57.4l-1.39-5.83c-.69-2.91-.63-5.14.18-6.67s2.43-2.59,4.86-3.17,4.26-.35,5.55.69,2.29,3,3,5.91l.77,3.24L23.64,54.39l.58,2.43c.55,2.31,1.32,3.87,2.3,4.71s2.46,1,4.46.53a8.83,8.83,0,0,0,2.41-.9,3.26,3.26,0,0,0,1.29-1.26,3.57,3.57,0,0,0,.4-1.5,7.33,7.33,0,0,0-.22-1.8l1.43-.34q1.43,6-4.9,7.5-3.64.87-5.76-.58T22.48,57.4Zm.75-4.71,10.11-2.42L33,48.79A18.32,18.32,0,0,0,32.13,46,6.58,6.58,0,0,0,31,44.13a3.16,3.16,0,0,0-1.83-1,6.55,6.55,0,0,0-2.62.16q-3,.72-3.75,2.49c-.5,1.18-.46,2.95.1,5.32Z"/><path d="M41.83,60.91,37,39.43,38.87,39l4,18,1-3.32,5.58-17.07L51,36.3,55.8,57.78,54,58.2l-4-18-1.64,5.59L43.46,60.55Zm-3.52-28.8L40,31.73a2,2,0,0,0,1.17,1.61,4.14,4.14,0,0,0,2.3,0,4.13,4.13,0,0,0,2-.95,2,2,0,0,0,.35-2L47.55,30q.77,3.84-3.73,4.85C40.78,35.57,38.94,34.65,38.31,32.11Z"/><path d="M57.73,49.19,56.52,43.4c-.62-2.95-.48-5.16.39-6.65s2.53-2.47,4.94-3,4.08-.32,5.29.48a7.19,7.19,0,0,1,2.64,4.4L68,39a7.62,7.62,0,0,0-.68-1.8,4.35,4.35,0,0,0-1-1.25,3.22,3.22,0,0,0-1.67-.65,7.47,7.47,0,0,0-2.38.16c-2,.41-3.19,1.18-3.74,2.31s-.58,2.87-.1,5.21l1.2,5.7a17.31,17.31,0,0,0,.82,2.9,5.45,5.45,0,0,0,1.18,1.84,3.18,3.18,0,0,0,1.79.91A7.36,7.36,0,0,0,66,54.19a8.4,8.4,0,0,0,2.45-.85A3.13,3.13,0,0,0,69.75,52a4.06,4.06,0,0,0,.43-1.68,10,10,0,0,0-.2-2.16l1.79-.37a6.94,6.94,0,0,1-.64,5.43q-1.34,2-4.79,2.73c-2.39.5-4.26.23-5.63-.81S58.35,52.12,57.73,49.19Z"/><path d="M75,45.68l-1.17-6a13.13,13.13,0,0,1-.18-5,4.89,4.89,0,0,1,1.75-3,8.79,8.79,0,0,1,3.76-1.5A10.86,10.86,0,0,1,82.3,30a5,5,0,0,1,2.4.91,5.79,5.79,0,0,1,1.79,2.3,16.71,16.71,0,0,1,1.19,3.91L88.82,43q.87,4.45-.42,6.64c-.87,1.46-2.5,2.42-4.92,2.89a11.08,11.08,0,0,1-3.14.21,4.88,4.88,0,0,1-2.39-.9,5.65,5.65,0,0,1-1.78-2.27A16,16,0,0,1,75,45.68Zm1.83-.52a19.79,19.79,0,0,0,.77,3A5.5,5.5,0,0,0,78.7,50a2.94,2.94,0,0,0,1.78.92,8.25,8.25,0,0,0,2.67-.16c2-.38,3.2-1.13,3.72-2.26s.54-2.88.07-5.27l-1.13-5.82a22.21,22.21,0,0,0-.6-2.48,8.86,8.86,0,0,0-.77-1.73,2.83,2.83,0,0,0-1.13-1.1,4.13,4.13,0,0,0-1.6-.4,8.85,8.85,0,0,0-2.23.19,7.56,7.56,0,0,0-2.43.83,3.21,3.21,0,0,0-1.32,1.46,5.24,5.24,0,0,0-.4,2.12,15.82,15.82,0,0,0,.36,3Z"/><path d="M94.23,50.35l-4-22,6.34-1.14a6.89,6.89,0,0,1,4.76.54,5.19,5.19,0,0,1,2.33,3.8,7,7,0,0,1-.08,3A3.12,3.12,0,0,1,102,36.58a5.49,5.49,0,0,1,1.4.14,2.73,2.73,0,0,1,1.05.52,5.16,5.16,0,0,1,.73.76,3.73,3.73,0,0,1,.52,1c.14.42.26.8.34,1.14s.16.77.26,1.3a9.42,9.42,0,0,1,0,3.89,4.11,4.11,0,0,1-1.8,2.45,10.78,10.78,0,0,1-4.13,1.44Zm-.39-12.93,4.29-.77a4.85,4.85,0,0,0,3.23-1.6,3.92,3.92,0,0,0,.5-3.06,3.92,3.92,0,0,0-1.53-2.8,4.9,4.9,0,0,0-3.4-.3l-4.48.8Zm2,10.87,4.25-.76a11.78,11.78,0,0,0,2.31-.63,5.34,5.34,0,0,0,1.38-.81,2.13,2.13,0,0,0,.65-1.13,4.45,4.45,0,0,0,.13-1.33,15,15,0,0,0-.21-1.71,11.31,11.31,0,0,0-.46-2,3.39,3.39,0,0,0-.8-1.28,2.26,2.26,0,0,0-1.4-.64,8.13,8.13,0,0,0-2.21.14l-5.3,1Z"/><path d="M111.13,47.17l-3.55-21.84,1.88-.31,1.42,8.78,4.8-.78q6.91-1.12,8,5.43c.37,2.27,0,4-1,5.25a7.67,7.67,0,0,1-4.89,2.39Zm1.59-2,4.8-.78a5.44,5.44,0,0,0,3.63-1.78,4.85,4.85,0,0,0,.63-3.83A4.93,4.93,0,0,0,120,35.28a5.48,5.48,0,0,0-4-.54l-4.8.78Zm15.88-.81-3.54-21.84,1.87-.3L130.47,44Z"/><path d="M134.62,43.41l-3.14-21.9,1.65-.24L138.54,30l3.23,5.66,1.46-6.15L146,19.42l1.62-.23L150.8,41.1l-1.88.26-1.43-10-.88-7.73L142.49,38.9l-.59.09-8.2-13.5,1.36,7.66,1.43,10Z"/><path d="M154.88,40.4l-2.76-21.84,1.88-.24,2.32,18.32,1.24-3.21,7-16.44,1.56-.2,2.77,21.84-1.89.24-2.32-18.32-2.1,5.4-6,14.24Z"/><path d="M181.3,31.63a6,6,0,0,1,.52-3.45A5,5,0,0,1,184.09,26a14.07,14.07,0,0,1,3.85-1.22,31.15,31.15,0,0,1,5.25-.45L192.85,21a6.45,6.45,0,0,0-1.53-4.15,4.69,4.69,0,0,0-3.86-.93,9.09,9.09,0,0,0-2.08.41,3.63,3.63,0,0,0-1.4.9,3.09,3.09,0,0,0-.79,1.64,9.32,9.32,0,0,0,0,2.57l-1.81.19q-.36-3.54,1-5.31t4.92-2.14a6.63,6.63,0,0,1,5.2,1.2c1.19,1,1.91,2.83,2.18,5.39l1.54,15-1.59.16-.34-2.93a6,6,0,0,1-2.38,2.71,9.66,9.66,0,0,1-3.82,1.08,6.68,6.68,0,0,1-4.67-1A5.58,5.58,0,0,1,181.3,31.63Zm1.89-.16a3.77,3.77,0,0,0,1.54,3,6,6,0,0,0,3.84.59,6.47,6.47,0,0,0,2.16-.58,4.62,4.62,0,0,0,1.53-1.09,5.69,5.69,0,0,0,.93-1.4,5.76,5.76,0,0,0,.45-1.53,6.5,6.5,0,0,0,0-1.46l-.3-2.86c-3.71,0-6.39.42-8,1.25A3.8,3.8,0,0,0,183.19,31.47Z"/><path d="M200.58,35.55l-2-22.3,6.41-.56a6.83,6.83,0,0,1,4.69,1,5.16,5.16,0,0,1,2,4,7,7,0,0,1-.36,3,3.11,3.11,0,0,1-1.81,1.91,5.45,5.45,0,0,1,1.38.27,2.61,2.61,0,0,1,1,.62,4.76,4.76,0,0,1,.65.82,3.49,3.49,0,0,1,.43,1.06,10.88,10.88,0,0,1,.23,1.17c.05.34.1.78.14,1.31a9.35,9.35,0,0,1-.3,3.88,4.18,4.18,0,0,1-2,2.28A11.11,11.11,0,0,1,206.81,35Zm.77-12.91,4.35-.38a4.82,4.82,0,0,0,3.36-1.3,3.93,3.93,0,0,0,.77-3A3.9,3.9,0,0,0,208.56,15a5,5,0,0,0-3.36-.6l-4.53.39Zm1,11,4.31-.38a11,11,0,0,0,2.35-.42,4.91,4.91,0,0,0,1.45-.68,2.07,2.07,0,0,0,.75-1.06,4.32,4.32,0,0,0,.25-1.32c0-.43,0-1,0-1.71a12.2,12.2,0,0,0-.28-2.07,3.45,3.45,0,0,0-.68-1.35,2.24,2.24,0,0,0-1.34-.76,7.75,7.75,0,0,0-2.21-.06l-5.36.47Z"/><path d="M214.21,13.76,214.08,12l14.06-1,.13,1.75-6.08.45,1.5,20.32-1.89.14-1.5-20.32Z"/><path d="M231.38,24.86,231,18.77a12.76,12.76,0,0,1,.48-5,4.86,4.86,0,0,1,2.12-2.72,9,9,0,0,1,3.92-1,10.64,10.64,0,0,1,3.16.2A5,5,0,0,1,243,11.48,5.81,5.81,0,0,1,244.43,14a16.19,16.19,0,0,1,.66,4l.36,6c.18,3-.25,5.2-1.29,6.52s-2.8,2.07-5.25,2.22a10.92,10.92,0,0,1-3.15-.2,4.94,4.94,0,0,1-2.25-1.21A5.64,5.64,0,0,1,232,28.86,16.79,16.79,0,0,1,231.38,24.86Zm1.89-.28a19.77,19.77,0,0,0,.37,3.09,5.4,5.4,0,0,0,.86,2,2.85,2.85,0,0,0,1.63,1.14,8.23,8.23,0,0,0,2.67.2c2-.12,3.33-.71,4-1.76s.92-2.78.77-5.21l-.35-5.92a19.77,19.77,0,0,0-.28-2.54,8.53,8.53,0,0,0-.53-1.81,2.8,2.8,0,0,0-1-1.24,4.26,4.26,0,0,0-1.53-.61,9.12,9.12,0,0,0-2.24-.11,7.56,7.56,0,0,0-2.52.51,3.12,3.12,0,0,0-1.5,1.27,5.17,5.17,0,0,0-.68,2.05,17.24,17.24,0,0,0,0,3Z"/><path d="M249.27,23.7l-.56-12.26a22.62,22.62,0,0,1,0-2.63A17,17,0,0,1,249,6.74a6.38,6.38,0,0,1,.51-1.6A10.12,10.12,0,0,1,250.17,4a3.19,3.19,0,0,1,.89-.86,7.65,7.65,0,0,1,1-.59,5.76,5.76,0,0,1,1.07-.36q.66-.15,1.11-.21l1.23-.18.75-.1.76-.11.65-.12a3.35,3.35,0,0,0,.68-.2l.57-.28a2.39,2.39,0,0,0,.58-.4,4.36,4.36,0,0,0,.48-.54l1.26,1.28A5.31,5.31,0,0,1,259.5,2.6a6.1,6.1,0,0,1-1.72.63l-2,.32-1.1.18c-.22,0-.55.1-1,.19a3.09,3.09,0,0,0-1.08.4,3.32,3.32,0,0,0-.76.65q-1.49,1.68-1.27,6.38l0,1a4.42,4.42,0,0,1,2.07-2,7.71,7.71,0,0,1,3-.72c2.51-.11,4.34.46,5.49,1.73S263,14.86,263.12,18l.24,5.33c.13,2.9-.34,5-1.41,6.37s-2.83,2.07-5.27,2.18a10.71,10.71,0,0,1-3.14-.24,4.87,4.87,0,0,1-2.23-1.23,5.72,5.72,0,0,1-1.44-2.54A17,17,0,0,1,249.27,23.7Zm1.89-.05c.11,2.48.55,4.17,1.29,5.08s2.13,1.32,4.14,1.23,3.35-.63,4-1.61,1-2.68.85-5.09L261.22,18q-.17-3.71-1.3-5.13c-.76-1-2.14-1.38-4.15-1.29a5.17,5.17,0,0,0-3.83,1.47q-1.2,1.37-1.05,4.5Z"/><path d="M265.38,9l2.1-.06,2.81,8.87,3.24,10.21h0l2.22-10.36,2.16-9,2.1-.06-6.49,26.6c-.49,2-1.3,3.3-2.42,4s-2.69.69-4.67.12l.61-1.69a3.93,3.93,0,0,0,3,0A4.35,4.35,0,0,0,271.68,35l.9-3.95Z"/><path d="M282.79,22.5l-.1-5.91c-.05-3,.49-5.16,1.64-6.46s2.94-2,5.4-2,4.08.45,5.11,1.47a7.14,7.14,0,0,1,1.76,4.81l-1.82,0a7.94,7.94,0,0,0-.33-1.89,4.12,4.12,0,0,0-.8-1.43,3.2,3.2,0,0,0-1.52-.95,7.45,7.45,0,0,0-2.37-.29c-2,0-3.35.56-4.11,1.57s-1.1,2.7-1.06,5.09l.1,5.83a16.75,16.75,0,0,0,.27,3,5.5,5.5,0,0,0,.8,2,3.18,3.18,0,0,0,1.59,1.22A7.22,7.22,0,0,0,290,29a8.62,8.62,0,0,0,2.56-.37,3.18,3.18,0,0,0,1.56-1.05A4,4,0,0,0,294.8,26a9.84,9.84,0,0,0,.22-2.16l1.82,0A7,7,0,0,1,295.2,29q-1.69,1.72-5.22,1.78t-5.38-1.86Q282.88,27,282.79,22.5Z"/><path d="M300.15,24.7a6.12,6.12,0,0,1,.84-3.38,5,5,0,0,1,2.48-2,13.8,13.8,0,0,1,3.94-.85,31.3,31.3,0,0,1,5.27.06l0-3.3A6.4,6.4,0,0,0,311.53,11a4.72,4.72,0,0,0-3.76-1.3,9.33,9.33,0,0,0-2.1.22,3.64,3.64,0,0,0-1.49.76,3.12,3.12,0,0,0-.94,1.55,9.7,9.7,0,0,0-.28,2.56l-1.82,0q0-3.55,1.53-5.19c1-1.1,2.73-1.65,5.09-1.67s4,.55,5.06,1.7,1.64,3,1.66,5.57l.1,15.12H313l-.06-2.95a6,6,0,0,1-2.63,2.47,9.76,9.76,0,0,1-3.91.71,6.75,6.75,0,0,1-4.55-1.4A5.54,5.54,0,0,1,300.15,24.7Zm1.89,0a3.75,3.75,0,0,0,1.25,3.1,5.91,5.91,0,0,0,3.77,1,6.48,6.48,0,0,0,2.21-.36,5,5,0,0,0,1.62-.94,5.31,5.31,0,0,0,1.05-1.31,5.24,5.24,0,0,0,.6-1.48,6,6,0,0,0,.17-1.45l0-2.88c-3.7-.35-6.4-.18-8.11.49A3.78,3.78,0,0,0,302,24.73Z"/><path d="M318.94,30.35l.83-22.12,1.67.07,3.75,9.59L327.35,24l2.54-5.79,4.58-9.46,1.64.06L335.27,31l-1.89-.07.38-10.09.51-7.76-6.78,14.28-.59,0-5.65-14.75,0,7.78-.38,10.09Z"/><path d="M339.26,31.08,341,9.13l1.89.15-1.49,18.41,1.88-2.89,10.2-14.66,1.57.13-1.77,21.94-1.89-.15,1.48-18.41-3.16,4.86-8.82,12.7Z"/></g></g></svg>