<svg xmlns="http://www.w3.org/2000/svg" viewBox="0 0 236.91 126.68"><defs><style>.cls-1{fill:#ffdc2f;}.cls-2{fill:#fff;}.cls-3{fill:#2c2004;}</style></defs><title>Asset 2</title><g id="Layer_2" data-name="Layer 2"><g id="Layer_1-2" data-name="Layer 1"><path class="cls-1" d="M233.53,50.78l-.05-.14L217.12,12.08A20,20,0,0,0,194.91.37L35.65,32.5A19.8,19.8,0,0,0,20.08,55.28l-14.89,3c-3.66.74-5.87,4.6-5,8.78s4.38,6.91,8,6.17L12,72.46A8.36,8.36,0,0,0,13.45,84.2a7.64,7.64,0,0,0,1.07.71l-3.82.77c-3.67.74-5.87,4.61-5,8.81s4.37,6.88,8,6.14l14.89-3,1.79,8.9A19.8,19.8,0,0,0,53.68,122l13.71-2.78a18,18,0,0,0,32.12-6.48L176,97.3a18,18,0,0,0,32.11-6.47L221,88.22a19.81,19.81,0,0,0,15.51-23.3L233.91,52A8,8,0,0,0,233.53,50.78Zm-151,60.61a2.71,2.71,0,1,1,2.12-3.2,2.73,2.73,0,0,1-2.11,3.2ZM191.16,89.47a2.71,2.71,0,1,1-1.08-5.32h0a2.71,2.71,0,0,1,1.08,5.32Z"/><path class="cls-2" d="M192.76,10.68l17.15,39.54a2.68,2.68,0,0,0,3,1.59l10-2,1.78-.36.66-.13L213.29,20.48c-3-7.08-8.93-12.45-16.42-10.94l-4.23.86Z"/><path class="cls-2" d="M226.72,55.59l-2.53.51-10,2a9.21,9.21,0,0,1-10.28-5.33L186.77,13.11h0l-.24-.6-.28-.64h0l-.07-.18L32.85,42.63a6.64,6.64,0,0,0-5.16,7.77l2.8,13.88,4.62-.93,1.49,7.39L32,71.67,33.26,78l4.61-.93,1.49,7.38-4.61.94.59,2.91L40,87.35l3.25,16.1a9.41,9.41,0,0,0,11,7.39h.11L66,108.49a16,16,0,0,1,31.77-2.92,4.62,4.62,0,0,0,.11.63l77.2-15.57a3.56,3.56,0,0,0-.14-.63,16,16,0,1,1,31.46-6.34,4.62,4.62,0,0,0,.11.63l9.36-1.89a16.61,16.61,0,0,0,12.94-19.48l-1.5-7.42ZM85.28,78.71l-6.94,1.4L74.76,62.38l7-1.4Zm17.24-3.49-6.94,1.4L92,58.9,99,57.5Zm24-16.21A10.09,10.09,0,0,1,117.09,51l-1.42-7a2.32,2.32,0,0,1,1.8-2.74h0l5,5a.17.17,0,0,0-.12.18l.71,3.51a4,4,0,0,0,4.22,3.18Zm38.27-21.75c-4.32.87-7.55,4.33-7.66,8.15a.3.3,0,0,0,.33.09L164,49.22l-11.19,2.26a2.36,2.36,0,0,1-1.9-.46,2.25,2.25,0,0,1-.81-1.76c-.06-8.48,5.62-15.77,13.56-17.38Z"/><path class="cls-3" d="M125.61,53.47l-.92.19a4,4,0,0,1-4.26-3.18l-.7-3.47a.14.14,0,0,1,.09-.17h0l7.53-1.52a.14.14,0,0,1,.17.1v0l.7,3.47A3.94,3.94,0,0,1,125.61,53.47Zm8.61-5.89-1.42-7A2.36,2.36,0,0,0,130,38.76h0l-15.1,3a2.36,2.36,0,0,0-1.83,2.75l1.43,7.06a10.08,10.08,0,0,0,9.46,8l1.88,9.34-4.94,1a2,2,0,0,0-1.53,2.34l.16.82a2,2,0,0,0,2.32,1.57l14.55-2.94a2,2,0,0,0,1.5-2.31l-.16-.81A2,2,0,0,0,135.39,67h0l-4.91,1-1.88-9.35a10.07,10.07,0,0,0,5.6-11.08Z"/><path class="cls-3" d="M73.82,79.4a1.48,1.48,0,0,0-1.12,1.73L73.08,83a1.46,1.46,0,0,0,1.7,1.16l29.94-6a1.47,1.47,0,0,0,1.15-1.73l-.38-1.89a1.49,1.49,0,0,0-1.73-1.15l-4,.8-2.9-14.63L100,59a1.69,1.69,0,0,0,1.33-2,1.74,1.74,0,0,0-.44-.85l-7.25-7.76a1.72,1.72,0,0,0-2.43,0,1.69,1.69,0,0,0-.41.61l-3.72,10a1.69,1.69,0,0,0,1.86,2.28l3.1-.63L95,75.18,82.62,77.66,79.68,63.08l3.06-.62a1.69,1.69,0,0,0,1.35-2,1.72,1.72,0,0,0-.42-.84l-7.29-7.75a1.72,1.72,0,0,0-2.43,0,1.69,1.69,0,0,0-.41.61l-3.72,10a1.7,1.7,0,0,0,2,2.25l3.06-.62,2.94,14.59Z"/><path class="cls-3" d="M154.48,46.07h-.32c.1-3.87,3.33-7.28,7.65-8.16s8.59,1,10.18,4.56a.33.33,0,0,1-.27.17Zm16.68,18.54.78-.16A7.1,7.1,0,0,0,177.35,56a2.36,2.36,0,1,0-4.67.68,2.21,2.21,0,0,0,0,.25A2.38,2.38,0,0,1,171,59.83l-.78.16a2.38,2.38,0,0,1-2.7-2l-1.84-9.12,12.62-2.55a2.23,2.23,0,0,0,1.79-2.59,2.54,2.54,0,0,0-.14-.47c-3.23-7.84-11.33-12.35-19.23-10.76s-13.61,8.9-13.55,17.38a2.21,2.21,0,0,0,.81,1.75,2.3,2.3,0,0,0,1.86.44l11.22-2.27,1.84,9.13A7.09,7.09,0,0,0,171.16,64.61Z"/><path class="cls-3" d="M27.18,68.22,28,72.43,16.32,74.79c-1.22.24-1.93,1.85-1.57,3.62s1.63,2.94,2.84,2.69l38.07-7.68c1.22-.24,1.94-1.85,1.59-3.58s-1.64-3-2.86-2.73L33.91,71.22,33.06,67Z"/><path class="cls-3" d="M52.51,85.05c-.35-1.74-1.63-3-2.85-2.73l-13,2.62-.88-4.36-5.87,1.19.88,4.36L11.59,90c-1.22.24-1.93,1.89-1.58,3.62s1.63,2.94,2.85,2.69l38.05-7.68c1.22-.24,1.93-1.85,1.58-3.58Z"/><path class="cls-3" d="M189.22,79.83a7.12,7.12,0,1,1-5.6,8.39A7.12,7.12,0,0,1,189.22,79.83Zm4.09,20.27a13.58,13.58,0,1,0-16-10.61h0a13.56,13.56,0,0,0,16,10.61Z"/><path class="cls-3" d="M83.41,115.7A7.12,7.12,0,1,1,89,107.32h0A7.14,7.14,0,0,1,83.41,115.7Zm-4.1-20.3a13.58,13.58,0,1,0,16,10.64A13.59,13.59,0,0,0,79.31,95.4Z"/><path class="cls-3" d="M176,92.84a15.34,15.34,0,0,1-.89-2.89,15.85,15.85,0,0,1-.31-3.44l-78.32,15.8a14.7,14.7,0,0,1,1,3.29,16.86,16.86,0,0,1,.3,3Z"/><path class="cls-3" d="M197.05,11a9,9,0,0,1,10.06,5.31l14.8,34.91L210.09,53.6A2.74,2.74,0,0,1,207,52L190,12.43ZM24.49,54.92l.77,3.81L6.06,62.6c-1.22.25-1.93,1.85-1.58,3.59s1.64,3,2.86,2.73l38.06-7.7C46.62,61,47.34,59.37,47,57.6s-1.63-2.94-2.85-2.69l-13,2.62-.69-3.43A9.41,9.41,0,0,1,37.81,43L183.44,13.63l17.7,40.89a9.21,9.21,0,0,0,10.23,5.36l12.54-2.54,1.87,9.27.08.41v.76a9,9,0,0,1-.68,4.83H225a9.49,9.49,0,0,1-6.12,5.08h-.12L205,80.46a17.33,17.33,0,0,1,1,3.29,16.86,16.86,0,0,1,.3,3L220,84a15.39,15.39,0,0,0,12.27-18,1.42,1.42,0,0,1,0-.2l-2.61-12.93h0a4.82,4.82,0,0,0-.2-.61L213.06,13.81a15.54,15.54,0,0,0-17.29-9.12L36.52,36.82a15.39,15.39,0,0,0-12,18.1Z"/><path class="cls-3" d="M63.67,108.93l-12.11,2.44h-.07a9.41,9.41,0,0,1-11-7.39l-1.9-9.45-5.87,1.19,2,9.93a15.37,15.37,0,0,0,18.1,12l14.52-2.92a16,16,0,0,1-.9-2.9,15.22,15.22,0,0,1-.27-3.44Z"/><path class="cls-3" d="M209.58,38.22a3.55,3.55,0,0,1-4-2.08l-3.85-8.92-6.5,1.31a3.57,3.57,0,1,1-1.41-7l9.34-1.89a3.59,3.59,0,0,1,4,2.08l5,11.59A3.57,3.57,0,0,1,210.3,38,2.61,2.61,0,0,1,209.58,38.22Z"/></g></g></svg>