<svg xmlns="http://www.w3.org/2000/svg" viewBox="0 0 171.81 84.72"><defs><style>.cls-1{fill:#ffdc2f;}.cls-2{fill:#fff;fill-rule:evenodd;}.cls-3{fill:#2c2004;}</style></defs><title>Asset 1</title><g id="Layer_2" data-name="Layer 2"><g id="Слой_1" data-name="Слой 1"><path class="cls-1" d="M170.45,39.11l0-.11L161,10A14.53,14.53,0,0,0,145.58.09L28,13.39A14.42,14.42,0,0,0,15.24,28.94l-11,1.25c-2.7.3-4.55,3-4.2,6.05s2.75,5.29,5.45,5l2.83-.32a5.8,5.8,0,0,0-1.6,4.85A5.73,5.73,0,0,0,9.36,50.1l-2.83.32c-2.7.31-4.55,3-4.2,6.08s2.75,5.27,5.45,5l11-1.24.75,6.57a14.43,14.43,0,0,0,15.93,12.7l10.11-1.15a13.1,13.1,0,0,0,23.71-2.68l56.51-6.39a13.11,13.11,0,0,0,23.71-2.68L159,65.51a14.43,14.43,0,0,0,12.72-15.93L170.64,40A6.42,6.42,0,0,0,170.45,39.11ZM57,73.59a2,2,0,1,1,1.74-2.18A2,2,0,0,1,57,73.59Zm80.22-9.07a2,2,0,0,1-2.21-1.74,2,2,0,0,1,1.77-2.19,2,2,0,0,1,.44,3.93Z"/><path class="cls-2" d="M143.37,7.44l9.94,29.78a2,2,0,0,0,2.09,1.33l7.4-.83,1.32-.15.49-.06-7-21.66c-1.71-5.33-5.7-9.61-11.23-9l-3.13.35.07.22Z"/><path class="cls-2" d="M165.19,42.17l-1.86.21-7.41.84a6.72,6.72,0,0,1-7.08-4.53l-10-29.86h0l-.14-.45-.16-.48h0l0-.14L25.31,20.57a4.83,4.83,0,0,0-4.24,5.31l1.16,10.25,3.41-.38.62,5.45-3.41.39.53,4.66,3.4-.39.62,5.46L24,51.7l.25,2.16,3.41-.39L29,65.36a6.87,6.87,0,0,0,7.51,6.06h.08l8.61-1a11.69,11.69,0,0,1,23.24-.11c0,.15,0,.31,0,.46l57-6.45c0-.15,0-.3-.07-.46a11.69,11.69,0,0,1,23.24-2.63c0,.16,0,.31,0,.47l6.91-.78A12.1,12.1,0,0,0,166.22,47.6l-.62-5.48ZM61.09,50.05,56,50.63,54.48,37.54,59.61,37Zm12.73-1.44-5.12.58L67.22,36.1l5.12-.58ZM92.24,38.35a7.35,7.35,0,0,1-6.33-6.44l-.59-5.2a1.7,1.7,0,0,1,1.5-1.89l3.29,4a.12.12,0,0,0-.1.12l.3,2.59a2.94,2.94,0,0,0,2.86,2.58ZM121.38,25c-3.19.37-5.74,2.67-6.06,5.44,0,0,.09.1.23.09l4.55,3.13-8.26.93a1.68,1.68,0,0,1-1.35-.45,1.65,1.65,0,0,1-.49-1.33A12.64,12.64,0,0,1,120.94,21Z"/><path class="cls-3" d="M92,34.27l-.69.08a2.89,2.89,0,0,1-2.88-2.58l-.29-2.56a.1.1,0,0,1,.09-.12l5.57-.63s.11,0,.12.1l.29,2.56A2.87,2.87,0,0,1,92,34.27Zm6.62-3.73L98,25.33a1.73,1.73,0,0,0-1.91-1.5L84.89,25.1A1.7,1.7,0,0,0,83.39,27L84,32.19a7.34,7.34,0,0,0,6.36,6.43l.78,6.9-3.65.41a1.45,1.45,0,0,0-1.26,1.61l.07.6a1.44,1.44,0,0,0,1.58,1.28L98.6,48.21a1.47,1.47,0,0,0,1.29-1.61l-.07-.6a1.46,1.46,0,0,0-1.61-1.28l-3.63.41-.78-6.9a7.36,7.36,0,0,0,4.77-7.69Z"/><path class="cls-3" d="M52.72,49.83A1.06,1.06,0,0,0,51.81,51l.16,1.4a1.05,1.05,0,0,0,1.15.94l22.12-2.5a1.07,1.07,0,0,0,.94-1.18L76,48.28a1.07,1.07,0,0,0-1.18-1l-2.92.33L70.7,36.89,73,36.64a1.24,1.24,0,0,0,.82-2L69,28.55a1.26,1.26,0,0,0-2.1.24l-3.32,7a1.24,1.24,0,0,0,1.25,1.77l2.29-.26,1.22,10.77-9.11,1L58,38.33l2.27-.26a1.24,1.24,0,0,0,.85-2L56.33,30a1.26,1.26,0,0,0-2.1.24l-3.32,7A1.25,1.25,0,0,0,52.19,39l2.26-.26L55.67,49.5Z"/><path class="cls-3" d="M113.36,30.71a.25.25,0,0,1-.23-.05c.32-2.8,2.88-5.08,6.07-5.44s6.17,1.29,7.1,4c0,0,0,.09-.2.1Zm11,14.51.57-.07a5.17,5.17,0,0,0,4.46-5.78,1.72,1.72,0,1,0-3.41.39,1.74,1.74,0,0,1-1.43,2l-.58.07a1.74,1.74,0,0,1-1.84-1.62l-.76-6.73,9.33-1.06a1.64,1.64,0,0,0,1.19-.71,1.69,1.69,0,0,0,.2-1.4A12.33,12.33,0,0,0,107.82,33a1.65,1.65,0,0,0,.48,1.32,1.69,1.69,0,0,0,1.32.43l8.29-.93.76,6.73a5.19,5.19,0,0,0,5.64,4.64Z"/><path class="cls-3" d="M19.58,38.78l.35,3.11-8.65,1c-.9.1-1.51,1.22-1.37,2.53s1,2.23,1.9,2.13l28.11-3.18c.9-.1,1.52-1.22,1.38-2.5s-1-2.26-1.9-2.16L24.26,41.4l-.35-3.11Z"/><path class="cls-3" d="M36.91,52.59c-.15-1.28-1-2.26-1.9-2.16l-9.6,1.09L25,48.3l-4.33.49L21.07,52,6.89,53.61c-.9.1-1.51,1.25-1.37,2.53s1,2.23,1.9,2.13l28.11-3.18c.9-.1,1.52-1.22,1.38-2.5Z"/><path class="cls-3" d="M136.46,57.4a5.19,5.19,0,1,1-4.6,5.74,5.2,5.2,0,0,1,4.6-5.74Zm1.69,15a9.89,9.89,0,1,0-11-8.7,9.89,9.89,0,0,0,11,8.7Z"/><path class="cls-3" d="M57.4,76.78A5.18,5.18,0,1,1,62,71.05a5.21,5.21,0,0,1-4.57,5.73Zm-1.69-15a9.89,9.89,0,1,0,10.92,8.73,9.92,9.92,0,0,0-10.92-8.73Z"/><path class="cls-3" d="M126,66a11.92,11.92,0,0,1-.46-2.15,12.49,12.49,0,0,1,0-2.52L67.72,67.88a10.51,10.51,0,0,1,.55,2.45,11.68,11.68,0,0,1,0,2.21Z"/><path class="cls-3" d="M146.47,7.94a6.56,6.56,0,0,1,7,4.49L162,38.66l-8.72,1a2,2,0,0,1-2.12-1.36L141.23,8.53Zm-128,21,.31,2.81L4.61,33.38c-.9.1-1.52,1.22-1.38,2.5s1,2.26,1.9,2.16l28.12-3.18c.9-.1,1.51-1.22,1.37-2.53s-1-2.23-1.9-2.13l-9.6,1.08-.29-2.53a6.87,6.87,0,0,1,6.05-7.59L136.42,9,146.7,39.79a6.69,6.69,0,0,0,7.08,4.52l9.27-1,.78,6.84,0,.3v.11c0,.14,0,.27,0,.41a6.57,6.57,0,0,1-.8,3.46l-.14,0a7,7,0,0,1-4.77,3.3h0l-10.17,1.15a12.29,12.29,0,0,1,.55,2.45,10.89,10.89,0,0,1,0,2.21l10.12-1.15a11.2,11.2,0,0,0,9.89-12.38l-1.08-9.55h0a2.46,2.46,0,0,0-.11-.45l-9.43-29a11.3,11.3,0,0,0-12-7.7L28.33,16.58A11.2,11.2,0,0,0,18.47,29Z"/><path class="cls-3" d="M43.5,70.62l-8.94,1h-.05a6.86,6.86,0,0,1-7.51-6l-.79-7-4.34.5.83,7.33A11.22,11.22,0,0,0,35.09,76.3L45.8,75.08a11.92,11.92,0,0,1-.46-2.15,10.61,10.61,0,0,1,0-2.52Z"/><path class="cls-3" d="M153.85,28.48a2.62,2.62,0,0,1-2.76-1.76L148.85,20l-4.8.55a2.6,2.6,0,0,1-.59-5.17l6.9-.78a2.6,2.6,0,0,1,2.76,1.76l2.9,8.72a2.6,2.6,0,0,1-1.64,3.29A2.68,2.68,0,0,1,153.85,28.48Z"/></g></g></svg>