<svg xmlns="http://www.w3.org/2000/svg" viewBox="0 0 134.41 81.43"><defs><style>.cls-1{fill:#fd0;}.cls-2{fill:#fff;fill-rule:evenodd;}.cls-3{fill:#1d1d1b;}</style></defs><title>Asset 7</title><g id="Layer_2" data-name="Layer 2"><g id="Слой_1" data-name="Слой 1"><path class="cls-1" d="M127.55,31.37l0-.09L122.91,8.73A11,11,0,0,0,112.21,0H22.88A10.88,10.88,0,0,0,12,10.58H3.66A3.91,3.91,0,0,0,0,14.77,3.92,3.92,0,0,0,3.66,19H5.82a4.36,4.36,0,0,0-1.62,3.5A4.31,4.31,0,0,0,5.81,26H3.66A3.92,3.92,0,0,0,0,30.15a3.91,3.91,0,0,0,3.66,4.19H12v5A10.89,10.89,0,0,0,22.88,50.2h7.68a9.89,9.89,0,0,0,18,0H91.49a9.89,9.89,0,0,0,18,0h7.22a10.9,10.9,0,0,0,10.9-10.87V32.08a4.64,4.64,0,0,0-.07-.71m-88,16.24a1.49,1.49,0,1,1,1.49-1.49,1.5,1.5,0,0,1-1.49,1.49m60.93,0A1.49,1.49,0,1,1,102,46.12a1.51,1.51,0,0,1-1.49,1.49"/><path class="cls-2" d="M109.93,5.32l4.93,23.18a1.48,1.48,0,0,0,1.45,1.18h7l-3.37-16.84c-.83-4.14-3.46-7.68-7.66-7.68H109.9l0,.16Z"/><path class="cls-2" d="M123.35,33.22h-7a5.08,5.08,0,0,1-4.93-4L106.44,6h0l-.06-.34-.09-.38h0v-.1h-86a3.64,3.64,0,0,0-3.62,3.62v7.79h2.59v4.14H16.65v3.54h2.59v4.14H16.65V30h2.59v9a5.19,5.19,0,0,0,5.11,5.18H31A8.82,8.82,0,0,1,48.4,46.12c0,.12,0,.24,0,.35h43.3c0-.11,0-.23,0-.35a8.83,8.83,0,0,1,17.65,0c0,.12,0,.24,0,.35h5.25a9.13,9.13,0,0,0,9.09-9.09V33.22ZM44.61,30.3H40.72V20.36h3.89Zm9.67,0H50.39V20.36h3.89ZM69,24.17a5.56,5.56,0,0,1-4.2-5.37v-4A1.28,1.28,0,0,1,66,13.56l2.14,3.26a.1.1,0,0,0-.09.08v2A2.21,2.21,0,0,0,70,21Zm23-7.56a5,5,0,0,0-5,3.56s.06.08.17.08L90.25,23H84a1.27,1.27,0,0,1-1-.46,1.2,1.2,0,0,1-.25-1A9.52,9.52,0,0,1,92,13.61Z"/><path class="cls-3" d="M66.48,69.5s0-.08,0-.12,0-.09,0-.13a.07.07,0,0,1,0,0l-1.62-3.44a1.28,1.28,0,0,0-1.7-.62,1.27,1.27,0,0,0-.6,1.7l1.35,2.88-1.39,2.88A1.28,1.28,0,0,0,63,74.3a1,1,0,0,0,.56.13,1.23,1.23,0,0,0,1.14-.71l1.66-3.43a.06.06,0,0,1,0,0s0-.09,0-.13a.25.25,0,0,0,0-.12.3.3,0,0,0,0-.13s0-.08,0-.12a.32.32,0,0,0,0-.13Z"/><path class="cls-3" d="M60.25,67.93a1.8,1.8,0,0,0-1.83,1.78,1.84,1.84,0,0,0,1.8,1.82A1.81,1.81,0,0,0,62,69.73a1.77,1.77,0,0,0-1.78-1.8"/><path class="cls-3" d="M55.21,67.88a1.81,1.81,0,0,0-1.8,1.81,1.8,1.8,0,0,0,3.6,0,1.84,1.84,0,0,0-1.8-1.83"/><path class="cls-3" d="M50.2,67.86a1.84,1.84,0,0,0-1.82,1.81,1.8,1.8,0,1,0,1.82-1.81"/><path class="cls-3" d="M19.15,68.78C20.18,68,21,66.5,21,64s-1-5.2-5.59-5.2h-3c-1.08,0-1.31.56-1.31,1V80.66a.47.47,0,0,0,.48.46h3.85c3.92,0,6.28-2.88,6.28-7.75,0-2.88-1.29-4.1-2.57-4.59m-4.56-6.86h1c.89,0,1.8.31,1.8,2.57,0,1.92-.64,3-1.76,3h-1ZM15.5,78h-.91V70.62h.93c1.45,0,2.34.12,2.34,3S17,78,15.5,78"/><path class="cls-3" d="M35,58.79c-2.59,0-3,0-3,1V77.83a7.37,7.37,0,0,1-2.22.37c-2.11,0-2.48-1.2-2.48-3.71V59.25a.47.47,0,0,0-.46-.46c-2.69,0-3,0-3,1V74.43c0,3.62.72,7,6,7a11.4,11.4,0,0,0,5.45-1.18.46.46,0,0,0,.21-.39V59.25a.47.47,0,0,0-.46-.46"/><path class="cls-3" d="M42.5,66a4.05,4.05,0,0,1-1.3-2.71c0-1,.93-1.66,2.5-1.66a5,5,0,0,1,2.71.68.46.46,0,0,0,.63-.06,2.72,2.72,0,0,0,.74-1.76c0-.91-.79-2-4.47-2s-5.74,1.87-5.74,4.87a7.26,7.26,0,0,0,2,4.72l3.09,3.56c1.24,1.45,1.67,2.36,1.67,3.67,0,1.82-.8,2.67-2.54,2.67A4,4,0,0,1,39,77a.4.4,0,0,0-.37-.13.38.38,0,0,0-.31.19,3.51,3.51,0,0,0-.75,2c0,1.14,1.39,2.3,4.47,2.3,3.84,0,5.95-2.2,5.95-6.21a7.7,7.7,0,0,0-2.18-5.47Z"/><path class="cls-3" d="M79,59.23c-.21-.33-.64-.48-1.37-.48a8.2,8.2,0,0,0-1.68.21.45.45,0,0,0-.25.16L71.49,67V59.14a.37.37,0,0,0-.37-.35c-2.61,0-2.88,0-2.88.89v21a.37.37,0,0,0,.35.38c2.61,0,2.9,0,2.9-.85V70.64a3,3,0,0,1,.62.5c1.66,1.8,2.49,4.86,3.36,9.56a.31.31,0,0,0,.31.29,16.67,16.67,0,0,0,1.8.11,1.63,1.63,0,0,0,1.18-.31.89.89,0,0,0,.19-.73c-.79-5.78-2.41-9.71-4.81-11.72L79,60a.81.81,0,0,0,0-.78"/><path class="cls-3" d="M91,58.79H89.05a.34.34,0,0,0-.2.06,3.42,3.42,0,0,0-1.2,2.26l-.92,4.74c-.35,1.87-.66,3.71-1,5.68-.21-.91-.39-1.8-.58-2.65-.27-1.22-.54-2.42-.81-3.73L82.8,59.06a.36.36,0,0,0-.35-.27H80.69c-.27,0-1.1,0-1.1.79A6.47,6.47,0,0,0,80,61.17c1.16,4.21,3.32,12,4.52,15.41-.09.64-.29,1.6-.77,1.6a3.64,3.64,0,0,1-1.28-.42.37.37,0,0,0-.48.15,3.53,3.53,0,0,0-.48,2c.13.7,1.18,1.2,2.55,1.2h.17c2.42,0,2.9-2.26,3.5-5.09l0-.23c.48-2,1.61-7.35,2.55-11.68.47-2.24.87-4.12,1-4.93a.36.36,0,0,0-.08-.31.34.34,0,0,0-.29-.13"/><path class="cls-3" d="M96,58.79H93a.78.78,0,0,0-.89.89v21a.37.37,0,0,0,.35.38c2.59,0,2.86,0,2.86-.85V72.3H96c2.26,0,6-.92,6-7.07,0-4.39-1.91-6.44-6-6.44m.29,10.48h-1V61.69h1.18c1,0,2,.37,2,3.27,0,3.79-1.14,4.31-2.24,4.31"/><path class="cls-3" d="M107.71,67.3h-1.3V59.14a.37.37,0,0,0-.35-.35c-2.59,0-2.92,0-2.92,1V80.66a.37.37,0,0,0,.37.38h4c3.79,0,6.06-2.72,6.06-7.25,0-4.37-1.9-6.49-5.84-6.49m-.18,10.82-1.12-.05V70.39c.37,0,1-.06,1.18-.06,1.08,0,2.34.39,2.34,3.29s-.87,4.5-2.4,4.5"/><path class="cls-3" d="M122.44,61.75c.83,0,.83-.43.83-2.61a.37.37,0,0,0-.38-.35h-7.35a.91.91,0,0,0-.89.89v21A.38.38,0,0,0,115,81h7.29c.85,0,.85-.46.85-2.61a.37.37,0,0,0-.35-.38H117.9V70.49h3.79c.83,0,.83-.62.83-2.67a.37.37,0,0,0-.37-.37H117.9v-5.7Z"/><path class="cls-3" d="M128.4,58.79h-3a.78.78,0,0,0-.89.89v21a.37.37,0,0,0,.37.38c2.57,0,2.84,0,2.84-.85V72.3h.72c2.24,0,6-.92,6-7.07,0-4.39-1.91-6.44-6-6.44m.27,10.48h-1V61.69h1.18c.95,0,2,.37,2,3.27,0,3.79-1.12,4.31-2.24,4.31"/><path class="cls-3" d="M74.37,18.85v-4a1.29,1.29,0,0,0-1.3-1.28h-8.5a1.29,1.29,0,0,0-1.28,1.28v4a5.55,5.55,0,0,0,4.22,5.36v5.24H64.74a1.09,1.09,0,0,0-1.08,1.1V31a1.09,1.09,0,0,0,1.08,1.1H72.9A1.11,1.11,0,0,0,74,31v-.45a1.11,1.11,0,0,0-1.1-1.1H70.15V24.21a5.55,5.55,0,0,0,4.22-5.36m-5.28,2.23h-.52a2.17,2.17,0,0,1-1.95-2.17V17a.08.08,0,0,1,.09-.08h4.22A.07.07,0,0,1,71,17v1.95a2.15,2.15,0,0,1-1.92,2.17"/><path class="cls-3" d="M56,31.29V30.24a.81.81,0,0,0-.81-.81H52.93V21.25h1.72a.93.93,0,0,0,.79-1.43l-3.06-5a1,1,0,0,0-1.6,0l-3.09,5a.93.93,0,0,0,.79,1.43h1.74v8.18H43.3V21.25H45a.94.94,0,0,0,.81-1.43l-3.08-5a1,1,0,0,0-1.6,0l-3.09,5a.94.94,0,0,0,.81,1.43h1.72v8.18H38.35a.8.8,0,0,0-.78.81v1.05a.8.8,0,0,0,.78.81h16.8a.81.81,0,0,0,.81-.81"/><path class="cls-3" d="M92.43,32h.43a3.91,3.91,0,0,0,3.84-4,1.3,1.3,0,1,0-2.59,0,1.32,1.32,0,0,1-1.25,1.37h-.43a1.32,1.32,0,0,1-1.24-1.37V23h7.08a1.26,1.26,0,0,0,1-.44,1.24,1.24,0,0,0,.27-1,9.3,9.3,0,0,0-18.39,0,1.23,1.23,0,0,0,.25,1,1.29,1.29,0,0,0,1,.44h6.3v5.11a3.9,3.9,0,0,0,3.83,4m-7-11.81c-.1,0-.17,0-.17-.06a5.3,5.3,0,0,1,10,0s0,.06-.17.06Z"/><path class="cls-3" d="M14.43,18.33v2.36H7.87c-.68,0-1.24.79-1.24,1.78s.56,1.76,1.24,1.76H29.22c.68,0,1.24-.79,1.24-1.76s-.56-1.78-1.24-1.78H17.73V18.33Z"/><path class="cls-3" d="M26.26,30.15c0-1-.56-1.78-1.24-1.78H17.73V25.93h-3.3v2.44H3.66c-.68,0-1.24.81-1.24,1.78S3,31.91,3.66,31.91H25c.68,0,1.24-.78,1.24-1.76"/><path class="cls-3" d="M100.51,53.58A7.47,7.47,0,1,0,93,46.12a7.46,7.46,0,0,0,7.48,7.46m0-11.37a3.92,3.92,0,1,1-3.94,3.91,3.92,3.92,0,0,1,3.94-3.91"/><path class="cls-3" d="M32.1,46.12a7.47,7.47,0,1,0,7.48-7.48,7.48,7.48,0,0,0-7.48,7.48m11.39,0a3.92,3.92,0,1,1-3.91-3.91,3.93,3.93,0,0,1,3.91,3.91"/><path class="cls-3" d="M30.75,46.12A8.88,8.88,0,0,1,31,44.24H22.84a5.19,5.19,0,0,1-5.11-5.18v-5.3h-3.3v5.57a8.46,8.46,0,0,0,8.45,8.45h8a9.07,9.07,0,0,1-.16-1.66"/><path class="cls-3" d="M3.66,16.55H25c.68,0,1.24-.79,1.24-1.78S25.7,13,25,13H17.73V11.08A5.18,5.18,0,0,1,22.9,5.9h81.69l5.09,24a5.08,5.08,0,0,0,4.93,4h7v5.51c0,.1,0,.21,0,.31a4.89,4.89,0,0,1-.89,2.53l-.1,0a5.28,5.28,0,0,1-3.86,2.07h-7.65a8.27,8.27,0,0,1,.21,1.88,9.07,9.07,0,0,1-.16,1.66h7.56a8.46,8.46,0,0,0,8.47-8.45V32.08a2.09,2.09,0,0,0,0-.35L120.53,9.22a8.52,8.52,0,0,0-8.32-6.8H22.88a8.46,8.46,0,0,0-8.45,8.45V13H3.66c-.68,0-1.24.79-1.24,1.77S3,16.55,3.66,16.55M112.21,6a4.94,4.94,0,0,1,4.84,4l4.19,20.4h-6.63a1.53,1.53,0,0,1-1.47-1.2l-3-13.92H113l1.11,5.24A2,2,0,0,0,116,22a1.9,1.9,0,0,0,.41,0,2,2,0,0,0,1.51-2.33l-1.44-6.79a2,2,0,0,0-1.92-1.55h-5.2L108.23,6Z"/><path class="cls-3" d="M48.19,44.24a8.27,8.27,0,0,1,.21,1.88,9.07,9.07,0,0,1-.16,1.66H91.83a9.07,9.07,0,0,1-.16-1.66,8.88,8.88,0,0,1,.21-1.88Z"/></g></g></svg>