<?xml version="1.0" encoding="UTF-8"?>
<svg width="291px" height="291px" viewBox="0 0 291 291" version="1.1" xmlns="http://www.w3.org/2000/svg" xmlns:xlink="http://www.w3.org/1999/xlink">
    <!-- Generator: Sketch 51.2 (57519) - http://www.bohemiancoding.com/sketch -->
    <title>notice</title>
    <desc>Created with Sketch.</desc>
    <defs></defs>
    <g id="Page-1" stroke="none" stroke-width="1" fill="none" fill-rule="evenodd">
        <g id="notice" fill-rule="nonzero">
            <circle id="Oval" fill="#FFFFFF" cx="145.02" cy="145.02" r="145.02"></circle>
            <rect id="Rectangle-path" stroke="#18120E" stroke-width="7.95" fill="#FFDB2E" stroke-linecap="round" stroke-linejoin="round" x="78.34" y="71.39" width="107.56" height="165.96" rx="20.49"></rect>
            <rect id="Rectangle-path" stroke="#18120E" stroke-width="7.95" fill="#FFFFFF" stroke-linecap="round" stroke-linejoin="round" x="91.48" y="83.78" width="81.28" height="125.42" rx="10.63"></rect>
            <path d="M119.16,224.89 C117.437742,224.794356 116.090208,223.369911 116.090208,221.645 C116.090208,219.920089 117.437742,218.495644 119.16,218.4 L145.09,218.4 C146.812258,218.495644 148.159792,219.920089 148.159792,221.645 C148.159792,223.369911 146.812258,224.794356 145.09,224.89 L119.16,224.89 Z" id="Shape" fill="#000000"></path>
            <path d="M203.64,52.7 L143.51,52.7 C136.80186,52.6999979 130.368761,55.3661641 125.627266,60.1114102 C120.885771,64.8566564 118.224693,71.2918626 118.23,78 L118.23,95.26 C118.227347,101.966405 120.889597,108.399042 125.630804,113.142124 C130.372011,117.885207 136.803594,120.550001 143.51,120.55 L145.51,120.55 C145.42,121.55 145.37,122.48 145.37,123.46 C145.367319,132.051924 149.065789,140.22864 155.52,145.9 C155.328742,144.575085 155.228507,143.238621 155.22,141.9 C155.220742,133.861375 158.465834,126.163294 164.22,120.55 L203.65,120.55 C210.356406,120.550001 216.787989,117.885207 221.529196,113.142124 C226.270403,108.399042 228.932653,101.966405 228.93,95.26 L228.93,78 C228.935309,71.2901295 226.272859,64.8534065 221.5292,60.1078724 C216.785542,55.3623382 210.349872,52.6973437 203.64,52.7 Z" id="Shape" stroke="#18120E" stroke-width="7.95" fill="#FFFFFF" stroke-linecap="round" stroke-linejoin="round"></path>
            <circle id="Oval" fill="#18120E" cx="188.59" cy="98.89" r="3.72"></circle>
            <path d="M188.59,73.31 L188.59,89.58" id="Shape" stroke="#18120E" stroke-width="7.95" fill="#FFFFFF" stroke-linecap="round" stroke-linejoin="round"></path>
            <circle id="Oval" fill="#18120E" cx="174.45" cy="98.89" r="3.72"></circle>
            <path d="M174.45,73.31 L174.45,89.58" id="Shape" stroke="#18120E" stroke-width="7.95" fill="#FFFFFF" stroke-linecap="round" stroke-linejoin="round"></path>
            <circle id="Oval" fill="#18120E" cx="160.32" cy="98.89" r="3.72"></circle>
            <path d="M160.32,73.31 L160.32,89.58" id="Shape" stroke="#18120E" stroke-width="7.95" fill="#FFFFFF" stroke-linecap="round" stroke-linejoin="round"></path>
        </g>
    </g>
</svg>