<?xml version="1.0" encoding="UTF-8"?>
<svg viewBox="0 0 512 512" version="1.1" xmlns="http://www.w3.org/2000/svg" xmlns:xlink="http://www.w3.org/1999/xlink">
    <!-- Generator: Sketch 51.2 (57519) - http://www.bohemiancoding.com/sketch -->
    <title>Shape</title>
    <desc>Created with Sketch.</desc>
    <defs></defs>
    <g id="Page-1" stroke="none" stroke-width="1" fill="none" fill-rule="evenodd">
        <g id="phone-alt" fill="#ffffff" fill-rule="nonzero">
            <path d="M497.39,361.8 L385.39,313.8 C375.561257,309.611213 364.147062,312.423997 357.39,320.7 L307.79,381.3 C229.947415,344.597975 167.302025,281.952585 130.6,204.11 L191.2,154.51 C199.493951,147.764298 202.309958,136.337022 198.1,126.51 L150.1,14.51 C145.460811,3.87386054 133.915251,-1.96189527 122.6,0.61 L18.6,24.61 C7.71011307,27.1247044 -0.00250983192,36.823535 0,48 C0,304.5 207.9,512 464,512 C475.180204,512.007169 484.884456,504.293533 487.4,493.4 L511.4,389.4 C513.955172,378.030427 508.075963,366.448258 497.39,361.8 Z" id="Shape"></path>
        </g>
    </g>
</svg>
