<svg xmlns="http://www.w3.org/2000/svg" viewBox="0 0 1832.55 4244.56"><g id="Layer_2" data-name="Layer 2"><g id="Слой_1" data-name="Слой 1"><path d="M774.25,4241.72a2.84,2.84,0,0,1,2.84-2.83h0a2.83,2.83,0,0,1,2.83,2.83h0a2.84,2.84,0,0,1-2.83,2.84h0A2.84,2.84,0,0,1,774.25,4241.72Zm-14.27,0a2.84,2.84,0,0,1,2.84-2.83h0a2.83,2.83,0,0,1,2.83,2.83h0a2.84,2.84,0,0,1-2.83,2.84h0A2.84,2.84,0,0,1,760,4241.72Zm-14.22,0a2.83,2.83,0,0,1,2.83-2.83h0a2.84,2.84,0,0,1,2.84,2.83h0a2.84,2.84,0,0,1-2.84,2.84h0A2.84,2.84,0,0,1,745.76,4241.72Zm-14.22,0a2.84,2.84,0,0,1,2.84-2.83h0a2.83,2.83,0,0,1,2.83,2.83h0a2.84,2.84,0,0,1-2.83,2.84h0A2.84,2.84,0,0,1,731.54,4241.72Zm-14.21,0a2.84,2.84,0,0,1,2.84-2.83h0a2.83,2.83,0,0,1,2.83,2.83h0a2.84,2.84,0,0,1-2.83,2.84h0A2.84,2.84,0,0,1,717.33,4241.72Zm-14.21,0a2.84,2.84,0,0,1,2.84-2.83h0a2.83,2.83,0,0,1,2.83,2.83h0a2.84,2.84,0,0,1-2.83,2.84h0A2.84,2.84,0,0,1,703.12,4241.72Zm-14.21,0a2.84,2.84,0,0,1,2.84-2.83h0a2.83,2.83,0,0,1,2.83,2.83h0a2.83,2.83,0,0,1-2.83,2.84h0A2.84,2.84,0,0,1,688.91,4241.72Zm-14.2,0a2.84,2.84,0,0,1,2.84-2.83h0a2.83,2.83,0,0,1,2.83,2.83h0a2.84,2.84,0,0,1-2.83,2.84h0A2.84,2.84,0,0,1,674.71,4241.72Zm-14.2,0a2.83,2.83,0,0,1,2.83-2.83h0a2.84,2.84,0,0,1,2.84,2.83h0a2.84,2.84,0,0,1-2.84,2.84h0A2.84,2.84,0,0,1,660.51,4241.72Zm-14.2,0a2.83,2.83,0,0,1,2.83-2.83h0a2.83,2.83,0,0,1,2.83,2.83h0a2.83,2.83,0,0,1-2.83,2.84h0A2.84,2.84,0,0,1,646.31,4241.72Zm-14.2,0a2.83,2.83,0,0,1,2.83-2.83h0a2.84,2.84,0,0,1,2.84,2.83h0a2.84,2.84,0,0,1-2.84,2.84h0A2.84,2.84,0,0,1,632.11,4241.72Zm-14.2,0a2.83,2.83,0,0,1,2.83-2.83h0a2.84,2.84,0,0,1,2.84,2.83h0a2.84,2.84,0,0,1-2.84,2.84h0A2.83,2.83,0,0,1,617.91,4241.72Zm-14.24,0a2.84,2.84,0,0,1,2.84-2.83h0a2.83,2.83,0,0,1,2.83,2.83h0a2.84,2.84,0,0,1-2.83,2.84h0A2.84,2.84,0,0,1,603.67,4241.72Zm-14.19,0a2.84,2.84,0,0,1,2.84-2.83h0a2.83,2.83,0,0,1,2.83,2.83h0a2.84,2.84,0,0,1-2.83,2.84h0A2.84,2.84,0,0,1,589.48,4241.72Zm-14.2,0a2.84,2.84,0,0,1,2.84-2.83h0a2.83,2.83,0,0,1,2.83,2.83h0a2.84,2.84,0,0,1-2.83,2.84h0A2.84,2.84,0,0,1,575.28,4241.72Zm-14.2,0a2.84,2.84,0,0,1,2.84-2.83h0a2.83,2.83,0,0,1,2.83,2.83h0a2.84,2.84,0,0,1-2.83,2.84h0A2.84,2.84,0,0,1,561.08,4241.72Zm-14.2,0a2.83,2.83,0,0,1,2.83-2.83h0a2.84,2.84,0,0,1,2.84,2.83h0a2.84,2.84,0,0,1-2.84,2.84h0A2.84,2.84,0,0,1,546.88,4241.72Zm-14.2,0a2.83,2.83,0,0,1,2.83-2.83h0a2.84,2.84,0,0,1,2.84,2.83h0a2.84,2.84,0,0,1-2.84,2.84h0A2.83,2.83,0,0,1,532.68,4241.72Zm-14.21,0a2.84,2.84,0,0,1,2.84-2.83h0a2.83,2.83,0,0,1,2.83,2.83h0a2.84,2.84,0,0,1-2.83,2.84h0A2.84,2.84,0,0,1,518.47,4241.72Zm-14.2,0a2.83,2.83,0,0,1,2.83-2.83h0a2.83,2.83,0,0,1,2.83,2.83h0a2.83,2.83,0,0,1-2.83,2.84h0A2.84,2.84,0,0,1,504.27,4241.72Zm-14.21,0a2.83,2.83,0,0,1,2.83-2.83h0a2.83,2.83,0,0,1,2.83,2.83h0a2.83,2.83,0,0,1-2.83,2.84h0A2.83,2.83,0,0,1,490.06,4241.72Zm-14.22,0a2.84,2.84,0,0,1,2.84-2.83h0a2.83,2.83,0,0,1,2.83,2.83h0a2.84,2.84,0,0,1-2.83,2.84h0A2.84,2.84,0,0,1,475.84,4241.72Zm-14.22,0a2.84,2.84,0,0,1,2.84-2.83h0a2.83,2.83,0,0,1,2.83,2.83h0a2.84,2.84,0,0,1-2.83,2.84h0A2.84,2.84,0,0,1,461.62,4241.72Zm-11.53,2.39a2.84,2.84,0,0,1-2.63-3h0a2.83,2.83,0,0,1,3-2.62h0a2.83,2.83,0,0,1,2.63,3h0a2.85,2.85,0,0,1-2.83,2.64h-.2Zm-14.31-1.59a2.84,2.84,0,0,1-2.38-3.23h0a2.84,2.84,0,0,1,3.23-2.38h0a2.85,2.85,0,0,1,2.38,3.23h0a2.85,2.85,0,0,1-2.8,2.41h0A3.11,3.11,0,0,1,435.78,4242.52Zm-14.14-2.72a2.84,2.84,0,0,1-2.12-3.41h0a2.84,2.84,0,0,1,3.41-2.11h0a2.83,2.83,0,0,1,2.11,3.4h0a2.83,2.83,0,0,1-2.75,2.19h0A2.88,2.88,0,0,1,421.64,4239.8ZM407.76,4236a2.84,2.84,0,0,1-1.84-3.56h0a2.84,2.84,0,0,1,3.57-1.83h0a2.82,2.82,0,0,1,1.83,3.56h0a2.84,2.84,0,0,1-2.7,2h0A2.62,2.62,0,0,1,407.76,4236ZM394.23,4231a2.83,2.83,0,0,1-1.54-3.7h0a2.83,2.83,0,0,1,3.7-1.54h0a2.83,2.83,0,0,1,1.54,3.7h0a2.84,2.84,0,0,1-2.62,1.75h0A2.73,2.73,0,0,1,394.23,4231ZM381.15,4225h0a2.84,2.84,0,0,1-1.22-3.82h0a2.83,2.83,0,0,1,3.82-1.22h0a2.84,2.84,0,0,1,1.22,3.82h0a2.85,2.85,0,0,1-2.52,1.53h0A2.89,2.89,0,0,1,381.15,4225Zm-12.52-7.15a2.83,2.83,0,0,1-.88-3.91h0a2.82,2.82,0,0,1,3.9-.89h0a2.83,2.83,0,0,1,.89,3.91h0a2.83,2.83,0,0,1-2.4,1.33h0A2.87,2.87,0,0,1,368.63,4217.82Zm-11.84-8.24a2.83,2.83,0,0,1-.53-4h0a2.83,2.83,0,0,1,4-.53h0a2.83,2.83,0,0,1,.53,4h0a2.84,2.84,0,0,1-2.26,1.12h0A2.77,2.77,0,0,1,356.79,4209.58Zm-11-9.28a2.83,2.83,0,0,1-.16-4h0a2.84,2.84,0,0,1,4-.16h0a2.83,2.83,0,0,1,.16,4h0a2.85,2.85,0,0,1-2.08.91h0A2.82,2.82,0,0,1,345.75,4200.3ZM335.63,4190a2.84,2.84,0,0,1,.22-4h0a2.83,2.83,0,0,1,4,.23h0a2.82,2.82,0,0,1-.22,4h0a2.8,2.8,0,0,1-1.89.72h0A2.83,2.83,0,0,1,335.63,4190Zm-9.09-11.22a2.84,2.84,0,0,1,.61-4h0a2.84,2.84,0,0,1,4,.61h0a2.83,2.83,0,0,1-.61,4h0a2.81,2.81,0,0,1-1.67.55h0A2.81,2.81,0,0,1,326.54,4178.79Zm-8-12a2.84,2.84,0,0,1,1-3.89h0a2.83,2.83,0,0,1,3.88,1h0a2.84,2.84,0,0,1-1,3.89h0a2.8,2.8,0,0,1-1.44.4h0A2.84,2.84,0,0,1,318.58,4166.76ZM311.81,4154a2.84,2.84,0,0,1,1.35-3.78h0a2.85,2.85,0,0,1,3.78,1.36h0a2.83,2.83,0,0,1-1.36,3.77h0a2.72,2.72,0,0,1-1.2.27h0A2.84,2.84,0,0,1,311.81,4154Zm-5.54-13.31a2.82,2.82,0,0,1,1.69-3.63h0a2.84,2.84,0,0,1,3.64,1.69h0a2.82,2.82,0,0,1-1.69,3.63h0a2.77,2.77,0,0,1-1,.18h0A2.84,2.84,0,0,1,306.27,4140.71ZM302,4127h0a2.83,2.83,0,0,1,2-3.47h0a2.82,2.82,0,0,1,3.47,2h0a2.83,2.83,0,0,1-2,3.47h0a3.12,3.12,0,0,1-.74.09h0A2.82,2.82,0,0,1,302,4127Zm-3.14-14a2.85,2.85,0,0,1,2.29-3.3h0a2.84,2.84,0,0,1,3.29,2.29h0a2.83,2.83,0,0,1-2.29,3.29h0a2.92,2.92,0,0,1-.5.05h0A2.84,2.84,0,0,1,298.81,4112.93Zm-2-14.24a2.82,2.82,0,0,1,2.53-3.1h0a2.83,2.83,0,0,1,3.11,2.53h0a2.84,2.84,0,0,1-2.53,3.1h0l-.29,0h0A2.84,2.84,0,0,1,296.81,4098.69Zm-.95-14.32h0a2.83,2.83,0,0,1,2.74-2.92h0a2.83,2.83,0,0,1,2.92,2.74h0a2.84,2.84,0,0,1-2.75,2.92h-.09A2.84,2.84,0,0,1,295.86,4084.37Zm2.76-11.42a2.84,2.84,0,0,1-2.74-2.93h0a2.84,2.84,0,0,1,2.93-2.74h0a2.84,2.84,0,0,1,2.74,2.93h0a2.84,2.84,0,0,1-2.83,2.74h-.1Zm.75-14.15a2.82,2.82,0,0,1-2.54-3.1h0a2.84,2.84,0,0,1,3.1-2.54h0a2.84,2.84,0,0,1,2.54,3.11h0a2.83,2.83,0,0,1-2.81,2.55h0Zm1.7-14.06a2.84,2.84,0,0,1-2.32-3.27h0a2.84,2.84,0,0,1,3.28-2.31h0a2.82,2.82,0,0,1,2.31,3.27h0a2.82,2.82,0,0,1-2.79,2.35h0A2.59,2.59,0,0,1,301.07,4044.74Zm2.69-13.9a2.83,2.83,0,0,1-2.07-3.43h0a2.84,2.84,0,0,1,3.43-2.08h0a2.84,2.84,0,0,1,2.07,3.44h0a2.84,2.84,0,0,1-2.75,2.15h0A3.23,3.23,0,0,1,303.76,4030.84Zm3.71-13.67a2.83,2.83,0,0,1-1.8-3.58h0a2.83,2.83,0,0,1,3.58-1.8h0a2.84,2.84,0,0,1,1.8,3.58h0a2.82,2.82,0,0,1-2.69,1.95h0A2.8,2.8,0,0,1,307.47,4017.17Zm4.75-13.34a2.85,2.85,0,0,1-1.52-3.71h0a2.83,2.83,0,0,1,3.71-1.52h0a2.83,2.83,0,0,1,1.52,3.71h0a2.83,2.83,0,0,1-2.62,1.74h0A2.83,2.83,0,0,1,312.22,4003.83ZM318,3990.9a2.83,2.83,0,0,1-1.21-3.82h0a2.83,2.83,0,0,1,3.82-1.21h0a2.85,2.85,0,0,1,1.22,3.82h0a2.83,2.83,0,0,1-2.52,1.53h0A2.78,2.78,0,0,1,318,3990.9Zm6.83-12.41a2.84,2.84,0,0,1-.9-3.91h0a2.84,2.84,0,0,1,3.91-.89h0a2.83,2.83,0,0,1,.89,3.91h0a2.83,2.83,0,0,1-2.4,1.33h0A2.75,2.75,0,0,1,324.84,3978.49Zm7.82-11.8a2.84,2.84,0,0,1-.57-4h0a2.85,2.85,0,0,1,4-.57h0a2.84,2.84,0,0,1,.56,4h0a2.84,2.84,0,0,1-2.27,1.13h0A2.84,2.84,0,0,1,332.66,3966.69Zm8.78-11.11a2.82,2.82,0,0,1-.23-4h0a2.83,2.83,0,0,1,4-.23h0a2.83,2.83,0,0,1,.23,4h0a2.83,2.83,0,0,1-2.12,1h0A2.82,2.82,0,0,1,341.44,3955.58Zm9.67-10.33a2.84,2.84,0,0,1,.1-4h0a2.83,2.83,0,0,1,4,.11h0a2.83,2.83,0,0,1-.1,4h0a2.83,2.83,0,0,1-1.95.78h0A2.82,2.82,0,0,1,351.11,3945.25Zm10.51-9.5a2.83,2.83,0,0,1,.43-4h0a2.83,2.83,0,0,1,4,.43h0a2.83,2.83,0,0,1-.44,4h0a2.84,2.84,0,0,1-1.78.62h0A2.82,2.82,0,0,1,361.62,3935.75Zm11.26-8.6a2.82,2.82,0,0,1,.76-3.93h0a2.84,2.84,0,0,1,3.94.75h0a2.85,2.85,0,0,1-.76,3.94h0a2.83,2.83,0,0,1-1.59.49h0A2.84,2.84,0,0,1,372.88,3927.15Zm11.93-7.65a2.83,2.83,0,0,1,1.07-3.87h0a2.83,2.83,0,0,1,3.86,1.08h0a2.83,2.83,0,0,1-1.07,3.86h0a2.81,2.81,0,0,1-1.39.37h0A2.83,2.83,0,0,1,384.81,3919.5Zm12.5-6.68a2.84,2.84,0,0,1,1.37-3.77h0a2.82,2.82,0,0,1,3.76,1.38h0a2.83,2.83,0,0,1-1.37,3.76h0a2.87,2.87,0,0,1-1.2.27h0A2.85,2.85,0,0,1,397.31,3912.82Zm13-5.68a2.84,2.84,0,0,1,1.66-3.65h0a2.83,2.83,0,0,1,3.65,1.66h0a2.83,2.83,0,0,1-1.66,3.65h0a2.88,2.88,0,0,1-1,.18h0A2.84,2.84,0,0,1,410.29,3907.14Zm13.38-4.67a2.83,2.83,0,0,1,1.93-3.51h0a2.83,2.83,0,0,1,3.51,1.93h0a2.84,2.84,0,0,1-1.93,3.52h0a2.71,2.71,0,0,1-.79.12h0A2.84,2.84,0,0,1,423.67,3902.47Zm13.69-3.65a2.83,2.83,0,0,1,2.18-3.36h0a2.83,2.83,0,0,1,3.36,2.18h0a2.84,2.84,0,0,1-2.18,3.37h0a3,3,0,0,1-.59.06h0A2.84,2.84,0,0,1,437.36,3898.82Zm13.92-2.64a2.84,2.84,0,0,1,2.42-3.2h0a2.84,2.84,0,0,1,3.19,2.42h0a2.84,2.84,0,0,1-2.42,3.2h0a2.55,2.55,0,0,1-.39,0h0A2.82,2.82,0,0,1,451.28,3896.18Zm14.07-1.65a2.83,2.83,0,0,1,2.63-3h0a2.84,2.84,0,0,1,3,2.64h0a2.85,2.85,0,0,1-2.64,3h-.19A2.83,2.83,0,0,1,465.35,3894.53Zm14.15-.67a2.84,2.84,0,0,1,2.84-2.84h0a2.84,2.84,0,0,1,2.83,2.84h0a2.83,2.83,0,0,1-2.83,2.83h0A2.83,2.83,0,0,1,479.5,3893.86Z"/><path d="M1349.09,3893.8a2.84,2.84,0,0,1,2.79-2.88h0a2.83,2.83,0,0,1,2.88,2.78h0a2.84,2.84,0,0,1-2.79,2.89h0A2.84,2.84,0,0,1,1349.09,3893.8Z"/><path d="M1363.27,3893.47a2.83,2.83,0,0,1,2.72-2.95h0a2.84,2.84,0,0,1,3,2.71h0a2.83,2.83,0,0,1-2.71,2.95h-.13A2.84,2.84,0,0,1,1363.27,3893.47Z"/><path d="M1377.45,3892.75a2.82,2.82,0,0,1,2.61-3h0a2.83,2.83,0,0,1,3,2.62h0a2.83,2.83,0,0,1-2.62,3h-.21A2.84,2.84,0,0,1,1377.45,3892.75Z"/><path d="M1391.58,3891.55a2.84,2.84,0,0,1,2.49-3.15h0a2.83,2.83,0,0,1,3.14,2.49h0a2.84,2.84,0,0,1-2.49,3.15h0l-.32,0h0A2.85,2.85,0,0,1,1391.58,3891.55Z"/><path d="M1405.64,3889.7a2.83,2.83,0,0,1,2.31-3.27h0a2.84,2.84,0,0,1,3.28,2.31h0a2.83,2.83,0,0,1-2.31,3.27h0a2.7,2.7,0,0,1-.49,0h0A2.84,2.84,0,0,1,1405.64,3889.7Z"/><path d="M1419.57,3887a2.83,2.83,0,0,1,2.06-3.44h0a2.83,2.83,0,0,1,3.44,2.06h0a2.82,2.82,0,0,1-2,3.44h0a2.86,2.86,0,0,1-.7.09h0A2.83,2.83,0,0,1,1419.57,3887Z"/><path d="M1433.21,3883.15a2.84,2.84,0,0,1,1.67-3.65h0a2.82,2.82,0,0,1,3.64,1.67h0a2.82,2.82,0,0,1-1.66,3.64h0a2.88,2.88,0,0,1-1,.18h0A2.84,2.84,0,0,1,1433.21,3883.15Z"/><path d="M1446.26,3877.62a2.83,2.83,0,0,1,1-3.88h0a2.84,2.84,0,0,1,3.87,1h0a2.83,2.83,0,0,1-1,3.87h0a2.85,2.85,0,0,1-1.43.39h0A2.85,2.85,0,0,1,1446.26,3877.62Z"/><path d="M1457.94,3869.65a2.84,2.84,0,0,1-.06-4h0a2.85,2.85,0,0,1,4-.07h0a2.83,2.83,0,0,1,.07,4h0a2.83,2.83,0,0,1-2,.87h0A2.84,2.84,0,0,1,1457.94,3869.65Z"/><path d="M1466.53,3858.49a2.83,2.83,0,0,1-1.63-3.66h0a2.85,2.85,0,0,1,3.67-1.63h0a2.85,2.85,0,0,1,1.62,3.67h0a2.83,2.83,0,0,1-2.64,1.81h0A2.79,2.79,0,0,1,1466.53,3858.49Z"/><path d="M1467,3842.14h0a2.84,2.84,0,0,1,2.71-3h0a2.85,2.85,0,0,1,3,2.72h0a2.83,2.83,0,0,1-2.71,2.95h-.12A2.83,2.83,0,0,1,1467,3842.14Z"/><path d="M1463.12,3830.54a2.84,2.84,0,0,1,.82-3.93h0a2.83,2.83,0,0,1,3.92.83h0a2.83,2.83,0,0,1-.82,3.92h0a2.86,2.86,0,0,1-1.55.46h0A2.83,2.83,0,0,1,1463.12,3830.54Z"/><path d="M1454.11,3821.13a2.83,2.83,0,0,1-.5-4h0a2.83,2.83,0,0,1,4-.5h0a2.83,2.83,0,0,1,.49,4h0a2.8,2.8,0,0,1-2.23,1.09h0A2.84,2.84,0,0,1,1454.11,3821.13Z"/><path d="M1442.61,3813.86a2.83,2.83,0,0,1-1.19-3.82h0a2.83,2.83,0,0,1,3.83-1.19h0a2.84,2.84,0,0,1,1.19,3.82h0a2.83,2.83,0,0,1-2.51,1.52h0A2.72,2.72,0,0,1,1442.61,3813.86Z"/><path d="M1430,3808.12a2.83,2.83,0,0,1-1.58-3.68h0a2.83,2.83,0,0,1,3.68-1.58h0a2.83,2.83,0,0,1,1.59,3.68h0a2.84,2.84,0,0,1-2.64,1.78h0A2.79,2.79,0,0,1,1430,3808.12Z"/><path d="M1416.85,3803.43a2.84,2.84,0,0,1-1.84-3.57h0a2.84,2.84,0,0,1,3.57-1.83h0a2.83,2.83,0,0,1,1.83,3.56h0a2.83,2.83,0,0,1-2.7,2h0A2.85,2.85,0,0,1,1416.85,3803.43Z"/><path d="M1403.37,3799.48a2.82,2.82,0,0,1-2-3.47h0a2.83,2.83,0,0,1,3.47-2h0a2.84,2.84,0,0,1,2,3.47h0a2.84,2.84,0,0,1-2.74,2.1h0A2.74,2.74,0,0,1,1403.37,3799.48Z"/><path d="M1389.71,3796.11a2.84,2.84,0,0,1-2.13-3.4h0a2.84,2.84,0,0,1,3.4-2.13h0a2.84,2.84,0,0,1,2.13,3.4h0a2.84,2.84,0,0,1-2.76,2.2h0A2.85,2.85,0,0,1,1389.71,3796.11Z"/><path d="M1375.92,3793.17a2.84,2.84,0,0,1-2.23-3.33h0a2.84,2.84,0,0,1,3.34-2.23h0a2.85,2.85,0,0,1,2.23,3.33h0a2.85,2.85,0,0,1-2.78,2.29h0A2.67,2.67,0,0,1,1375.92,3793.17Z"/><path d="M1362.05,3790.59h0a2.83,2.83,0,0,1-2.31-3.28h0a2.83,2.83,0,0,1,3.28-2.3h0a2.83,2.83,0,0,1,2.3,3.28h0a2.83,2.83,0,0,1-2.78,2.34h0A2.63,2.63,0,0,1,1362.05,3790.59Z"/><path d="M1348.11,3788.3a2.83,2.83,0,0,1-2.37-3.23h0a2.83,2.83,0,0,1,3.23-2.37h0a2.84,2.84,0,0,1,2.37,3.24h0a2.83,2.83,0,0,1-2.8,2.4h0A2.09,2.09,0,0,1,1348.11,3788.3Z"/><path d="M1334.12,3786.26a2.84,2.84,0,0,1-2.42-3.2h0a2.84,2.84,0,0,1,3.2-2.42h0a2.85,2.85,0,0,1,2.42,3.2h0a2.85,2.85,0,0,1-2.81,2.45h0A2.56,2.56,0,0,1,1334.12,3786.26Z"/><path d="M1320.1,3784.42a2.84,2.84,0,0,1-2.47-3.16h0a2.84,2.84,0,0,1,3.17-2.46h0a2.83,2.83,0,0,1,2.46,3.16h0a2.84,2.84,0,0,1-2.81,2.49h0A2.07,2.07,0,0,1,1320.1,3784.42Z"/><path d="M1306.05,3782.77a2.82,2.82,0,0,1-2.5-3.13h0a2.82,2.82,0,0,1,3.13-2.5h0a2.83,2.83,0,0,1,2.5,3.13h0a2.83,2.83,0,0,1-2.82,2.52h0Z"/><path d="M1292,3781.27a2.82,2.82,0,0,1-2.54-3.1h0a2.84,2.84,0,0,1,3.11-2.54h0a2.84,2.84,0,0,1,2.53,3.11h0a2.84,2.84,0,0,1-2.81,2.55h0Z"/><path d="M1277.89,3779.92a2.83,2.83,0,0,1-2.56-3.08h0a2.84,2.84,0,0,1,3.08-2.57h0a2.83,2.83,0,0,1,2.56,3.08h0a2.83,2.83,0,0,1-2.82,2.58h-.26Z"/><path d="M1263.79,3778.68a2.83,2.83,0,0,1-2.59-3.06h0a2.83,2.83,0,0,1,3.06-2.59h0a2.83,2.83,0,0,1,2.59,3.06h0a2.85,2.85,0,0,1-2.83,2.6h-.23Z"/><path d="M1249.67,3777.56a2.83,2.83,0,0,1-2.61-3h0a2.83,2.83,0,0,1,3-2.61h0a2.82,2.82,0,0,1,2.61,3h0a2.83,2.83,0,0,1-2.82,2.62h-.22Z"/><path d="M1235.55,3776.54h0a2.84,2.84,0,0,1-2.63-3h0a2.83,2.83,0,0,1,3-2.63h0a2.83,2.83,0,0,1,2.63,3h0a2.83,2.83,0,0,1-2.83,2.64h-.19Z"/><path d="M1221.42,3775.6h0a2.83,2.83,0,0,1-2.65-3h0a2.83,2.83,0,0,1,3-2.65h0a2.83,2.83,0,0,1,2.64,3h0a2.83,2.83,0,0,1-2.82,2.66h-.18Z"/><path d="M1207.28,3774.75a2.84,2.84,0,0,1-2.67-3h0a2.83,2.83,0,0,1,3-2.66h0a2.83,2.83,0,0,1,2.67,3h0a2.82,2.82,0,0,1-2.83,2.67h-.16Z"/><path d="M1193.14,3774a2.82,2.82,0,0,1-2.68-3h0a2.82,2.82,0,0,1,3-2.68h0a2.82,2.82,0,0,1,2.68,3h0a2.82,2.82,0,0,1-2.83,2.68h-.14Z"/><path d="M1179,3773.26a2.85,2.85,0,0,1-2.7-3h0a2.85,2.85,0,0,1,3-2.7h0a2.84,2.84,0,0,1,2.69,3h0a2.83,2.83,0,0,1-2.82,2.7H1179Z"/><path d="M1164.84,3772.61a2.83,2.83,0,0,1-2.71-3h0a2.83,2.83,0,0,1,2.95-2.7h0a2.82,2.82,0,0,1,2.71,3h0a2.83,2.83,0,0,1-2.83,2.71h-.12Z"/><path d="M1150.68,3772a2.83,2.83,0,0,1-2.72-2.94h0a2.82,2.82,0,0,1,2.94-2.72h0a2.82,2.82,0,0,1,2.72,2.94h0a2.82,2.82,0,0,1-2.82,2.72h-.12Z"/><path d="M1136.52,3771.48a2.84,2.84,0,0,1-2.73-2.93h0a2.83,2.83,0,0,1,2.94-2.73h0a2.84,2.84,0,0,1,2.73,2.93h0a2.85,2.85,0,0,1-2.84,2.74h-.1Z"/><path d="M1122.36,3771a2.84,2.84,0,0,1-2.74-2.93h0a2.83,2.83,0,0,1,2.93-2.74h0a2.84,2.84,0,0,1,2.74,2.93h0a2.84,2.84,0,0,1-2.84,2.74h-.09Z"/><path d="M1108.2,3770.55a2.82,2.82,0,0,1-2.75-2.91h0a2.83,2.83,0,0,1,2.92-2.75h0a2.82,2.82,0,0,1,2.74,2.92h0a2.82,2.82,0,0,1-2.82,2.74h-.09Z"/><path d="M1094,3770.15a2.82,2.82,0,0,1-2.75-2.91h0a2.82,2.82,0,0,1,2.91-2.75h0a2.83,2.83,0,0,1,2.75,2.91h0a2.83,2.83,0,0,1-2.83,2.75H1094Z"/><path d="M1079.87,3769.79a2.82,2.82,0,0,1-2.77-2.9h0a2.85,2.85,0,0,1,2.9-2.77h0a2.84,2.84,0,0,1,2.77,2.91h0a2.83,2.83,0,0,1-2.83,2.76h-.07Z"/><path d="M1065.7,3769.47a2.84,2.84,0,0,1-2.77-2.9h0a2.83,2.83,0,0,1,2.89-2.77h0a2.85,2.85,0,0,1,2.78,2.9h0a2.84,2.84,0,0,1-2.84,2.77h-.06Z"/><path d="M1051.53,3769.18a2.83,2.83,0,0,1-2.78-2.89h0a2.84,2.84,0,0,1,2.89-2.78h0a2.84,2.84,0,0,1,2.78,2.89h0a2.83,2.83,0,0,1-2.83,2.78h-.06Z"/><path d="M1037.36,3768.92a2.82,2.82,0,0,1-2.78-2.88h0a2.82,2.82,0,0,1,2.88-2.79h0a2.85,2.85,0,0,1,2.79,2.89h0a2.85,2.85,0,0,1-2.84,2.78h-.05Z"/><path d="M1023.19,3768.69a2.83,2.83,0,0,1-2.79-2.87h0a2.84,2.84,0,0,1,2.88-2.8h0a2.84,2.84,0,0,1,2.79,2.88h0a2.84,2.84,0,0,1-2.83,2.79h0Z"/><path d="M1009,3768.49a2.83,2.83,0,0,1-2.8-2.87h0a2.84,2.84,0,0,1,2.87-2.8h0a2.84,2.84,0,0,1,2.79,2.88h0a2.83,2.83,0,0,1-2.83,2.79h0Z"/><path d="M994.85,3768.32a2.84,2.84,0,0,1-2.8-2.87h0a2.83,2.83,0,0,1,2.87-2.8h0a2.84,2.84,0,0,1,2.8,2.87h0a2.84,2.84,0,0,1-2.84,2.8h0Z"/><path d="M980.67,3768.16a2.82,2.82,0,0,1-2.8-2.86h0a2.83,2.83,0,0,1,2.86-2.8h0a2.83,2.83,0,0,1,2.81,2.86h0a2.83,2.83,0,0,1-2.83,2.8h0Z"/><path d="M966.5,3768h0a2.85,2.85,0,0,1-2.81-2.86h0a2.84,2.84,0,0,1,2.86-2.82h0a2.84,2.84,0,0,1,2.81,2.87h0a2.84,2.84,0,0,1-2.84,2.81h0Z"/><path d="M952.33,3767.93a2.83,2.83,0,0,1-2.81-2.86h0a2.81,2.81,0,0,1,2.85-2.81h0a2.83,2.83,0,0,1,2.81,2.85h0a2.83,2.83,0,0,1-2.83,2.82h0Z"/><path d="M938.16,3767.84h0a2.82,2.82,0,0,1-2.81-2.84h0a2.82,2.82,0,0,1,2.85-2.82h0A2.84,2.84,0,0,1,941,3765h0a2.84,2.84,0,0,1-2.84,2.82h0Z"/><path d="M921.16,3764.92a2.84,2.84,0,0,1,2.85-2.83h0a2.84,2.84,0,0,1,2.82,2.85h0a2.83,2.83,0,0,1-2.85,2.82h0A2.84,2.84,0,0,1,921.16,3764.92Z"/><path d="M909.81,3767.71h0a2.84,2.84,0,0,1-2.83-2.85h0a2.84,2.84,0,0,1,2.85-2.82h0a2.83,2.83,0,0,1,2.82,2.84h0a2.83,2.83,0,0,1-2.83,2.83h0Z"/><path d="M895.63,3767.67a2.84,2.84,0,0,1-2.83-2.84h0a2.84,2.84,0,0,1,2.84-2.83h0a2.82,2.82,0,0,1,2.82,2.84h0a2.83,2.83,0,0,1-2.83,2.83h0Z"/><path d="M878.63,3764.8a2.83,2.83,0,0,1,2.83-2.83h0a2.84,2.84,0,0,1,2.84,2.84h0a2.84,2.84,0,0,1-2.84,2.83h0A2.82,2.82,0,0,1,878.63,3764.8Z"/><path d="M864.45,3764.79a2.83,2.83,0,0,1,2.84-2.83h0a2.84,2.84,0,0,1,2.83,2.84h0a2.84,2.84,0,0,1-2.84,2.83h0A2.84,2.84,0,0,1,864.45,3764.79Z"/><path d="M853.11,3767.62a2.84,2.84,0,0,1-2.84-2.83h0a2.84,2.84,0,0,1,2.84-2.84h0a2.83,2.83,0,0,1,2.83,2.84h0a2.83,2.83,0,0,1-2.83,2.83Z"/><path d="M838.93,3767.59a2.83,2.83,0,0,1-2.83-2.84h0a2.83,2.83,0,0,1,2.84-2.82h0a2.82,2.82,0,0,1,2.82,2.84h0a2.83,2.83,0,0,1-2.83,2.82h0Z"/><path d="M824.74,3767.53h0a2.84,2.84,0,0,1-2.82-2.85h0a2.83,2.83,0,0,1,2.85-2.82h0a2.84,2.84,0,0,1,2.82,2.85h0a2.84,2.84,0,0,1-2.84,2.82h0Z"/><path d="M810.56,3767.42a2.84,2.84,0,0,1-2.81-2.86h0a2.85,2.85,0,0,1,2.86-2.81h0a2.84,2.84,0,0,1,2.81,2.86h0a2.83,2.83,0,0,1-2.83,2.81h0Z"/><path d="M796.38,3767.28a2.84,2.84,0,0,1-2.8-2.87h0a2.83,2.83,0,0,1,2.87-2.8h0a2.83,2.83,0,0,1,2.8,2.87h0a2.83,2.83,0,0,1-2.83,2.8h0Z"/><path d="M782.2,3767.09a2.84,2.84,0,0,1-2.79-2.88h0a2.82,2.82,0,0,1,2.88-2.79h0a2.83,2.83,0,0,1,2.79,2.87h0a2.84,2.84,0,0,1-2.84,2.8h0Z"/><path d="M768,3766.85a2.84,2.84,0,0,1-2.78-2.89h0a2.83,2.83,0,0,1,2.88-2.78h0a2.84,2.84,0,0,1,2.79,2.89h0a2.85,2.85,0,0,1-2.84,2.78H768Z"/><path d="M753.84,3766.56a2.82,2.82,0,0,1-2.77-2.89h0a2.84,2.84,0,0,1,2.89-2.78h0a2.85,2.85,0,0,1,2.78,2.9h0a2.84,2.84,0,0,1-2.84,2.77h-.06Z"/><path d="M739.66,3766.22a2.83,2.83,0,0,1-2.76-2.9h0a2.83,2.83,0,0,1,2.9-2.76h0a2.84,2.84,0,0,1,2.77,2.9h0a2.84,2.84,0,0,1-2.84,2.76h-.07Z"/><path d="M725.48,3765.83a2.83,2.83,0,0,1-2.75-2.92h0a2.84,2.84,0,0,1,2.92-2.75h0a2.85,2.85,0,0,1,2.75,2.92h0a2.84,2.84,0,0,1-2.84,2.75h-.08Z"/><path d="M711.3,3765.38a2.84,2.84,0,0,1-2.74-2.93h0a2.85,2.85,0,0,1,2.93-2.74h0a2.84,2.84,0,0,1,2.74,2.93h0a2.84,2.84,0,0,1-2.83,2.74h-.1Z"/><path d="M697.13,3764.86h0a2.83,2.83,0,0,1-2.72-2.94h0a2.84,2.84,0,0,1,2.94-2.72h0a2.83,2.83,0,0,1,2.72,2.94h0a2.82,2.82,0,0,1-2.82,2.73h-.11Z"/><path d="M683,3764.29a2.84,2.84,0,0,1-2.71-3h0a2.84,2.84,0,0,1,3-2.71h0a2.83,2.83,0,0,1,2.71,3h0a2.82,2.82,0,0,1-2.82,2.71H683Z"/><path d="M668.78,3763.64a2.85,2.85,0,0,1-2.7-3h0a2.84,2.84,0,0,1,3-2.69h0a2.82,2.82,0,0,1,2.69,3h0a2.83,2.83,0,0,1-2.82,2.7h-.14Z"/><path d="M654.61,3762.92a2.84,2.84,0,0,1-2.68-3h0a2.82,2.82,0,0,1,3-2.68h0a2.83,2.83,0,0,1,2.68,3h0a2.83,2.83,0,0,1-2.83,2.68h-.15Z"/><path d="M640.44,3762.12a2.84,2.84,0,0,1-2.66-3h0a2.82,2.82,0,0,1,3-2.66h0a2.83,2.83,0,0,1,2.67,3h0a2.84,2.84,0,0,1-2.83,2.67h-.17Z"/><path d="M626.28,3761.24a2.85,2.85,0,0,1-2.65-3h0a2.83,2.83,0,0,1,3-2.64h0a2.83,2.83,0,0,1,2.64,3h0a2.84,2.84,0,0,1-2.82,2.65h-.19Z"/><path d="M612.12,3760.26a2.83,2.83,0,0,1-2.63-3h0a2.84,2.84,0,0,1,3-2.62h0a2.84,2.84,0,0,1,2.63,3h0a2.84,2.84,0,0,1-2.83,2.63h-.2Z"/><path d="M598,3759.2a2.84,2.84,0,0,1-2.61-3h0a2.83,2.83,0,0,1,3-2.6h0a2.82,2.82,0,0,1,2.6,3h0a2.83,2.83,0,0,1-2.82,2.61H598Z"/><path d="M583.82,3758a2.83,2.83,0,0,1-2.58-3.06h0a2.84,2.84,0,0,1,3.07-2.59h0a2.84,2.84,0,0,1,2.58,3.07h0a2.84,2.84,0,0,1-2.82,2.59h-.25Z"/><path d="M569.68,3756.76h0a2.84,2.84,0,0,1-2.56-3.09h0a2.84,2.84,0,0,1,3.09-2.55h0a2.83,2.83,0,0,1,2.56,3.08h0a2.84,2.84,0,0,1-2.82,2.57h-.27Z"/><path d="M555.55,3755.38a2.85,2.85,0,0,1-2.53-3.12h0a2.85,2.85,0,0,1,3.11-2.53h0a2.83,2.83,0,0,1,2.53,3.11h0a2.84,2.84,0,0,1-2.82,2.55h-.29Z"/><path d="M541.44,3753.86h0a2.83,2.83,0,0,1-2.5-3.13h0a2.84,2.84,0,0,1,3.13-2.5h0a2.83,2.83,0,0,1,2.51,3.13h0a2.85,2.85,0,0,1-2.82,2.52h0A1.62,1.62,0,0,1,541.44,3753.86Z"/><path d="M527.33,3752.22a2.82,2.82,0,0,1-2.47-3.15h0a2.82,2.82,0,0,1,3.15-2.47h0a2.84,2.84,0,0,1,2.47,3.16h0a2.82,2.82,0,0,1-2.81,2.49h0A1.94,1.94,0,0,1,527.33,3752.22Z"/><path d="M513.24,3750.44a2.83,2.83,0,0,1-2.44-3.18h0a2.84,2.84,0,0,1,3.18-2.44h0a2.84,2.84,0,0,1,2.44,3.18h0a2.84,2.84,0,0,1-2.8,2.47h0A2.43,2.43,0,0,1,513.24,3750.44Z"/><path d="M499.17,3748.51a2.84,2.84,0,0,1-2.41-3.21h0a2.83,2.83,0,0,1,3.21-2.4h0a2.83,2.83,0,0,1,2.4,3.2h0a2.83,2.83,0,0,1-2.8,2.44h0A2.69,2.69,0,0,1,499.17,3748.51Z"/><path d="M485.12,3746.41a2.83,2.83,0,0,1-2.37-3.23h0a2.84,2.84,0,0,1,3.24-2.37h0a2.84,2.84,0,0,1,2.36,3.24h0a2.83,2.83,0,0,1-2.8,2.4h0A2.09,2.09,0,0,1,485.12,3746.41Z"/><path d="M471.09,3744.14a2.83,2.83,0,0,1-2.32-3.27h0a2.83,2.83,0,0,1,3.26-2.32h0a2.83,2.83,0,0,1,2.33,3.27h0a2.85,2.85,0,0,1-2.8,2.36h0A2.56,2.56,0,0,1,471.09,3744.14Z"/><path d="M457.09,3741.68a2.82,2.82,0,0,1-2.27-3.3h0a2.83,2.83,0,0,1,3.3-2.28h0a2.83,2.83,0,0,1,2.27,3.3h0a2.82,2.82,0,0,1-2.78,2.32h0A3,3,0,0,1,457.09,3741.68Z"/><path d="M443.13,3739a2.84,2.84,0,0,1-2.23-3.34h0a2.84,2.84,0,0,1,3.34-2.22h0a2.83,2.83,0,0,1,2.22,3.33h0a2.82,2.82,0,0,1-2.77,2.28h0A2.65,2.65,0,0,1,443.13,3739Z"/><path d="M429.21,3736.12a2.84,2.84,0,0,1-2.17-3.38h0a2.83,2.83,0,0,1,3.37-2.17h0a2.84,2.84,0,0,1,2.17,3.38h0a2.84,2.84,0,0,1-2.77,2.23h0A3.05,3.05,0,0,1,429.21,3736.12Z"/><path d="M415.34,3733a2.83,2.83,0,0,1-2.11-3.41h0a2.84,2.84,0,0,1,3.41-2.11h0a2.84,2.84,0,0,1,2.11,3.41h0a2.85,2.85,0,0,1-2.76,2.19h0A2.82,2.82,0,0,1,415.34,3733Z"/><path d="M401.52,3729.58h0a2.84,2.84,0,0,1-2-3.45h0a2.83,2.83,0,0,1,3.45-2h0a2.83,2.83,0,0,1,2,3.45h0a2.84,2.84,0,0,1-2.74,2.13h0A2.94,2.94,0,0,1,401.52,3729.58Z"/><path d="M387.78,3725.89a2.84,2.84,0,0,1-2-3.5h0a2.84,2.84,0,0,1,3.5-2h0a2.83,2.83,0,0,1,2,3.49h0a2.84,2.84,0,0,1-2.72,2.07h0A2.86,2.86,0,0,1,387.78,3725.89Z"/><path d="M374.12,3721.88a2.83,2.83,0,0,1-1.88-3.54h0a2.83,2.83,0,0,1,3.54-1.88h0a2.84,2.84,0,0,1,1.88,3.54h0a2.84,2.84,0,0,1-2.71,2h0A2.92,2.92,0,0,1,374.12,3721.88Z"/><path d="M360.55,3717.52a2.83,2.83,0,0,1-1.78-3.59h0a2.84,2.84,0,0,1,3.59-1.78h0a2.84,2.84,0,0,1,1.78,3.59h0a2.81,2.81,0,0,1-2.68,1.93h0A2.89,2.89,0,0,1,360.55,3717.52Z"/><path d="M347.11,3712.79h0a2.83,2.83,0,0,1-1.67-3.64h0a2.83,2.83,0,0,1,3.64-1.68h0a2.82,2.82,0,0,1,1.67,3.64h0a2.82,2.82,0,0,1-2.65,1.86h0A2.88,2.88,0,0,1,347.11,3712.79Z"/><path d="M333.82,3707.63a2.83,2.83,0,0,1-1.56-3.69h0a2.84,2.84,0,0,1,3.7-1.56h0a2.84,2.84,0,0,1,1.56,3.7h0a2.85,2.85,0,0,1-2.63,1.76h0A2.69,2.69,0,0,1,333.82,3707.63Z"/><path d="M320.7,3702a2.83,2.83,0,0,1-1.41-3.75h0a2.83,2.83,0,0,1,3.75-1.42h0a2.83,2.83,0,0,1,1.41,3.75h0a2.82,2.82,0,0,1-2.58,1.67h0A2.87,2.87,0,0,1,320.7,3702Z"/><path d="M307.81,3695.9h0a2.84,2.84,0,0,1-1.27-3.81h0a2.84,2.84,0,0,1,3.8-1.27h0a2.83,2.83,0,0,1,1.27,3.8h0a2.85,2.85,0,0,1-2.54,1.57h0A2.88,2.88,0,0,1,307.81,3695.9Z"/><path d="M295.17,3689.22h0a2.83,2.83,0,0,1-1.09-3.86h0a2.83,2.83,0,0,1,3.85-1.09h0a2.83,2.83,0,0,1,1.09,3.86h0a2.83,2.83,0,0,1-2.48,1.45h0A2.9,2.9,0,0,1,295.17,3689.22Z"/><path d="M282.87,3681.93a2.81,2.81,0,0,1-.89-3.9h0a2.83,2.83,0,0,1,3.9-.9h0a2.84,2.84,0,0,1,.9,3.91h0a2.83,2.83,0,0,1-2.4,1.33h0A2.79,2.79,0,0,1,282.87,3681.93Z"/><path d="M271,3674h0a2.85,2.85,0,0,1-.67-4h0a2.84,2.84,0,0,1,3.95-.67h0a2.84,2.84,0,0,1,.68,4h0a2.85,2.85,0,0,1-2.32,1.2h0A2.85,2.85,0,0,1,271,3674Z"/><path d="M259.54,3665.35h0a2.82,2.82,0,0,1-.42-4h0a2.83,2.83,0,0,1,4-.43h0a2.85,2.85,0,0,1,.42,4h0a2.84,2.84,0,0,1-2.21,1.05h0A2.81,2.81,0,0,1,259.54,3665.35Z"/><path d="M248.7,3656a2.84,2.84,0,0,1-.15-4h0a2.84,2.84,0,0,1,4-.15h0a2.84,2.84,0,0,1,.15,4h0a2.83,2.83,0,0,1-2.08.9h0A2.82,2.82,0,0,1,248.7,3656Z"/><path d="M238.56,3645.81h0a2.85,2.85,0,0,1,.15-4h0a2.84,2.84,0,0,1,4,.16h0a2.85,2.85,0,0,1-.15,4h0a2.86,2.86,0,0,1-1.93.75h0A2.85,2.85,0,0,1,238.56,3645.81Z"/><path d="M229.24,3634.89a2.83,2.83,0,0,1,.47-4h0a2.84,2.84,0,0,1,4,.48h0a2.84,2.84,0,0,1-.48,4h0a2.81,2.81,0,0,1-1.75.6h0A2.83,2.83,0,0,1,229.24,3634.89Z"/><path d="M220.85,3623.23a2.84,2.84,0,0,1,.81-3.93h0a2.84,2.84,0,0,1,3.93.82h0a2.84,2.84,0,0,1-.82,3.92h0a2.79,2.79,0,0,1-1.55.47h0A2.81,2.81,0,0,1,220.85,3623.23Z"/><path d="M213.49,3610.89h0a2.85,2.85,0,0,1,1.16-3.85h0a2.84,2.84,0,0,1,3.84,1.16h0a2.83,2.83,0,0,1-1.14,3.84h0a2.84,2.84,0,0,1-1.35.33h0A2.83,2.83,0,0,1,213.49,3610.89Z"/><path d="M207.23,3597.93h0a2.83,2.83,0,0,1,1.48-3.72h0a2.82,2.82,0,0,1,3.72,1.48h0a2.84,2.84,0,0,1-1.48,3.73h0a2.91,2.91,0,0,1-1.12.23h0A2.83,2.83,0,0,1,207.23,3597.93Z"/><path d="M202.12,3584.5a2.84,2.84,0,0,1,1.79-3.58h0a2.83,2.83,0,0,1,3.59,1.8h0a2.84,2.84,0,0,1-1.79,3.58h0a2.82,2.82,0,0,1-.9.14h0A2.83,2.83,0,0,1,202.12,3584.5Z"/><path d="M198.16,3570.7a2.83,2.83,0,0,1,2.08-3.42h0a2.84,2.84,0,0,1,3.43,2.08h0a2.85,2.85,0,0,1-2.09,3.43h0a3.07,3.07,0,0,1-.67.08h0A2.83,2.83,0,0,1,198.16,3570.7Z"/><path d="M195.3,3556.64a2.83,2.83,0,0,1,2.34-3.25h0a2.84,2.84,0,0,1,3.26,2.34h0a2.84,2.84,0,0,1-2.34,3.25h0a2.45,2.45,0,0,1-.46,0h0A2.84,2.84,0,0,1,195.3,3556.64Z"/><path d="M193.48,3542.43a2.85,2.85,0,0,1,2.57-3.09h0a2.84,2.84,0,0,1,3.08,2.57h0a2.83,2.83,0,0,1-2.56,3.08h-.26A2.84,2.84,0,0,1,193.48,3542.43Z"/><path d="M192.63,3528.13a2.84,2.84,0,0,1,2.76-2.91h0a2.83,2.83,0,0,1,2.91,2.75h0a2.84,2.84,0,0,1-2.75,2.92h-.08A2.85,2.85,0,0,1,192.63,3528.13Z"/><path d="M195.39,3516.72a2.82,2.82,0,0,1-2.77-2.89h0a2.82,2.82,0,0,1,2.89-2.77h0a2.82,2.82,0,0,1,2.77,2.89h0a2.83,2.83,0,0,1-2.83,2.77h-.06Z"/><path d="M195.84,3502.56a2.82,2.82,0,0,1-2.65-3h0a2.83,2.83,0,0,1,3-2.66h0a2.83,2.83,0,0,1,2.65,3h0a2.84,2.84,0,0,1-2.83,2.66h-.17Z"/><path d="M196.89,3488.45a2.84,2.84,0,0,1-2.52-3.12h0a2.85,2.85,0,0,1,3.13-2.52h0a2.84,2.84,0,0,1,2.51,3.12h0a2.83,2.83,0,0,1-2.81,2.53h-.31Z"/><path d="M198.61,3474.41a2.83,2.83,0,0,1-2.34-3.25h0a2.82,2.82,0,0,1,3.24-2.35h0a2.83,2.83,0,0,1,2.35,3.25h0a2.83,2.83,0,0,1-2.8,2.38h0Z"/><path d="M201.09,3460.48a2.82,2.82,0,0,1-2.15-3.38h0a2.84,2.84,0,0,1,3.38-2.15h0a2.83,2.83,0,0,1,2.16,3.38h0a2.83,2.83,0,0,1-2.76,2.22h0A2.62,2.62,0,0,1,201.09,3460.48Z"/><path d="M204.4,3446.74a2.84,2.84,0,0,1-1.93-3.51h0a2.84,2.84,0,0,1,3.52-1.93h0a2.84,2.84,0,0,1,1.93,3.51h0a2.85,2.85,0,0,1-2.72,2.05h0A2.77,2.77,0,0,1,204.4,3446.74Z"/><path d="M208.63,3433.26a2.83,2.83,0,0,1-1.68-3.64h0a2.83,2.83,0,0,1,3.64-1.68h0a2.84,2.84,0,0,1,1.68,3.64h0a2.84,2.84,0,0,1-2.66,1.86h0A2.78,2.78,0,0,1,208.63,3433.26Z"/><path d="M213.82,3420.13a2.84,2.84,0,0,1-1.4-3.76h0a2.83,2.83,0,0,1,3.76-1.39h0a2.82,2.82,0,0,1,1.4,3.75h0a2.85,2.85,0,0,1-2.58,1.66h0A2.89,2.89,0,0,1,213.82,3420.13Z"/><path d="M220,3407.44a2.84,2.84,0,0,1-1.09-3.86h0a2.84,2.84,0,0,1,3.86-1.08h0a2.83,2.83,0,0,1,1.09,3.86h0a2.84,2.84,0,0,1-2.48,1.44h0A2.76,2.76,0,0,1,220,3407.44Z"/><path d="M227.21,3395.3a2.83,2.83,0,0,1-.76-3.93h0a2.83,2.83,0,0,1,3.93-.77h0a2.84,2.84,0,0,1,.77,3.94h0a2.84,2.84,0,0,1-2.35,1.25h0A2.83,2.83,0,0,1,227.21,3395.3Z"/><path d="M235.41,3383.79a2.84,2.84,0,0,1-.44-4h0a2.83,2.83,0,0,1,4-.44h0a2.84,2.84,0,0,1,.44,4h0a2.82,2.82,0,0,1-2.21,1.06h0A2.81,2.81,0,0,1,235.41,3383.79Z"/><path d="M244.5,3373a2.84,2.84,0,0,1-.12-4h0a2.83,2.83,0,0,1,4-.11h0a2.83,2.83,0,0,1,.12,4h0a2.84,2.84,0,0,1-2.07.89h0A2.81,2.81,0,0,1,244.5,3373Z"/><path d="M254.42,3363a2.84,2.84,0,0,1,.18-4h0a2.84,2.84,0,0,1,4,.19h0a2.83,2.83,0,0,1-.19,4h0a2.83,2.83,0,0,1-1.91.74h0A2.82,2.82,0,0,1,254.42,3363Z"/><path d="M265.06,3353.66a2.83,2.83,0,0,1,.46-4h0a2.83,2.83,0,0,1,4,.47h0a2.84,2.84,0,0,1-.46,4h0a2.83,2.83,0,0,1-1.76.61h0A2.83,2.83,0,0,1,265.06,3353.66Z"/><path d="M276.31,3345.11a2.83,2.83,0,0,1,.72-3.94h0a2.83,2.83,0,0,1,3.94.72h0a2.83,2.83,0,0,1-.72,3.94h0a2.82,2.82,0,0,1-1.61.51h0A2.82,2.82,0,0,1,276.31,3345.11Z"/><path d="M288.07,3337.29a2.84,2.84,0,0,1,.95-3.9h0a2.84,2.84,0,0,1,3.9,1h0a2.83,2.83,0,0,1-.95,3.89h0a2.82,2.82,0,0,1-1.47.41h0A2.85,2.85,0,0,1,288.07,3337.29Z"/><path d="M300.26,3330.13a2.85,2.85,0,0,1,1.15-3.85h0a2.83,2.83,0,0,1,3.84,1.15h0a2.83,2.83,0,0,1-1.14,3.84h0a2.85,2.85,0,0,1-1.35.34h0A2.86,2.86,0,0,1,300.26,3330.13Z"/><path d="M312.8,3323.58a2.82,2.82,0,0,1,1.33-3.78h0a2.84,2.84,0,0,1,3.79,1.32h0a2.83,2.83,0,0,1-1.32,3.78h0a2.86,2.86,0,0,1-1.23.28h0A2.84,2.84,0,0,1,312.8,3323.58Z"/><path d="M325.62,3317.6a2.84,2.84,0,0,1,1.48-3.73h0a2.83,2.83,0,0,1,3.72,1.48h0a2.83,2.83,0,0,1-1.47,3.72h0a2.83,2.83,0,0,1-1.13.24h0A2.83,2.83,0,0,1,325.62,3317.6Z"/><path d="M338.67,3312.13a2.84,2.84,0,0,1,1.61-3.68h0a2.84,2.84,0,0,1,3.67,1.62h0a2.83,2.83,0,0,1-1.61,3.67h0a2.84,2.84,0,0,1-1,.19h0A2.84,2.84,0,0,1,338.67,3312.13Z"/><path d="M351.91,3307.12a2.83,2.83,0,0,1,1.73-3.62h0a2.83,2.83,0,0,1,3.61,1.73h0a2.83,2.83,0,0,1-1.73,3.61h0a2.69,2.69,0,0,1-.95.17h0A2.83,2.83,0,0,1,351.91,3307.12Z"/><path d="M365.3,3302.52a2.82,2.82,0,0,1,1.83-3.56h0a2.84,2.84,0,0,1,3.56,1.84h0a2.84,2.84,0,0,1-1.83,3.57h0a2.64,2.64,0,0,1-.87.14h0A2.83,2.83,0,0,1,365.3,3302.52Z"/><path d="M378.81,3298.3a2.82,2.82,0,0,1,1.93-3.51h0a2.82,2.82,0,0,1,3.51,1.92h0a2.84,2.84,0,0,1-1.92,3.52h0a3.21,3.21,0,0,1-.8.11h0A2.83,2.83,0,0,1,378.81,3298.3Z"/><path d="M392.43,3294.42a2.83,2.83,0,0,1,2-3.47h0a2.83,2.83,0,0,1,3.47,2h0a2.84,2.84,0,0,1-2,3.48h0a3.12,3.12,0,0,1-.74.09h0A2.82,2.82,0,0,1,392.43,3294.42Z"/><path d="M406.13,3290.85a2.83,2.83,0,0,1,2.08-3.43h0a2.84,2.84,0,0,1,3.43,2.07h0a2.83,2.83,0,0,1-2.08,3.43h0a2.63,2.63,0,0,1-.68.08h0A2.84,2.84,0,0,1,406.13,3290.85Z"/><path d="M419.9,3287.55a2.84,2.84,0,0,1,2.15-3.39h0a2.82,2.82,0,0,1,3.38,2.14h0a2.83,2.83,0,0,1-2.14,3.39h0a2.68,2.68,0,0,1-.62.07h0A2.85,2.85,0,0,1,419.9,3287.55Z"/><path d="M433.74,3284.5a2.83,2.83,0,0,1,2.19-3.35h0a2.84,2.84,0,0,1,3.36,2.2h0a2.84,2.84,0,0,1-2.2,3.35h0a2.93,2.93,0,0,1-.58.06h0A2.82,2.82,0,0,1,433.74,3284.5Z"/><path d="M447.62,3281.68a2.83,2.83,0,0,1,2.25-3.32h0a2.84,2.84,0,0,1,3.31,2.25h0a2.83,2.83,0,0,1-2.25,3.32h0a2.47,2.47,0,0,1-.54.05h0A2.83,2.83,0,0,1,447.62,3281.68Z"/><path d="M461.54,3279.07a2.84,2.84,0,0,1,2.3-3.29h0a2.83,2.83,0,0,1,3.28,2.3h0a2.83,2.83,0,0,1-2.29,3.29h0a2.89,2.89,0,0,1-.5,0h0A2.84,2.84,0,0,1,461.54,3279.07Z"/><path d="M475.5,3276.65a2.83,2.83,0,0,1,2.33-3.26h0a2.83,2.83,0,0,1,3.26,2.34h0a2.83,2.83,0,0,1-2.34,3.26h0a3.55,3.55,0,0,1-.46,0h0A2.82,2.82,0,0,1,475.5,3276.65Z"/><path d="M489.48,3274.4a2.84,2.84,0,0,1,2.38-3.23h0a2.84,2.84,0,0,1,3.23,2.38h0a2.85,2.85,0,0,1-2.38,3.23h0l-.43,0h0A2.84,2.84,0,0,1,489.48,3274.4Z"/><path d="M503.5,3272.31a2.83,2.83,0,0,1,2.41-3.2h0a2.84,2.84,0,0,1,3.2,2.41h0a2.83,2.83,0,0,1-2.41,3.2h0l-.4,0h0A2.83,2.83,0,0,1,503.5,3272.31Z"/><path d="M517.53,3270.37a2.84,2.84,0,0,1,2.44-3.18h0a2.84,2.84,0,0,1,3.18,2.44h0a2.84,2.84,0,0,1-2.44,3.18h0a2.31,2.31,0,0,1-.37,0h0A2.84,2.84,0,0,1,517.53,3270.37Z"/><path d="M531.58,3268.56a2.84,2.84,0,0,1,2.47-3.16h0a2.84,2.84,0,0,1,3.16,2.47h0a2.83,2.83,0,0,1-2.47,3.16h0a2.06,2.06,0,0,1-.35,0h0A2.84,2.84,0,0,1,531.58,3268.56Z"/><path d="M545.65,3266.88a2.83,2.83,0,0,1,2.5-3.14h0a2.82,2.82,0,0,1,3.13,2.5h0a2.82,2.82,0,0,1-2.49,3.13h0a1.77,1.77,0,0,1-.32,0h0A2.83,2.83,0,0,1,545.65,3266.88Z"/><path d="M559.73,3265.31a2.84,2.84,0,0,1,2.52-3.12h0a2.84,2.84,0,0,1,3.12,2.52h0a2.84,2.84,0,0,1-2.52,3.12h-.3A2.84,2.84,0,0,1,559.73,3265.31Z"/><path d="M573.83,3263.85a2.84,2.84,0,0,1,2.54-3.11h0a2.84,2.84,0,0,1,3.1,2.55h0a2.85,2.85,0,0,1-2.55,3.1h-.28A2.82,2.82,0,0,1,573.83,3263.85Z"/><path d="M587.93,3262.48a2.82,2.82,0,0,1,2.56-3.08h0a2.84,2.84,0,0,1,3.09,2.56h0A2.84,2.84,0,0,1,591,3265h-.26A2.83,2.83,0,0,1,587.93,3262.48Z"/><path d="M602,3261.21a2.84,2.84,0,0,1,2.58-3.07h0a2.84,2.84,0,0,1,3.07,2.58h0a2.84,2.84,0,0,1-2.58,3.07h-.25A2.84,2.84,0,0,1,602,3261.21Z"/><path d="M616.16,3260a2.83,2.83,0,0,1,2.6-3.05h0a2.83,2.83,0,0,1,3,2.6h0a2.83,2.83,0,0,1-2.6,3H619A2.83,2.83,0,0,1,616.16,3260Z"/><path d="M630.29,3258.91a2.83,2.83,0,0,1,2.61-3h0a2.84,2.84,0,0,1,3,2.62h0a2.83,2.83,0,0,1-2.61,3h-.22A2.84,2.84,0,0,1,630.29,3258.91Z"/><path d="M644.42,3257.88a2.84,2.84,0,0,1,2.63-3h0a2.84,2.84,0,0,1,3,2.63h0a2.85,2.85,0,0,1-2.63,3h-.2A2.83,2.83,0,0,1,644.42,3257.88Z"/><path d="M658.56,3256.91a2.82,2.82,0,0,1,2.64-3h0a2.83,2.83,0,0,1,3,2.64h0a2.82,2.82,0,0,1-2.64,3h-.19A2.82,2.82,0,0,1,658.56,3256.91Z"/><path d="M672.7,3256a2.83,2.83,0,0,1,2.66-3h0a2.83,2.83,0,0,1,3,2.66h0a2.85,2.85,0,0,1-2.66,3h-.17A2.83,2.83,0,0,1,672.7,3256Z"/><path d="M686.84,3255.17a2.85,2.85,0,0,1,2.67-3h0a2.83,2.83,0,0,1,3,2.67h0a2.83,2.83,0,0,1-2.66,3h-.16A2.84,2.84,0,0,1,686.84,3255.17Z"/><path d="M701,3254.39a2.85,2.85,0,0,1,2.69-3h0a2.85,2.85,0,0,1,3,2.69h0a2.85,2.85,0,0,1-2.69,3h-.15A2.83,2.83,0,0,1,701,3254.39Z"/><path d="M715.15,3253.65a2.83,2.83,0,0,1,2.69-3h0a2.85,2.85,0,0,1,3,2.7h0a2.84,2.84,0,0,1-2.69,3H718A2.83,2.83,0,0,1,715.15,3253.65Z"/><path d="M729.3,3253a2.84,2.84,0,0,1,2.7-3h0a2.83,2.83,0,0,1,3,2.7h0a2.85,2.85,0,0,1-2.7,3h-.13A2.84,2.84,0,0,1,729.3,3253Z"/><path d="M743.46,3252.34a2.82,2.82,0,0,1,2.71-3h0a2.83,2.83,0,0,1,3,2.71h0a2.84,2.84,0,0,1-2.71,3h-.12A2.83,2.83,0,0,1,743.46,3252.34Z"/><path d="M757.61,3251.75a2.84,2.84,0,0,1,2.72-2.95h0a2.84,2.84,0,0,1,2.95,2.73h0a2.84,2.84,0,0,1-2.72,2.94h-.11A2.83,2.83,0,0,1,757.61,3251.75Z"/><path d="M771.78,3251.2a2.84,2.84,0,0,1,2.72-2.94h0a2.84,2.84,0,0,1,2.94,2.73h0a2.84,2.84,0,0,1-2.73,2.94h-.1A2.83,2.83,0,0,1,771.78,3251.2Z"/><path d="M785.94,3250.69a2.83,2.83,0,0,1,2.73-2.93h0a2.83,2.83,0,0,1,2.93,2.74h0a2.84,2.84,0,0,1-2.73,2.93h-.1A2.84,2.84,0,0,1,785.94,3250.69Z"/><path d="M800.1,3250.21a2.84,2.84,0,0,1,2.74-2.92h0a2.84,2.84,0,0,1,2.93,2.75h0A2.84,2.84,0,0,1,803,3253h-.09A2.84,2.84,0,0,1,800.1,3250.21Z"/><path d="M814.27,3249.78a2.83,2.83,0,0,1,2.74-2.92h0a2.82,2.82,0,0,1,2.91,2.75h0a2.84,2.84,0,0,1-2.75,2.92h-.08A2.83,2.83,0,0,1,814.27,3249.78Z"/><path d="M828.43,3249.37a2.84,2.84,0,0,1,2.76-2.91h0a2.84,2.84,0,0,1,2.91,2.76h0a2.84,2.84,0,0,1-2.76,2.91h-.08A2.83,2.83,0,0,1,828.43,3249.37Z"/><path d="M842.6,3249a2.83,2.83,0,0,1,2.76-2.91h0a2.84,2.84,0,0,1,2.91,2.76h0a2.85,2.85,0,0,1-2.77,2.91h-.07A2.83,2.83,0,0,1,842.6,3249Z"/><path d="M856.77,3248.65a2.83,2.83,0,0,1,2.77-2.9h0a2.82,2.82,0,0,1,2.89,2.77h0a2.83,2.83,0,0,1-2.76,2.9h-.07A2.83,2.83,0,0,1,856.77,3248.65Z"/><path d="M870.93,3248.33a2.84,2.84,0,0,1,2.78-2.89h0a2.83,2.83,0,0,1,2.89,2.77h0a2.83,2.83,0,0,1-2.77,2.89h-.07A2.84,2.84,0,0,1,870.93,3248.33Z"/><path d="M885.1,3248a2.84,2.84,0,0,1,2.78-2.89h0a2.83,2.83,0,0,1,2.89,2.78h0a2.84,2.84,0,0,1-2.78,2.89h0A2.85,2.85,0,0,1,885.1,3248Z"/><path d="M899.27,3247.77a2.84,2.84,0,0,1,2.78-2.89h0a2.84,2.84,0,0,1,2.88,2.79h0a2.84,2.84,0,0,1-2.79,2.88h0A2.84,2.84,0,0,1,899.27,3247.77Z"/><path d="M913.44,3247.52a2.84,2.84,0,0,1,2.79-2.88h0a2.84,2.84,0,0,1,2.88,2.79h0a2.83,2.83,0,0,1-2.79,2.88h0A2.84,2.84,0,0,1,913.44,3247.52Z"/><path d="M927.61,3247.3a2.84,2.84,0,0,1,2.79-2.88h0a2.84,2.84,0,0,1,2.88,2.79h0a2.84,2.84,0,0,1-2.79,2.88h0A2.83,2.83,0,0,1,927.61,3247.3Z"/><path d="M941.78,3247.1a2.84,2.84,0,0,1,2.8-2.88h0a2.84,2.84,0,0,1,2.87,2.8h0a2.84,2.84,0,0,1-2.8,2.87h0A2.83,2.83,0,0,1,941.78,3247.1Z"/><path d="M956,3246.91a2.84,2.84,0,0,1,2.8-2.87h0a2.84,2.84,0,0,1,2.87,2.8h0a2.83,2.83,0,0,1-2.8,2.87h0A2.84,2.84,0,0,1,956,3246.91Z"/><path d="M970.12,3246.75a2.84,2.84,0,0,1,2.81-2.87h0a2.83,2.83,0,0,1,2.86,2.81h0a2.83,2.83,0,0,1-2.8,2.86h0A2.84,2.84,0,0,1,970.12,3246.75Z"/><path d="M984.29,3246.6a2.83,2.83,0,0,1,2.81-2.86h0a2.82,2.82,0,0,1,2.86,2.81h0a2.83,2.83,0,0,1-2.8,2.86h0A2.84,2.84,0,0,1,984.29,3246.6Z"/><path d="M998.46,3246.47a2.84,2.84,0,0,1,2.82-2.86h0a2.82,2.82,0,0,1,2.85,2.81h0a2.83,2.83,0,0,1-2.8,2.86h0A2.84,2.84,0,0,1,998.46,3246.47Z"/><path d="M1012.64,3246.35a2.84,2.84,0,0,1,2.81-2.86h0a2.84,2.84,0,0,1,2.86,2.82h0a2.84,2.84,0,0,1-2.82,2.86h0A2.84,2.84,0,0,1,1012.64,3246.35Z"/><path d="M1026.81,3246.25a2.83,2.83,0,0,1,2.82-2.85h0a2.84,2.84,0,0,1,2.86,2.81h0a2.84,2.84,0,0,1-2.82,2.86h0A2.84,2.84,0,0,1,1026.81,3246.25Z"/><path d="M1041,3246.16a2.84,2.84,0,0,1,2.82-2.85h0a2.84,2.84,0,0,1,2.85,2.82h0a2.83,2.83,0,0,1-2.82,2.85h0A2.84,2.84,0,0,1,1041,3246.16Z"/><path d="M1055.15,3246.09a2.84,2.84,0,0,1,2.83-2.85h0a2.83,2.83,0,0,1,2.84,2.82h0a2.83,2.83,0,0,1-2.82,2.85h0A2.84,2.84,0,0,1,1055.15,3246.09Z"/><path d="M1069.32,3246a2.84,2.84,0,0,1,2.83-2.85h0A2.84,2.84,0,0,1,1075,3246h0a2.84,2.84,0,0,1-2.83,2.84h0A2.84,2.84,0,0,1,1069.32,3246Z"/><path d="M1083.5,3246a2.82,2.82,0,0,1,2.82-2.84h0a2.84,2.84,0,0,1,2.85,2.82h0a2.84,2.84,0,0,1-2.83,2.84h0A2.83,2.83,0,0,1,1083.5,3246Z"/><path d="M1097.67,3245.94a2.84,2.84,0,0,1,2.83-2.84h0a2.84,2.84,0,0,1,2.84,2.83h0a2.84,2.84,0,0,1-2.83,2.84h0A2.83,2.83,0,0,1,1097.67,3245.94Z"/><path d="M1111.84,3245.91a2.84,2.84,0,0,1,2.83-2.84h0a2.84,2.84,0,0,1,2.84,2.84h0a2.83,2.83,0,0,1-2.83,2.83h0A2.83,2.83,0,0,1,1111.84,3245.91Z"/><path d="M1126,3245.89a2.84,2.84,0,0,1,2.84-2.83h0a2.83,2.83,0,0,1,2.83,2.83h0a2.83,2.83,0,0,1-2.83,2.84h0A2.84,2.84,0,0,1,1126,3245.89Z"/><path d="M1143,3248.72a2.83,2.83,0,0,1-2.83-2.83h0a2.83,2.83,0,0,1,2.83-2.84h0a2.83,2.83,0,0,1,2.83,2.83h0a2.83,2.83,0,0,1-2.83,2.84Z"/><path d="M1154.36,3245.87a2.84,2.84,0,0,1,2.81-2.86h0a2.84,2.84,0,0,1,2.86,2.81h0a2.84,2.84,0,0,1-2.81,2.86h0A2.83,2.83,0,0,1,1154.36,3245.87Z"/><path d="M1171.42,3248.48a2.83,2.83,0,0,1-2.89-2.77h0a2.83,2.83,0,0,1,2.78-2.89h0a2.83,2.83,0,0,1,2.89,2.78h0a2.85,2.85,0,0,1-2.78,2.89h0Z"/><path d="M1182.7,3245.38a2.84,2.84,0,0,1,2.74-2.93h0a2.83,2.83,0,0,1,2.92,2.74h0a2.83,2.83,0,0,1-2.74,2.92h-.09A2.83,2.83,0,0,1,1182.7,3245.38Z"/><path d="M1196.86,3244.88a2.84,2.84,0,0,1,2.71-3h0a2.84,2.84,0,0,1,3,2.71h0a2.83,2.83,0,0,1-2.71,3h-.12A2.84,2.84,0,0,1,1196.86,3244.88Z"/><path d="M1211,3244.21a2.83,2.83,0,0,1,2.68-3h0a2.83,2.83,0,0,1,3,2.67h0a2.83,2.83,0,0,1-2.67,3h-.16A2.84,2.84,0,0,1,1211,3244.21Z"/><path d="M1225.16,3243.36a2.83,2.83,0,0,1,2.63-3h0a2.83,2.83,0,0,1,3,2.63h0a2.83,2.83,0,0,1-2.63,3h-.2A2.84,2.84,0,0,1,1225.16,3243.36Z"/><path d="M1239.29,3242.32a2.83,2.83,0,0,1,2.59-3.06h0a2.84,2.84,0,0,1,3.06,2.6h0a2.84,2.84,0,0,1-2.59,3h-.24A2.83,2.83,0,0,1,1239.29,3242.32Z"/><path d="M1253.4,3241.1A2.83,2.83,0,0,1,1256,3238h0a2.83,2.83,0,0,1,3.09,2.55h0a2.83,2.83,0,0,1-2.55,3.09h-.27A2.83,2.83,0,0,1,1253.4,3241.1Z"/><path d="M1267.5,3239.68a2.82,2.82,0,0,1,2.5-3.12h0a2.83,2.83,0,0,1,3.13,2.5h0a2.83,2.83,0,0,1-2.51,3.13h0l-.31,0h0A2.83,2.83,0,0,1,1267.5,3239.68Z"/><path d="M1281.57,3238.07a2.83,2.83,0,0,1,2.46-3.16h0a2.83,2.83,0,0,1,3.16,2.46h0a2.84,2.84,0,0,1-2.46,3.17h0l-.35,0h0A2.84,2.84,0,0,1,1281.57,3238.07Z"/><path d="M1295.62,3236.26a2.83,2.83,0,0,1,2.41-3.2h0a2.83,2.83,0,0,1,3.2,2.42h0a2.84,2.84,0,0,1-2.41,3.2h0l-.4,0h0A2.82,2.82,0,0,1,1295.62,3236.26Z"/><path d="M1309.64,3234.24A2.82,2.82,0,0,1,1312,3231h0a2.84,2.84,0,0,1,3.24,2.36h0a2.84,2.84,0,0,1-2.37,3.24h0a3.25,3.25,0,0,1-.44,0h0A2.82,2.82,0,0,1,1309.64,3234.24Z"/><path d="M1323.62,3232a2.83,2.83,0,0,1,2.32-3.27h0a2.83,2.83,0,0,1,3.27,2.32h0a2.83,2.83,0,0,1-2.32,3.27h0a2.56,2.56,0,0,1-.47,0h0A2.85,2.85,0,0,1,1323.62,3232Z"/><path d="M1337.57,3229.56a2.83,2.83,0,0,1,2.27-3.3h0a2.83,2.83,0,0,1,3.31,2.26h0a2.85,2.85,0,0,1-2.27,3.31h0a3.15,3.15,0,0,1-.52.05h0A2.84,2.84,0,0,1,1337.57,3229.56Z"/><path d="M1351.48,3226.9a2.83,2.83,0,0,1,2.21-3.34h0a2.83,2.83,0,0,1,3.34,2.21h0a2.84,2.84,0,0,1-2.21,3.34h0a2.74,2.74,0,0,1-.56.06h0A2.84,2.84,0,0,1,1351.48,3226.9Z"/><path d="M1365.35,3224a2.83,2.83,0,0,1,2.15-3.38h0a2.83,2.83,0,0,1,3.38,2.15h0a2.83,2.83,0,0,1-2.15,3.38h0a2.6,2.6,0,0,1-.61.07h0A2.83,2.83,0,0,1,1365.35,3224Z"/><path d="M1379.16,3220.88a2.83,2.83,0,0,1,2.1-3.41h0a2.85,2.85,0,0,1,3.42,2.1h0a2.85,2.85,0,0,1-2.1,3.42h0a3,3,0,0,1-.66.07h0A2.83,2.83,0,0,1,1379.16,3220.88Z"/><path d="M1392.92,3217.53a2.84,2.84,0,0,1,2-3.45h0a2.83,2.83,0,0,1,3.45,2h0a2.83,2.83,0,0,1-2,3.45h0a2.86,2.86,0,0,1-.7.09h0A2.84,2.84,0,0,1,1392.92,3217.53Z"/><path d="M1406.62,3213.93a2.83,2.83,0,0,1,2-3.48h0a2.84,2.84,0,0,1,3.49,2h0a2.85,2.85,0,0,1-2,3.49h0a2.76,2.76,0,0,1-.75.1h0A2.84,2.84,0,0,1,1406.62,3213.93Z"/><path d="M1420.25,3210.1a2.84,2.84,0,0,1,1.92-3.52h0a2.83,2.83,0,0,1,3.52,1.91h0a2.83,2.83,0,0,1-1.92,3.52h0a2.77,2.77,0,0,1-.8.12h0A2.84,2.84,0,0,1,1420.25,3210.1Z"/><path d="M1433.81,3206a2.84,2.84,0,0,1,1.85-3.56h0a2.84,2.84,0,0,1,3.56,1.85h0a2.84,2.84,0,0,1-1.85,3.56h0a2.85,2.85,0,0,1-.86.13h0A2.83,2.83,0,0,1,1433.81,3206Z"/><path d="M1447.29,3201.68a2.85,2.85,0,0,1,1.79-3.59h0a2.83,2.83,0,0,1,3.59,1.79h0a2.83,2.83,0,0,1-1.79,3.59h0a2.82,2.82,0,0,1-.9.14h0A2.84,2.84,0,0,1,1447.29,3201.68Z"/><path d="M1460.69,3197.09a2.83,2.83,0,0,1,1.72-3.62h0a2.83,2.83,0,0,1,3.62,1.72h0a2.83,2.83,0,0,1-1.72,3.62h0a2.84,2.84,0,0,1-1,.17h0A2.85,2.85,0,0,1,1460.69,3197.09Z"/><path d="M1474,3192.25a2.84,2.84,0,0,1,1.64-3.66h0a2.85,2.85,0,0,1,3.66,1.64h0a2.84,2.84,0,0,1-1.65,3.66h0a2.73,2.73,0,0,1-1,.19h0A2.84,2.84,0,0,1,1474,3192.25Z"/><path d="M1487.21,3187.14a2.83,2.83,0,0,1,1.57-3.69h0a2.84,2.84,0,0,1,3.69,1.58h0a2.83,2.83,0,0,1-1.57,3.68h0a2.86,2.86,0,0,1-1.06.21h0A2.82,2.82,0,0,1,1487.21,3187.14Z"/><path d="M1500.31,3181.77a2.84,2.84,0,0,1,1.5-3.72h0a2.84,2.84,0,0,1,3.72,1.5h0a2.84,2.84,0,0,1-1.5,3.72h0a2.9,2.9,0,0,1-1.11.23h0A2.84,2.84,0,0,1,1500.31,3181.77Z"/><path d="M1513.3,3176.14a2.83,2.83,0,0,1,1.42-3.75h0a2.83,2.83,0,0,1,3.75,1.42h0a2.84,2.84,0,0,1-1.42,3.75h0a2.82,2.82,0,0,1-1.16.25h0A2.85,2.85,0,0,1,1513.3,3176.14Z"/><path d="M1526.18,3170.24a2.83,2.83,0,0,1,1.33-3.78h0a2.83,2.83,0,0,1,3.78,1.34h0a2.83,2.83,0,0,1-1.34,3.78h0a2.92,2.92,0,0,1-1.22.27h0A2.81,2.81,0,0,1,1526.18,3170.24Z"/><path d="M1538.92,3164.07a2.84,2.84,0,0,1,1.26-3.81h0a2.84,2.84,0,0,1,3.81,1.26h0a2.84,2.84,0,0,1-1.26,3.81h0a2.92,2.92,0,0,1-1.27.3h0A2.84,2.84,0,0,1,1538.92,3164.07Z"/><path d="M1551.53,3157.63a2.84,2.84,0,0,1,1.18-3.83h0a2.83,2.83,0,0,1,3.83,1.17h0a2.83,2.83,0,0,1-1.18,3.83h0a2.76,2.76,0,0,1-1.32.34h0A2.84,2.84,0,0,1,1551.53,3157.63Z"/><path d="M1564,3150.92a2.84,2.84,0,0,1,1.1-3.86h0a2.83,2.83,0,0,1,3.85,1.1h0a2.84,2.84,0,0,1-1.09,3.85h0a2.76,2.76,0,0,1-1.38.36h0A2.84,2.84,0,0,1,1564,3150.92Z"/><path d="M1576.32,3143.94a2.84,2.84,0,0,1,1-3.88h0a2.83,2.83,0,0,1,3.88,1h0a2.84,2.84,0,0,1-1,3.88h0a2.85,2.85,0,0,1-1.43.39h0A2.84,2.84,0,0,1,1576.32,3143.94Z"/><path d="M1588.49,3136.69a2.84,2.84,0,0,1,.92-3.9h0a2.83,2.83,0,0,1,3.9.92h0a2.84,2.84,0,0,1-.92,3.9h0a2.8,2.8,0,0,1-1.49.43h0A2.82,2.82,0,0,1,1588.49,3136.69Z"/><path d="M1600.49,3129.17a2.83,2.83,0,0,1,.84-3.92h0a2.84,2.84,0,0,1,3.92.84h0a2.84,2.84,0,0,1-.84,3.92h0a2.82,2.82,0,0,1-1.54.46h0A2.83,2.83,0,0,1,1600.49,3129.17Z"/><path d="M1612.32,3121.39a2.83,2.83,0,0,1,.75-3.94h0a2.84,2.84,0,0,1,3.94.75h0a2.84,2.84,0,0,1-.75,3.94h0a2.86,2.86,0,0,1-1.6.49h0A2.82,2.82,0,0,1,1612.32,3121.39Z"/><path d="M1624,3113.34a2.83,2.83,0,0,1,.66-4h0a2.85,2.85,0,0,1,4,.66h0a2.84,2.84,0,0,1-.66,3.95h0a2.82,2.82,0,0,1-1.65.53h0A2.82,2.82,0,0,1,1624,3113.34Z"/><path d="M1635.44,3105a2.83,2.83,0,0,1,.57-4h0a2.83,2.83,0,0,1,4,.57h0a2.83,2.83,0,0,1-.57,4h0a2.78,2.78,0,0,1-1.7.57h0A2.82,2.82,0,0,1,1635.44,3105Z"/><path d="M1646.72,3096.47a2.82,2.82,0,0,1,.48-4h0a2.83,2.83,0,0,1,4,.48h0a2.84,2.84,0,0,1-.48,4h0a2.81,2.81,0,0,1-1.75.6h0A2.83,2.83,0,0,1,1646.72,3096.47Z"/><path d="M1657.8,3087.65a2.83,2.83,0,0,1,.39-4h0a2.83,2.83,0,0,1,4,.39h0a2.84,2.84,0,0,1-.39,4h0a2.85,2.85,0,0,1-1.8.64h0A2.82,2.82,0,0,1,1657.8,3087.65Z"/><path d="M1668.68,3078.58a2.83,2.83,0,0,1,.29-4h0a2.84,2.84,0,0,1,4,.3h0a2.84,2.84,0,0,1-.3,4h0a2.81,2.81,0,0,1-1.85.68h0A2.82,2.82,0,0,1,1668.68,3078.58Z"/><path d="M1679.34,3069.27a2.84,2.84,0,0,1,.21-4h0a2.85,2.85,0,0,1,4,.21h0a2.84,2.84,0,0,1-.21,4h0a2.85,2.85,0,0,1-1.9.73h0A2.82,2.82,0,0,1,1679.34,3069.27Z"/><path d="M1689.8,3059.72a2.84,2.84,0,0,1,.12-4h0a2.83,2.83,0,0,1,4,.11h0a2.83,2.83,0,0,1-.11,4h0a2.82,2.82,0,0,1-2,.77h0A2.82,2.82,0,0,1,1689.8,3059.72Z"/><path d="M1700,3049.93a2.83,2.83,0,0,1,0-4h0a2.83,2.83,0,0,1,4,0h0a2.85,2.85,0,0,1,0,4h0a2.85,2.85,0,0,1-2,.81h0A2.85,2.85,0,0,1,1700,3049.93Z"/><path d="M1710.06,3039.92a2.83,2.83,0,0,1-.06-4h0a2.82,2.82,0,0,1,4-.06h0a2.83,2.83,0,0,1,.07,4h0a2.83,2.83,0,0,1-2,.87h0A2.84,2.84,0,0,1,1710.06,3039.92Z"/><path d="M1719.85,3029.68a2.82,2.82,0,0,1-.15-4h0a2.82,2.82,0,0,1,4-.15h0a2.82,2.82,0,0,1,.15,4h0a2.77,2.77,0,0,1-2.07.91h0A2.81,2.81,0,0,1,1719.85,3029.68Z"/><path d="M1729.42,3019.24a2.82,2.82,0,0,1-.24-4h0a2.82,2.82,0,0,1,4-.24h0a2.83,2.83,0,0,1,.24,4h0a2.83,2.83,0,0,1-2.12.95h0A2.81,2.81,0,0,1,1729.42,3019.24Z"/><path d="M1738.75,3008.58a2.82,2.82,0,0,1-.32-4h0a2.83,2.83,0,0,1,4-.33h0a2.84,2.84,0,0,1,.33,4h0a2.83,2.83,0,0,1-2.17,1h0A2.79,2.79,0,0,1,1738.75,3008.58Z"/><path d="M1747.85,2997.73a2.85,2.85,0,0,1-.41-4h0a2.83,2.83,0,0,1,4-.41h0a2.84,2.84,0,0,1,.41,4h0a2.82,2.82,0,0,1-2.2,1h0A2.82,2.82,0,0,1,1747.85,2997.73Z"/><path d="M1756.72,2986.68a2.83,2.83,0,0,1-.49-4h0a2.83,2.83,0,0,1,4-.5h0a2.84,2.84,0,0,1,.49,4h0a2.82,2.82,0,0,1-2.24,1.09h0A2.79,2.79,0,0,1,1756.72,2986.68Z"/><path d="M1765.36,2975.46a2.83,2.83,0,0,1-.58-4h0a2.83,2.83,0,0,1,4-.58h0a2.85,2.85,0,0,1,.58,4h0a2.86,2.86,0,0,1-2.28,1.14h0A2.88,2.88,0,0,1,1765.36,2975.46Z"/><path d="M1773.76,2964.05a2.84,2.84,0,0,1-.66-4h0a2.83,2.83,0,0,1,4-.66h0a2.84,2.84,0,0,1,.66,4h0a2.82,2.82,0,0,1-2.3,1.18h0A2.85,2.85,0,0,1,1773.76,2964.05Z"/><path d="M1781.93,2952.47a2.82,2.82,0,0,1-.74-3.94h0a2.84,2.84,0,0,1,3.94-.74h0a2.83,2.83,0,0,1,.73,3.94h0a2.81,2.81,0,0,1-2.34,1.23h0A2.83,2.83,0,0,1,1781.93,2952.47Z"/><path d="M1789.86,2940.73a2.84,2.84,0,0,1-.82-3.93h0a2.84,2.84,0,0,1,3.93-.81h0a2.83,2.83,0,0,1,.81,3.92h0a2.83,2.83,0,0,1-2.37,1.28h0A2.86,2.86,0,0,1,1789.86,2940.73Z"/><path d="M1797.56,2928.83a2.83,2.83,0,0,1-.9-3.9h0a2.84,2.84,0,0,1,3.91-.9h0a2.84,2.84,0,0,1,.89,3.91h0a2.83,2.83,0,0,1-2.4,1.33h0A2.73,2.73,0,0,1,1797.56,2928.83Z"/><path d="M1805,2916.79a2.84,2.84,0,0,1-1-3.89h0a2.84,2.84,0,0,1,3.89-1h0a2.83,2.83,0,0,1,1,3.89h0a2.82,2.82,0,0,1-2.43,1.38h0A2.79,2.79,0,0,1,1805,2916.79Z"/><path d="M1812.26,2904.61a2.82,2.82,0,0,1-1-3.87h0a2.82,2.82,0,0,1,3.87-1h0a2.84,2.84,0,0,1,1,3.87h0a2.84,2.84,0,0,1-2.46,1.42h0A2.77,2.77,0,0,1,1812.26,2904.61Z"/><path d="M1819.26,2892.29a2.83,2.83,0,0,1-1.11-3.85h0a2.83,2.83,0,0,1,3.85-1.11h0a2.83,2.83,0,0,1,1.11,3.85h0a2.81,2.81,0,0,1-2.48,1.46h0A2.85,2.85,0,0,1,1819.26,2892.29Z"/><path d="M1826,2879.85a2.84,2.84,0,0,1-1.18-3.83h0a2.83,2.83,0,0,1,3.83-1.19h0a2.84,2.84,0,0,1,1.18,3.84h0a2.84,2.84,0,0,1-2.51,1.51h0A2.9,2.9,0,0,1,1826,2879.85Z"/><path d="M463.73,876.2a2.83,2.83,0,0,0,.7,5.57,2.88,2.88,0,0,0,.71-.09,2.83,2.83,0,1,0-1.41-5.48Z"/><path d="M445,1423.89a2.84,2.84,0,0,0-1.74,5.4,2.93,2.93,0,0,0,.87.14,2.84,2.84,0,0,0,.87-5.54Z"/><path d="M450,879.89a2.83,2.83,0,0,0,.76,5.56,2.91,2.91,0,0,0,.77-.1,2.84,2.84,0,0,0-1.53-5.46Z"/><path d="M463.94,93.08a2.83,2.83,0,1,0-.9-5.52h0a2.84,2.84,0,0,0,.9,5.53Z"/><path d="M458.51,1428.09a2.84,2.84,0,0,0-1.64,5.43,3,3,0,0,0,.83.12,2.83,2.83,0,0,0,.81-5.55Z"/><path d="M450.52,97.63a3,3,0,0,0,.92-.15,2.85,2.85,0,1,0-.92.15Z"/><path d="M436.33,883.88a2.84,2.84,0,0,0,.83,5.55,2.91,2.91,0,0,0,.82-.12,2.84,2.84,0,0,0-1.65-5.43Z"/><path d="M422.77,888.2a2.83,2.83,0,1,0,3.58,1.8A2.84,2.84,0,0,0,422.77,888.2Z"/><path d="M418.39,1414.65h0a2.84,2.84,0,0,0-2,5.32h0a2.84,2.84,0,0,0,2-5.32Z"/><path d="M422.82,101.53a2.83,2.83,0,0,0,1,5.5,2.89,2.89,0,0,0,1-.16,2.84,2.84,0,0,0-1.92-5.34Z"/><path d="M437.13,102.28a2.84,2.84,0,1,0-2.67-1.89A2.81,2.81,0,0,0,437.13,102.28Z"/><path d="M431.66,1419.42a2.84,2.84,0,0,0-1.85,5.36,3,3,0,0,0,.93.15,2.83,2.83,0,0,0,.92-5.51Z"/><path d="M477.53,872.78a2.83,2.83,0,0,0,.65,5.59,2.48,2.48,0,0,0,.66-.08,2.83,2.83,0,0,0-1.31-5.51Z"/><path d="M505.24,79.91A2.84,2.84,0,1,0,501.69,78a2.87,2.87,0,0,0,2.71,2A3.06,3.06,0,0,0,505.24,79.91Z"/><path d="M505.31,866.7a2.83,2.83,0,0,0,.55,5.61,3.43,3.43,0,0,0,.56,0h0a2.84,2.84,0,1,0-1.12-5.56Z"/><path d="M518.77,75.77a2.83,2.83,0,1,0-1.63-5.42h0A2.84,2.84,0,0,0,518,75.9,2.65,2.65,0,0,0,518.77,75.77Z"/><path d="M513.12,1442.47a2.84,2.84,0,0,0-1.27,5.53,2.7,2.7,0,0,0,.63.07,2.84,2.84,0,0,0,.64-5.6Z"/><path d="M519.26,864a2.84,2.84,0,0,0,.52,5.63,3.15,3.15,0,0,0,.52,0,2.84,2.84,0,0,0-1-5.58Z"/><path d="M526.91,1445.54a2.83,2.83,0,1,0-1.19,5.54,3.05,3.05,0,0,0,.6.06,2.83,2.83,0,0,0,.59-5.6Z"/><path d="M409.49,106.38a2.83,2.83,0,1,0,2,5.32h0a2.83,2.83,0,1,0-1.95-5.32Z"/><path d="M472.06,1432a2.83,2.83,0,1,0-1.53,5.45,2.56,2.56,0,0,0,.77.11,2.83,2.83,0,0,0,.76-5.56Z"/><path d="M485.69,1435.74a2.83,2.83,0,1,0-1.44,5.48h0a2.67,2.67,0,0,0,.73.1,2.84,2.84,0,0,0,.72-5.58Z"/><path d="M477.39,88.63a3,3,0,0,0,.88-.14,2.84,2.84,0,1,0-.88.14Z"/><path d="M499.37,1439.21a2.84,2.84,0,1,0-1.35,5.51,3.23,3.23,0,0,0,.68.08,2.84,2.84,0,0,0,.67-5.59Z"/><path d="M491.4,869.62a2.83,2.83,0,0,0,.6,5.6,3.23,3.23,0,0,0,.61-.06,2.84,2.84,0,0,0-1.21-5.54Z"/><path d="M491.74,84.15a2.84,2.84,0,1,0-.86.13A2.9,2.9,0,0,0,491.74,84.15Z"/><path d="M307.34,1355a2.84,2.84,0,1,0-3.51,4.46,2.84,2.84,0,0,0,3.51-4.46Z"/><path d="M318.56,1363.42a2.84,2.84,0,0,0-3.29,4.62,2.79,2.79,0,0,0,1.64.53,2.84,2.84,0,0,0,1.65-5.15Z"/><path d="M332.3,929.77a2.83,2.83,0,0,0,1.51,5.23,2.79,2.79,0,0,0,1.51-.44,2.83,2.83,0,1,0-3-4.79Z"/><path d="M532.33,71.75a2.85,2.85,0,1,0-.8.11A2.71,2.71,0,0,0,532.33,71.75Z"/><path d="M320.4,937.68a2.83,2.83,0,0,0,1.63,5.15,2.8,2.8,0,0,0,1.62-.51,2.83,2.83,0,1,0-3.25-4.64Z"/><path d="M305.2,153.93a2.91,2.91,0,0,0,1.12-.23,2.84,2.84,0,1,0-1.12.23Z"/><path d="M330.16,1371.32a2.84,2.84,0,0,0-3.1,4.76h0a2.8,2.8,0,0,0,1.54.46,2.84,2.84,0,0,0,1.55-5.22Z"/><path d="M308.9,946.16a2.83,2.83,0,1,0,4,.49A2.82,2.82,0,0,0,308.9,946.16Z"/><path d="M409.32,892.87h0a2.83,2.83,0,0,0,1,5.5,2.76,2.76,0,0,0,1-.17,2.83,2.83,0,0,0-1.93-5.33Z"/><path d="M282.21,1336.7a2.83,2.83,0,0,0,.07,4,2.79,2.79,0,0,0,2,.8,2.84,2.84,0,1,0-2-4.81Z"/><path d="M272.44,1326.48a2.83,2.83,0,1,0,4,.16A2.83,2.83,0,0,0,272.44,1326.48Z"/><path d="M292.54,1346.38a2.83,2.83,0,1,0,4-.28A2.83,2.83,0,0,0,292.54,1346.38Z"/><path d="M291.32,965a2.84,2.84,0,1,0-2,4.81,2.79,2.79,0,0,0,2-.8A2.84,2.84,0,0,0,291.32,965Z"/><path d="M297.85,955.23a2.84,2.84,0,0,0,1.86,5,2.79,2.79,0,0,0,1.85-.7,2.83,2.83,0,1,0-3.71-4.28Z"/><path d="M281.35,975a2.84,2.84,0,1,0,.18,4A2.85,2.85,0,0,0,281.35,975Z"/><path d="M392.24,1404.17a2.84,2.84,0,1,0,1.48,3.72A2.84,2.84,0,0,0,392.24,1404.17Z"/><path d="M382.82,903.36a2.83,2.83,0,1,0,3.73,1.47A2.83,2.83,0,0,0,382.82,903.36Z"/><path d="M342.08,1378.75a2.83,2.83,0,1,0-2.9,4.87,2.8,2.8,0,0,0,1.44.4,2.84,2.84,0,0,0,1.46-5.27Z"/><path d="M396.19,111.33a2.84,2.84,0,0,0,1,5.49,2.94,2.94,0,0,0,1-.18,2.84,2.84,0,1,0-2-5.31Z"/><path d="M383.94,121.85a2.74,2.74,0,0,0,1-.19,2.83,2.83,0,1,0-1,.19Z"/><path d="M405.25,1409.58a2.83,2.83,0,1,0-2.11,5.26,2.76,2.76,0,0,0,1.05.2,2.83,2.83,0,0,0,1.06-5.46Z"/><path d="M396,897.91a2.83,2.83,0,0,0,1,5.47,2.79,2.79,0,0,0,1.05-.2,2.83,2.83,0,0,0-2.09-5.27Z"/><path d="M379.39,1398.4a2.84,2.84,0,0,0-2.39,5.15h0a2.79,2.79,0,0,0,1.19.27,2.84,2.84,0,0,0,1.2-5.41Z"/><path d="M354.28,1385.72a2.83,2.83,0,1,0-2.72,5,2.78,2.78,0,0,0,1.36.35,2.83,2.83,0,0,0,1.36-5.32Z"/><path d="M357.06,915.57a2.83,2.83,0,0,0,1.31,5.35,2.78,2.78,0,0,0,1.3-.32,2.83,2.83,0,0,0-2.61-5Z"/><path d="M366.73,1392.26a2.83,2.83,0,1,0-2.55,5.06h0a2.89,2.89,0,0,0,1.27.3,2.84,2.84,0,0,0,1.28-5.37Z"/><path d="M369.83,909.23a2.84,2.84,0,1,0,3.78,1.35A2.85,2.85,0,0,0,369.83,909.23Z"/><path d="M638.46,1464a2.84,2.84,0,0,0-.69,5.63l.35,0a2.84,2.84,0,0,0,.34-5.65Z"/><path d="M702.62,843.77a2.83,2.83,0,0,0,.14,5.66h.16a2.83,2.83,0,1,0-.3-5.66Z"/><path d="M694.73,1469.92a2.83,2.83,0,0,0-.51,5.64h.26a2.83,2.83,0,0,0,.25-5.65Z"/><path d="M708.83,1471.13a2.83,2.83,0,0,0-.47,5.65h.24a2.83,2.83,0,0,0,.23-5.66Z"/><path d="M696.34,26.77h0a2.83,2.83,0,0,0,.51,5.62,2.21,2.21,0,0,0,.51,0,2.83,2.83,0,1,0-1-5.57Z"/><path d="M716.79,843a2.84,2.84,0,0,0,.13,5.67h.14a2.83,2.83,0,0,0-.27-5.66Z"/><path d="M710.32,24.25h0a2.83,2.83,0,0,0,.48,5.62,2.89,2.89,0,0,0,.5,0,2.84,2.84,0,0,0-1-5.59Z"/><path d="M660.13,846.52a2.83,2.83,0,0,0,.21,5.66h.22a2.83,2.83,0,0,0-.43-5.65Z"/><path d="M671.81,34.38a2.83,2.83,0,1,0-2.78,3.4,2.76,2.76,0,0,0,.57-.06A2.83,2.83,0,0,0,671.81,34.38Z"/><path d="M674.29,845.5a2.83,2.83,0,0,0,.18,5.66h.2a2.84,2.84,0,0,0-.38-5.66Z"/><path d="M722.94,1472.25a2.84,2.84,0,0,0-.43,5.66h.21a2.83,2.83,0,0,0,.22-5.66Z"/><path d="M666.57,1467.16a2.84,2.84,0,1,0-.59,5.64h0l.3,0a2.84,2.84,0,0,0,.3-5.66Z"/><path d="M680.65,1468.59a2.84,2.84,0,0,0-.56,5.65h.29a2.84,2.84,0,0,0,.27-5.66Z"/><path d="M682.4,29.41a2.83,2.83,0,0,0,.54,5.61,2.53,2.53,0,0,0,.54-.05,2.83,2.83,0,0,0-1.08-5.56Z"/><path d="M688.45,844.59a2.83,2.83,0,0,0,.17,5.66h.18a2.83,2.83,0,1,0-.35-5.65Z"/><path d="M765.3,1475.05a2.83,2.83,0,0,0-.32,5.66h.17a2.83,2.83,0,0,0,.15-5.66Z"/><path d="M752.36,17.47a2.84,2.84,0,0,0,.41,5.64l.42,0a2.84,2.84,0,0,0-.83-5.61Z"/><path d="M766.41,15.46a2.83,2.83,0,0,0,.39,5.64l.39,0a2.83,2.83,0,1,0-.78-5.61Z"/><path d="M724.31,21.87a2.83,2.83,0,0,0,.46,5.63,2.56,2.56,0,0,0,.47,0,2.83,2.83,0,1,0-.93-5.59Z"/><path d="M773.5,841a2.84,2.84,0,0,0,.07,5.67h.08a2.84,2.84,0,0,0-.15-5.67Z"/><path d="M779.44,1475.8a2.84,2.84,0,0,0-.29,5.67h.15a2.84,2.84,0,0,0,.14-5.67Z"/><path d="M759.32,841.36a2.84,2.84,0,0,0,.09,5.67h.09a2.84,2.84,0,0,0-.18-5.67Z"/><path d="M731,842.4a2.84,2.84,0,0,0,.12,5.67h.12a2.83,2.83,0,1,0-.24-5.66Z"/><path d="M737.05,1473.27a2.84,2.84,0,0,0-.39,5.66h.2a2.84,2.84,0,0,0,.19-5.67Z"/><path d="M738.32,19.6a2.84,2.84,0,0,0,.44,5.64,3.25,3.25,0,0,0,.44,0,2.84,2.84,0,0,0-.88-5.61Z"/><path d="M751.17,1474.2a2.84,2.84,0,0,0-.35,5.66H751a2.84,2.84,0,0,0,.17-5.67Z"/><path d="M745.14,841.84a2.84,2.84,0,0,0,.1,5.67h.11a2.84,2.84,0,0,0-.21-5.67Z"/><path d="M554.62,1451.1a2.83,2.83,0,1,0-1,5.57,3.23,3.23,0,0,0,.53,0,2.83,2.83,0,0,0,.52-5.61Z"/><path d="M582.47,1456a2.84,2.84,0,1,0-.92,5.6,3.73,3.73,0,0,0,.46,0,2.84,2.84,0,0,0,.46-5.64Z"/><path d="M596.43,1458.18a2.83,2.83,0,1,0-.85,5.6,3.11,3.11,0,0,0,.43,0,2.83,2.83,0,0,0,.42-5.63Z"/><path d="M575.22,56.87a2.83,2.83,0,1,0-2.74,3.56,2.67,2.67,0,0,0,.73-.1A2.83,2.83,0,0,0,575.22,56.87Z"/><path d="M589.48,853.39a2.83,2.83,0,0,0,.34,5.64,1.94,1.94,0,0,0,.34,0,2.83,2.83,0,1,0-.68-5.62Z"/><path d="M588.93,53.3a2.83,2.83,0,1,0-2.74,3.54,2.84,2.84,0,0,0,2.74-3.54Z"/><path d="M568.53,1453.61a2.84,2.84,0,1,0,2.3,3.28A2.84,2.84,0,0,0,568.53,1453.61Z"/><path d="M575.39,855.17a2.83,2.83,0,0,0,.37,5.64,2.48,2.48,0,0,0,.38,0,2.83,2.83,0,1,0-.75-5.62Z"/><path d="M547.28,859.22a2.84,2.84,0,0,0,.43,5.64l.45,0a2.84,2.84,0,0,0-.88-5.61Z"/><path d="M561.32,857.11a2.83,2.83,0,1,0,3.21,2.4A2.83,2.83,0,0,0,561.32,857.11Z"/><path d="M540.74,1448.41a2.83,2.83,0,1,0-1.11,5.55,2.74,2.74,0,0,0,.56.06,2.83,2.83,0,0,0,.55-5.61Z"/><path d="M657.93,37.24a2.83,2.83,0,1,0-2.77,3.42,3,3,0,0,0,.59-.06A2.83,2.83,0,0,0,657.93,37.24Z"/><path d="M561.53,60.55a2.83,2.83,0,1,0-2.73,3.58,2.76,2.76,0,0,0,.75-.1A2.83,2.83,0,0,0,561.53,60.55Z"/><path d="M533.25,861.52a2.84,2.84,0,0,0,.48,5.63,2.61,2.61,0,0,0,.48,0,2.83,2.83,0,0,0-1-5.58Z"/><path d="M545.92,67.83h0a2.84,2.84,0,1,0-.78.11A2.52,2.52,0,0,0,545.92,67.83Z"/><path d="M602.68,49.85a2.83,2.83,0,1,0-2.76,3.52,3.25,3.25,0,0,0,.69-.08A2.84,2.84,0,0,0,602.68,49.85Z"/><path d="M644.08,40.21a2.84,2.84,0,1,0-2.77,3.45,2.54,2.54,0,0,0,.61-.07A2.84,2.84,0,0,0,644.08,40.21Z"/><path d="M631.84,848.89a2.84,2.84,0,0,0,.26,5.66l.26,0a2.83,2.83,0,0,0-.52-5.64Z"/><path d="M272,985.63a2.84,2.84,0,1,0,.42,4A2.84,2.84,0,0,0,272,985.63Z"/><path d="M646,847.65a2.83,2.83,0,0,0,.23,5.65h.24a2.83,2.83,0,1,0-.47-5.64Z"/><path d="M652.51,1465.62a2.83,2.83,0,1,0-.64,5.63l.32,0a2.83,2.83,0,0,0,.32-5.65Z"/><path d="M630.25,43.31a2.83,2.83,0,1,0-2.77,3.47,2.8,2.8,0,0,0,.64-.08h0A2.83,2.83,0,0,0,630.25,43.31Z"/><path d="M624.43,1462.16a2.83,2.83,0,0,0-.74,5.62,2.43,2.43,0,0,0,.38,0,2.84,2.84,0,0,0,.36-5.65Z"/><path d="M603.59,851.75a2.83,2.83,0,0,0,.31,5.65h.31a2.84,2.84,0,0,0-.62-5.64Z"/><path d="M610.42,1460.24a2.83,2.83,0,1,0,2.41,3.2A2.84,2.84,0,0,0,610.42,1460.24Z"/><path d="M617.71,850.25a2.84,2.84,0,0,0,.28,5.66h.29a2.84,2.84,0,0,0-.57-5.65Z"/><path d="M616.45,46.52a2.83,2.83,0,1,0-2.76,3.5,3,3,0,0,0,.66-.08A2.84,2.84,0,0,0,616.45,46.52Z"/><path d="M1379.13,796.59a2.63,2.63,0,0,0,.82-.12,2.85,2.85,0,1,0-.82.12Z"/><path d="M1431.6,772.5a2.83,2.83,0,0,0,1.06,5.46,3.06,3.06,0,0,0,1.06-.2h0a2.83,2.83,0,1,0-2.11-5.26Z"/><path d="M1428.55,106.94a2.83,2.83,0,1,0-1-3.87A2.83,2.83,0,0,0,1428.55,106.94Z"/><path d="M1416.25,100.05a2.83,2.83,0,1,0-1.14-3.84A2.83,2.83,0,0,0,1416.25,100.05Z"/><path d="M1429.89,1287.38a2.87,2.87,0,0,0,.95-.16,2.84,2.84,0,1,0-.95.16Z"/><path d="M1456.11,765.08a2.83,2.83,0,0,0,2.57,1.64,2.78,2.78,0,0,0,1.19-.26,2.84,2.84,0,1,0-3.76-1.38Z"/><path d="M1418.45,777.58a2.83,2.83,0,0,0,1,5.49,2.66,2.66,0,0,0,1-.18,2.83,2.83,0,0,0-2-5.31Z"/><path d="M1443.14,770.8a2.84,2.84,0,1,0,1.48-3.72A2.83,2.83,0,0,0,1443.14,770.8Z"/><path d="M1521.44,174.19a2.84,2.84,0,1,0-1.93-.76A2.81,2.81,0,0,0,1521.44,174.19Z"/><path d="M1522.2,1294.15a2.84,2.84,0,1,0,4-.53A2.85,2.85,0,0,0,1522.2,1294.15Z"/><path d="M1471.73,1275.25a2.84,2.84,0,1,0-.07,5.67h0a2.84,2.84,0,0,0,0-5.67Z"/><path d="M1510,1286.9a2.84,2.84,0,1,0,3.83-1.17A2.83,2.83,0,0,0,1510,1286.9Z"/><path d="M1510.91,164.7a2.84,2.84,0,1,0-1.86-.7A2.84,2.84,0,0,0,1510.91,164.7Z"/><path d="M1468.9,759a2.84,2.84,0,0,0,2.54,1.56,2.89,2.89,0,0,0,1.27-.3,2.84,2.84,0,1,0-3.81-1.26Z"/><path d="M1381.32,1329.09a2.84,2.84,0,0,0-1.91,5.34,2.94,2.94,0,0,0,1,.17,2.84,2.84,0,0,0,1-5.51Z"/><path d="M1375.4,1362.37h.06a2.81,2.81,0,1,0-.06,0Z"/><path d="M1375.91,1370.83a2.83,2.83,0,0,0,.4,5.64,2.73,2.73,0,0,0,.41,0,2.83,2.83,0,0,0-.81-5.61Z"/><path d="M1376.3,1348.24a2.59,2.59,0,0,0,.48,0,2.83,2.83,0,1,0-.48,0Z"/><path d="M780.48,13.57a2.84,2.84,0,0,0,.36,5.65l.37,0a2.84,2.84,0,1,0-.73-5.63Z"/><path d="M1326.06,59.68a2.76,2.76,0,0,0,1,.17,2.83,2.83,0,1,0-1-.17Z"/><path d="M1258.57,38.47a2.69,2.69,0,0,0,.74.1,2.84,2.84,0,1,0-.74-.1Z"/><path d="M1384.93,1321.4a2.84,2.84,0,1,0-1-3.89A2.85,2.85,0,0,0,1384.93,1321.4Z"/><path d="M1531.64,184a2.8,2.8,0,0,0,2-.83,2.85,2.85,0,1,0-2,.83Z"/><path d="M1391.15,87.15a2.75,2.75,0,0,0,1.24.29,2.84,2.84,0,1,0-1.24-.29Z"/><path d="M1391.79,786.84a2.83,2.83,0,0,0,.87,5.53,2.91,2.91,0,0,0,.87-.13,2.84,2.84,0,0,0-1.74-5.4Z"/><path d="M1403.77,93.46a2.89,2.89,0,0,0,1.3.31,2.83,2.83,0,1,0-1.3-.31Z"/><path d="M1378.39,81.13a2.92,2.92,0,0,0,1.18.26,2.84,2.84,0,0,0,1.19-5.42h0a2.84,2.84,0,0,0-2.36,5.16Z"/><path d="M1542.25,1314a2.83,2.83,0,0,0,1.6,5.17,2.9,2.9,0,0,0,1.61-.49,2.84,2.84,0,0,0-3.21-4.68Z"/><path d="M1636.85,558.88a2.84,2.84,0,0,0,2.09,3.42,3.07,3.07,0,0,0,.67.08,2.83,2.83,0,1,0-2.76-3.5Z"/><path d="M1636.25,377.56a2.85,2.85,0,0,0,2.77,2.24,2.46,2.46,0,0,0,.6-.07,2.83,2.83,0,1,0-3.37-2.17Z"/><path d="M1643.67,402a2.82,2.82,0,0,0-2.38,3.22h0a2.84,2.84,0,0,0,2.81,2.42l.42,0a2.84,2.84,0,0,0-.84-5.61Z"/><path d="M1641.28,388.06a2.83,2.83,0,0,0,.5,5.62,2.21,2.21,0,0,0,.51-.05,2.83,2.83,0,1,0-1-5.57Z"/><path d="M1629.37,350.3a2.84,2.84,0,0,0,2.72,2.05,2.71,2.71,0,0,0,.79-.12,2.83,2.83,0,1,0-3.51-1.93Z"/><path d="M1633.05,363.87a2.83,2.83,0,0,0,2.75,2.14,3.25,3.25,0,0,0,.69-.08,2.84,2.84,0,1,0-3.44-2.06Z"/><path d="M1645.53,447.23a2.82,2.82,0,0,0,2.82,2.67h.17a2.83,2.83,0,1,0-3-2.67Z"/><path d="M1648.87,458.39a2.84,2.84,0,0,0,.07,5.67h.08a2.84,2.84,0,0,0-.15-5.67Z"/><path d="M1649,486.71a2.84,2.84,0,0,0-.2,5.67h.1a2.84,2.84,0,0,0,.1-5.67Z"/><path d="M1645.61,416a2.84,2.84,0,0,0,.33,5.65l.33,0a2.83,2.83,0,1,0-.66-5.63Z"/><path d="M1541.5,194.16a2.84,2.84,0,1,0-2.06-.9A2.79,2.79,0,0,0,1541.5,194.16Z"/><path d="M1625.22,336.87a2.82,2.82,0,0,0,2.69,1.95,2.7,2.7,0,0,0,.88-.14,2.83,2.83,0,1,0-3.57-1.81Z"/><path d="M1644.54,433.18a2.83,2.83,0,0,0,2.82,2.6h.24a2.84,2.84,0,1,0-.48-5.65A2.82,2.82,0,0,0,1644.54,433.18Z"/><path d="M1649.14,472.56a2.84,2.84,0,0,0-2.84,2.83h0a2.84,2.84,0,1,0,2.84-2.84Z"/><path d="M1551.77,700.73a2.83,2.83,0,0,0,1.89,4.94,2.78,2.78,0,0,0,1.89-.72,2.83,2.83,0,1,0-3.78-4.22Z"/><path d="M1620.59,323.61h0a2.84,2.84,0,1,0,1.68-3.65A2.85,2.85,0,0,0,1620.58,323.61Z"/><path d="M1558.58,1358.63h.25a2.84,2.84,0,1,0-.25,0Z"/><path d="M1551,204.61a2.83,2.83,0,1,0-2.13-1A2.81,2.81,0,0,0,1551,204.61Z"/><path d="M1541.11,709.85a2.84,2.84,0,0,0,1.8,5,2.78,2.78,0,0,0,1.79-.65,2.83,2.83,0,1,0-3.59-4.38Z"/><path d="M1217.39,28.49a2.46,2.46,0,0,0,.6.07,2.86,2.86,0,1,0-.6-.07Z"/><path d="M1558.68,1341.11a2.83,2.83,0,1,0-2.73,3.61,2.63,2.63,0,0,0,.78-.11A2.83,2.83,0,0,0,1558.68,1341.11Z"/><path d="M1612.46,299.28a3,3,0,0,0,1.18-.25,2.86,2.86,0,1,0-1.18.25Z"/><path d="M1599.76,274a2.84,2.84,0,1,0-2.48-1.47A2.82,2.82,0,0,0,1599.76,274Z"/><path d="M1568.92,226.54a2.84,2.84,0,1,0-2.26-1.12A2.85,2.85,0,0,0,1568.92,226.54Z"/><path d="M1592.72,261.7a2.84,2.84,0,1,0-2.44-1.38A2.83,2.83,0,0,0,1592.72,261.7Z"/><path d="M1560.15,215.42a2.84,2.84,0,1,0-2.19-1A2.83,2.83,0,0,0,1560.15,215.42Z"/><path d="M1.4,303.89a2.84,2.84,0,1,0,3.88,1A2.83,2.83,0,0,0,1.4,303.89Z"/><path d="M217,1204.82a2.83,2.83,0,1,0-.34,0Z"/><path d="M201,195.89a2.83,2.83,0,0,0,1.25,5.38,2.78,2.78,0,0,0,1.24-.29,2.83,2.83,0,0,0-2.49-5.09Z"/><path d="M175.53,208.48a2.84,2.84,0,0,0,1.27,5.37,2.93,2.93,0,0,0,1.28-.3,2.84,2.84,0,0,0-2.55-5.07Z"/><path d="M215.49,1190.74a2.78,2.78,0,1,0-.19,0Z"/><path d="M214.7,1176.61h.06a2.48,2.48,0,1,0-.06,0Z"/><path d="M162.87,214.89a2.83,2.83,0,1,0,3.81,1.24A2.84,2.84,0,0,0,162.87,214.89Z"/><path d="M370.73,127a2.69,2.69,0,0,0,1-.2,2.82,2.82,0,1,0-1,.2Z"/><path d="M112.58,241.16a2.84,2.84,0,1,0,3.84,1.16A2.84,2.84,0,0,0,112.58,241.16Z"/><path d="M100.09,247.89a2.84,2.84,0,1,0,3.84,1.14A2.84,2.84,0,0,0,100.09,247.89Z"/><path d="M150.25,221.36a2.83,2.83,0,0,0,1.3,5.35,2.89,2.89,0,0,0,1.3-.31h0a2.83,2.83,0,1,0-2.59-5Z"/><path d="M87.64,254.69a2.83,2.83,0,1,0,3.84,1.12A2.81,2.81,0,0,0,87.64,254.69Z"/><path d="M125.1,234.49a2.84,2.84,0,1,0,3.83,1.18A2.85,2.85,0,0,0,125.1,234.49Z"/><path d="M137.66,227.89a2.83,2.83,0,0,0,1.31,5.35,2.83,2.83,0,1,0-1.31-5.35Z"/><path d="M228,1242.72a2.83,2.83,0,1,0-2.71,3.67,2.71,2.71,0,0,0,.83-.13A2.83,2.83,0,0,0,228,1242.72Z"/><path d="M247.1,1292.51a2.83,2.83,0,1,0,3.9.9A2.83,2.83,0,0,0,247.1,1292.51Z"/><path d="M240.17,1280.18a2.83,2.83,0,0,0,1.34,5.33,3,3,0,0,0,1.34-.33,2.84,2.84,0,1,0-2.68-5Z"/><path d="M249.25,1024.45a2.84,2.84,0,1,0-3.84,1.16,2.78,2.78,0,0,0,1.34.34A2.82,2.82,0,0,0,249.25,1024.45Z"/><path d="M256.24,1012.37a2.84,2.84,0,1,0-3.9.91,2.8,2.8,0,0,0,1.49.43A2.86,2.86,0,0,0,256.24,1012.37Z"/><path d="M264,1000.74a2.85,2.85,0,1,0-2.32,1.19A2.86,2.86,0,0,0,264,1000.74Z"/><path d="M254.82,1304.36a2.82,2.82,0,0,0-.64,4h0a2.85,2.85,0,0,0,2.31,1.18,2.83,2.83,0,1,0-1.66-5.13Z"/><path d="M240.43,1038.6A2.84,2.84,0,0,0,243,1037h0a2.83,2.83,0,1,0-3.76,1.39A3,3,0,0,0,240.43,1038.6Z"/><path d="M224.31,1229.2a2.83,2.83,0,1,0-2.76,3.5,3,3,0,0,0,.66-.08A2.83,2.83,0,0,0,224.31,1229.2Z"/><path d="M75.21,261.54h0a2.83,2.83,0,0,0,1.37,5.31,2.76,2.76,0,0,0,1.38-.36,2.83,2.83,0,1,0-2.76-4.95Z"/><path d="M221.48,1215.51a2.84,2.84,0,1,0-2.8,3.33,2.81,2.81,0,0,0,.5,0A2.85,2.85,0,0,0,221.48,1215.51Z"/><path d="M234.07,1267.42a2.84,2.84,0,0,0,1.17,5.42,2.89,2.89,0,0,0,1.18-.26,2.83,2.83,0,0,0-2.35-5.16Z"/><path d="M232.48,1255.94a2.84,2.84,0,1,0-2.66,3.83,3,3,0,0,0,1-.18A2.84,2.84,0,0,0,232.48,1255.94Z"/><path d="M188.23,202.15a2.84,2.84,0,0,0,1.26,5.38,2.85,2.85,0,0,0,2.54-4.09A2.84,2.84,0,0,0,188.23,202.15Z"/><path d="M266.31,171.1a2.87,2.87,0,0,0,1.17-.25,2.84,2.84,0,1,0-1.17.25Z"/><path d="M240.56,182.94a2.83,2.83,0,1,0-2.57-1.63A2.82,2.82,0,0,0,240.56,182.94Z"/><path d="M253.42,177a2.74,2.74,0,0,0,1.18-.26,2.83,2.83,0,1,0-1.18.26Z"/><path d="M225.24,1078.35a2.74,2.74,0,0,0,.74.1,2.84,2.84,0,1,0-.74-.1Z"/><path d="M227.38,1061.18a2.82,2.82,0,0,0,1.8,3.58,2.73,2.73,0,0,0,.89.15,2.84,2.84,0,1,0-2.69-3.73Z"/><path d="M227.74,189a2.88,2.88,0,0,0,1.21-.27,2.84,2.84,0,1,0-1.21.27Z"/><path d="M233.84,1051.41a2.88,2.88,0,0,0,1,.19,2.82,2.82,0,1,0-1-.19Z"/><path d="M344.41,137.5a2.87,2.87,0,0,0,1.07-.21,2.84,2.84,0,1,0-1.07.21Z"/><path d="M357.55,132.19a2.76,2.76,0,0,0,1.05-.2,2.84,2.84,0,1,0-1.05.2Z"/><path d="M331.3,142.89a2.76,2.76,0,0,0,1.09-.22,2.82,2.82,0,1,0-1.09.22Z"/><path d="M279.24,165.3a2.77,2.77,0,0,0,1.15-.25,2.81,2.81,0,1,0-1.15.25Z"/><path d="M318.24,148.37a2.89,2.89,0,0,0,1.1-.23,2.82,2.82,0,1,0-1.1.23Z"/><path d="M292.2,159.57a2.88,2.88,0,0,0,1.14-.24,2.84,2.84,0,1,0-1.14.24Z"/><path d="M13.62,296.69A2.84,2.84,0,0,0,15.05,302a2.75,2.75,0,0,0,1.43-.39,2.83,2.83,0,1,0-2.86-4.89Z"/><path d="M25.87,289.54a2.84,2.84,0,1,0,3.88,1A2.85,2.85,0,0,0,25.87,289.54Z"/><path d="M62.83,268.45a2.84,2.84,0,0,0,1.39,5.31,2.91,2.91,0,0,0,1.39-.36,2.84,2.84,0,0,0-2.78-4.95Z"/><path d="M263.29,1315.69a2.84,2.84,0,1,0,4,.4A2.84,2.84,0,0,0,263.29,1315.69Z"/><path d="M38.16,282.46a2.83,2.83,0,0,0,1.41,5.29,2.77,2.77,0,0,0,1.41-.38,2.83,2.83,0,1,0-2.82-4.91Z"/><path d="M214.68,1162.43h0a2.83,2.83,0,1,0-2.83-2.88A2.84,2.84,0,0,0,214.73,1162.43Z"/><path d="M50.48,275.43a2.83,2.83,0,1,0,3.86,1.06A2.83,2.83,0,0,0,50.48,275.43Z"/><path d="M219.05,1131.57a2.83,2.83,0,1,0-3.07,2.57h.25A2.84,2.84,0,0,0,219.05,1131.57Z"/><path d="M219.39,1106a2.63,2.63,0,0,0,.49,0,2.83,2.83,0,1,0-.49,0Z"/><path d="M222,1092.12a2.6,2.6,0,0,0,.61.07,2.85,2.85,0,1,0-.61-.07Z"/><path d="M215,195.09a2.8,2.8,0,0,0,1.23-.28,2.83,2.83,0,1,0-1.23.28Z"/><path d="M212.41,1145.29h0a2.83,2.83,0,0,0,2.69,3h.14a2.84,2.84,0,1,0-2.82-3Z"/><path d="M220.58,1117.6a2.84,2.84,0,1,0-3.18,2.45,2.31,2.31,0,0,0,.37,0A2.85,2.85,0,0,0,220.58,1117.6Z"/><path d="M344.53,922.41a2.83,2.83,0,0,0,1.41,5.29,2.89,2.89,0,0,0,1.41-.37,2.84,2.84,0,1,0-2.82-4.92Z"/><path d="M1512.37,1436.74a2.82,2.82,0,1,0-1.21.28A2.78,2.78,0,0,0,1512.37,1436.74Z"/><path d="M1460.87,1460.19a2.84,2.84,0,1,0-2.31,5.18,2.81,2.81,0,0,0,1.15.25,2.84,2.84,0,0,0,1.16-5.43Z"/><path d="M1457.54,1281.51l.27,0h0a2.74,2.74,0,1,0-.26,0Z"/><path d="M1456.54,120.78a2.83,2.83,0,1,0-3.91.84h0a2.82,2.82,0,0,0,3.92-.84Z"/><path d="M1472,1451.11a2.87,2.87,0,1,0-.75.09A3.2,3.2,0,0,0,1472,1451.11Z"/><path d="M1467.61,124.79a2.83,2.83,0,1,0-3.21,4.67,2.8,2.8,0,0,0,1.6.5,2.83,2.83,0,0,0,1.61-5.17Z"/><path d="M1443.54,1283.6a2.93,2.93,0,0,0,.58-.06,2.84,2.84,0,1,0-.58.06Z"/><path d="M1429.34,1454.72a2.83,2.83,0,0,0,.49,5.62,2.21,2.21,0,0,0,.51,0,2.83,2.83,0,1,0-1-5.57Z"/><path d="M1424.39,1439.64a2.84,2.84,0,1,0,.65,4A2.82,2.82,0,0,0,1424.39,1439.64Z"/><path d="M1436,1447.31a2.83,2.83,0,1,0,1,3.89A2.83,2.83,0,0,0,1436,1447.31Z"/><path d="M1448.24,1454.13a7.56,7.56,0,0,1-5.07-2.07,7.51,7.51,0,0,0,2.46,7.11h0a2.75,2.75,0,0,0,1.3.32,2.84,2.84,0,0,0,1.3-5.36Z"/><path d="M1473.83,1465.56a2.83,2.83,0,1,0,1.63,3.66A2.83,2.83,0,0,0,1473.83,1465.56Z"/><path d="M1444.58,113.18a2.83,2.83,0,1,0-3.9.95h0a2.84,2.84,0,0,0,3.89-.95Z"/><path d="M1485.35,753.67a2.83,2.83,0,1,0-1.34.34A2.81,2.81,0,0,0,1485.35,753.67Z"/><path d="M1500.48,1474.43a2.83,2.83,0,1,0-1.56,5.45,2.63,2.63,0,0,0,.78.11,2.84,2.84,0,0,0,.78-5.56Z"/><path d="M1499.19,1442.37a2.83,2.83,0,1,0-2-5.29h0a2.84,2.84,0,0,0,1,5.48A2.79,2.79,0,0,0,1499.19,1442.37Z"/><path d="M1496.85,1281.76a2.84,2.84,0,1,0,3.58-1.79A2.83,2.83,0,0,0,1496.85,1281.76Z"/><path d="M1497.9,150.89a2.83,2.83,0,1,0,4-.39A2.84,2.84,0,0,0,1497.9,150.89Z"/><path d="M1510,739.24a2.84,2.84,0,1,0-1.52.44A2.83,2.83,0,0,0,1510,739.24Z"/><path d="M1479.29,133a2.84,2.84,0,1,0,.62,4A2.85,2.85,0,0,0,1479.29,133Z"/><path d="M1497.78,746.67a2.84,2.84,0,1,0-1.43.39A2.84,2.84,0,0,0,1497.78,746.67Z"/><path d="M1483,1278.84a2.84,2.84,0,0,0,2.34,3.25l.46,0a2.83,2.83,0,1,0-2.8-3.28Z"/><path d="M1490.72,141.6a2.83,2.83,0,1,0-3.46,4.49,2.78,2.78,0,0,0,1.72.59,2.84,2.84,0,0,0,1.74-5.08Z"/><path d="M1415.59,1287.71a2.84,2.84,0,0,0,1.34,5.34,2.91,2.91,0,0,0,1.33-.33,2.84,2.84,0,1,0-2.67-5Z"/><path d="M1485.7,1447.08a2.84,2.84,0,1,0-1.73-5.4h0a2.84,2.84,0,0,0,.85,5.54A2.64,2.64,0,0,0,1485.7,1447.08Z"/><path d="M1487.05,1470.28a2.84,2.84,0,1,0,1.79,3.59A2.83,2.83,0,0,0,1487.05,1470.28Z"/><path d="M1458.2,1454.58a2.8,2.8,0,1,0-.64.08A2.8,2.8,0,0,0,1458.2,1454.58Z"/><path d="M1337.41,802.12a2.84,2.84,0,0,0,.67,5.59,2.56,2.56,0,0,0,.67-.08,2.84,2.84,0,1,0-1.34-5.51Z"/><path d="M1341.37,59.37a2.83,2.83,0,1,0-2,5.29,2.78,2.78,0,0,0,1,.19,2.84,2.84,0,0,0,1-5.48Z"/><path d="M1351.11,798.67a2.84,2.84,0,0,0,.72,5.58,3,3,0,0,0,.72-.09,2.84,2.84,0,0,0-1.44-5.49Z"/><path d="M1345.37,1465.81a2.84,2.84,0,0,0,.27,5.66l.27,0a2.83,2.83,0,0,0-.54-5.64Z"/><path d="M1359.43,1464.39a2.83,2.83,0,0,0,.3,5.65,1.51,1.51,0,0,0,.3,0,2.83,2.83,0,1,0-.6-5.63Z"/><path d="M1354.64,64.65a2.83,2.83,0,1,0-2.15,5.24,2.7,2.7,0,0,0,1.07.22,2.84,2.84,0,0,0,1.08-5.46Z"/><path d="M1331.29,1467.11a2.84,2.84,0,0,0,.25,5.66h.25a2.84,2.84,0,0,0-.5-5.65Z"/><path d="M1309.84,808.37a2.83,2.83,0,0,0,.58,5.6,3,3,0,0,0,.59-.06,2.83,2.83,0,1,0-1.17-5.54Z"/><path d="M1316.31,53.19a2.83,2.83,0,1,0-3.6,1.77,3,3,0,0,0,.92.15A2.83,2.83,0,0,0,1316.31,53.19Z"/><path d="M1303.09,1469.38a2.83,2.83,0,0,0,.21,5.66h.21a2.83,2.83,0,1,0-.42-5.65Z"/><path d="M1323.65,805.35a2.83,2.83,0,0,0,.62,5.6,2.7,2.7,0,0,0,.63-.07,2.83,2.83,0,0,0-1.25-5.53Z"/><path d="M1317.2,1468.29a2.83,2.83,0,0,0,.22,5.66h.23a2.83,2.83,0,1,0-.45-5.65Z"/><path d="M1415.44,1457.08a2.83,2.83,0,0,0,.44,5.63l.45,0a2.84,2.84,0,0,0-.89-5.6Z"/><path d="M1364.75,795a2.84,2.84,0,0,0,.76,5.57,2.92,2.92,0,0,0,.77-.11,2.84,2.84,0,0,0-1.53-5.46Z"/><path d="M1401.48,1459.2a2.83,2.83,0,1,0,3.21,2.4A2.83,2.83,0,0,0,1401.48,1459.2Z"/><path d="M1403.29,1295.63a2.84,2.84,0,1,0,4,.51A2.84,2.84,0,0,0,1403.29,1295.63Z"/><path d="M1401.41,1426.21a2.83,2.83,0,1,0-2.08-.9A2.82,2.82,0,0,0,1401.41,1426.21Z"/><path d="M1392.57,1305.65a2.83,2.83,0,1,0,4-.24A2.82,2.82,0,0,0,1392.57,1305.65Z"/><path d="M1408.78,784.11a2.83,2.83,0,1,0-2.68,3.76,3,3,0,0,0,.93-.15A2.84,2.84,0,0,0,1408.78,784.11Z"/><path d="M1413.47,1431.05a2.83,2.83,0,1,0-3.71,4.28,2.77,2.77,0,0,0,1.85.69,2.83,2.83,0,0,0,1.86-5Z"/><path d="M1387.52,1399.11a2.84,2.84,0,1,0-1.21,3.82A2.83,2.83,0,0,0,1387.52,1399.11Z"/><path d="M1382.23,1386.51a2.84,2.84,0,1,0-2.69,3.71,2.64,2.64,0,0,0,.87-.14A2.82,2.82,0,0,0,1382.23,1386.51Z"/><path d="M1373.48,1462.83a2.83,2.83,0,0,0,.32,5.65l.33,0a2.83,2.83,0,1,0-.65-5.63Z"/><path d="M1387.5,1461.1a2.84,2.84,0,0,0,.36,5.65l.36,0a2.83,2.83,0,0,0-.72-5.62Z"/><path d="M1390.76,1410.15a2.84,2.84,0,0,0,1.66,5.14,2.76,2.76,0,0,0,1.65-.54,2.83,2.83,0,1,0-3.31-4.6Z"/><path d="M1367.75,70.18h0a2.83,2.83,0,0,0-2.26,5.2,3,3,0,0,0,1.13.23,2.83,2.83,0,0,0,1.12-5.43Z"/><path d="M1583.55,1489.21a2.84,2.84,0,0,0-.48,5.65h.24a2.84,2.84,0,0,0,.24-5.66Z"/><path d="M1645.47,529a2.83,2.83,0,1,0-.85,5.6,2.09,2.09,0,0,0,.43,0,2.84,2.84,0,0,0,.42-5.64Z"/><path d="M1616.06,623a2.83,2.83,0,0,0-2.65,5,2.75,2.75,0,0,0,1.32.33,2.83,2.83,0,0,0,1.33-5.34Z"/><path d="M1647.19,515a2.83,2.83,0,1,0-.62,5.63l.31,0a2.83,2.83,0,0,0,.31-5.65Z"/><path d="M1640,1491.29a2.84,2.84,0,1,0-.06,5.67h0a2.84,2.84,0,0,0,0-5.67Z"/><path d="M1654.19,1491.57a2.83,2.83,0,0,0-.16,5.66h.08a2.84,2.84,0,0,0,.08-5.67Z"/><path d="M1648.35,500.85a2.83,2.83,0,1,0-.4,5.65h.2a2.83,2.83,0,0,0,.2-5.66Z"/><path d="M1627.73,597.29a2.83,2.83,0,1,0,1.57,3.69A2.83,2.83,0,0,0,1627.73,597.29Z"/><path d="M1638.67,574a2.83,2.83,0,1,0-3.52,1.93,3.21,3.21,0,0,0,.8.11A2.84,2.84,0,0,0,1638.67,574Z"/><path d="M1620.71,308.36a2.83,2.83,0,1,0-2.62,3.91,2.92,2.92,0,0,0,1.08-.21A2.83,2.83,0,0,0,1620.71,308.36Z"/><path d="M1625.81,1491.22a2.83,2.83,0,1,0-.06,5.66h0a2.83,2.83,0,0,0,0-5.66Z"/><path d="M1623.61,614.08a2.85,2.85,0,1,0-2.58,1.64A2.83,2.83,0,0,0,1623.61,614.08Z"/><path d="M1668.41,1492.13a2.84,2.84,0,0,0-.29,5.67h.15a2.84,2.84,0,0,0,.14-5.67Z"/><path d="M1514.07,1478a2.84,2.84,0,0,0-1.35,5.51,3.16,3.16,0,0,0,.68.08,2.84,2.84,0,0,0,.67-5.59Z"/><path d="M1643.18,543a2.83,2.83,0,1,0-1.09,5.56,2.47,2.47,0,0,0,.54,0,2.83,2.83,0,0,0,.55-5.61Z"/><path d="M1807.47,1520.12a2.84,2.84,0,1,0,1.52,3.71A2.83,2.83,0,0,0,1807.47,1520.12Z"/><path d="M1682.61,1493a2.83,2.83,0,1,0-.42,5.65h.21a2.83,2.83,0,0,0,.21-5.66Z"/><path d="M1780.62,1510.38a2.84,2.84,0,1,0-1.68,5.42,3.06,3.06,0,0,0,.84.13,2.84,2.84,0,0,0,.84-5.55Z"/><path d="M1766.91,1506.44a2.84,2.84,0,0,0-1.46,5.48,3,3,0,0,0,.73.09,2.83,2.83,0,0,0,.73-5.57Z"/><path d="M1832.55,1532.35a2.83,2.83,0,0,0-2.11,5.2,2.73,2.73,0,0,0,1.37.36,2.64,2.64,0,0,0,.74-.1Z"/><path d="M1820.51,1526a2.83,2.83,0,1,0-2.47,5.1,2.8,2.8,0,0,0,1.23.28,2.83,2.83,0,0,0,1.24-5.38Z"/><path d="M1794.16,1514.93a2.83,2.83,0,1,0-1.93,5.33,2.94,2.94,0,0,0,1,.17,2.83,2.83,0,0,0,1-5.5Z"/><path d="M1710.94,1495.8a2.83,2.83,0,1,0-.71,5.62l.36,0a2.83,2.83,0,0,0,.35-5.64Z"/><path d="M1696.79,1494.22a2.83,2.83,0,1,0-.56,5.64l.28,0a2.84,2.84,0,0,0,.28-5.66Z"/><path d="M1753.05,1503.05a2.83,2.83,0,1,0-1.24,5.53,2.68,2.68,0,0,0,.62.07,2.83,2.83,0,0,0,.62-5.6Z"/><path d="M1725,1497.77a2.83,2.83,0,1,0-.87,5.6l.44,0a2.83,2.83,0,0,0,.43-5.63Z"/><path d="M1739.09,1500.17a2.84,2.84,0,0,0-1,5.58,3.15,3.15,0,0,0,.52,0,2.84,2.84,0,0,0,.53-5.63Z"/><path d="M1632.57,584a2.83,2.83,0,1,0-1.86,5.35,2.76,2.76,0,0,0,.93.16,2.83,2.83,0,0,0,.93-5.51Z"/><path d="M1552.14,1331.21a2.85,2.85,0,1,0-1.21.27A2.76,2.76,0,0,0,1552.14,1331.21Z"/><path d="M1554.76,1398.49h0a2.84,2.84,0,0,0-5.15-2.4h0a2.83,2.83,0,1,0,5.13,2.4Z"/><path d="M1558.77,1367.12a2.84,2.84,0,0,0-.36,5.66h.18a2.84,2.84,0,0,0,.18-5.67Z"/><path d="M1555.55,1486a2.83,2.83,0,1,0,2.4,3.21A2.83,2.83,0,0,0,1555.55,1486Z"/><path d="M1541.63,1483.8a2.83,2.83,0,1,0-1,5.58,2.72,2.72,0,0,0,.49,0,2.84,2.84,0,0,0,.48-5.63Z"/><path d="M1557.29,1381.18a2.83,2.83,0,1,0-1.23,5.53,2.62,2.62,0,0,0,.62.07,2.83,2.83,0,0,0,.61-5.6Z"/><path d="M1546.57,1407a2.83,2.83,0,1,0-1.76,5A2.79,2.79,0,0,0,1547,1411,2.82,2.82,0,0,0,1546.57,1407Z"/><path d="M1526,1426a2.83,2.83,0,1,0-.93,3.9A2.84,2.84,0,0,0,1526,1426Z"/><path d="M1533.17,1417.12a2.83,2.83,0,1,0,4,.34A2.83,2.83,0,0,0,1533.17,1417.12Z"/><path d="M1527.8,1481.15a2.83,2.83,0,0,0-1.16,5.55,2.93,2.93,0,0,0,.58.06,2.83,2.83,0,0,0,.58-5.61Z"/><path d="M1522.59,727.43a2.83,2.83,0,1,0-2.33,4.44,2.8,2.8,0,0,0,1.6-.5A2.83,2.83,0,0,0,1522.59,727.43Z"/><path d="M1535,1308.19a2.87,2.87,0,0,0,2-.77,2.84,2.84,0,1,0-2,.77Z"/><path d="M1534,719.07a2.83,2.83,0,0,0-4-.57h0a2.84,2.84,0,1,0,4,.57Z"/><path d="M1610.21,639.32a2.83,2.83,0,1,0-3.89,1,2.88,2.88,0,0,0,1.46.41A2.85,2.85,0,0,0,1610.21,639.32Z"/><path d="M1597.62,1490.23a2.84,2.84,0,1,0-.34,5.66h.17a2.84,2.84,0,0,0,.17-5.67Z"/><path d="M1583.67,244.48a2.83,2.83,0,1,0,3.92.83A2.84,2.84,0,0,0,1583.67,244.48Z"/><path d="M1593.67,659.06a2.84,2.84,0,1,0,.56,4A2.83,2.83,0,0,0,1593.67,659.06Z"/><path d="M1601.77,647.44a2.83,2.83,0,1,0-3.17,4.7,2.82,2.82,0,0,0,3.93-.76A2.83,2.83,0,0,0,1601.77,647.44Z"/><path d="M1611.71,1490.9a2.83,2.83,0,1,0-.2,5.66h.1a2.84,2.84,0,0,0,.1-5.67Z"/><path d="M1607.62,286.21a2.85,2.85,0,1,0-1.27.3A2.78,2.78,0,0,0,1607.62,286.21Z"/><path d="M1575.65,232.81a2.84,2.84,0,0,0,1.63,5.16,2.79,2.79,0,0,0,1.63-.52,2.84,2.84,0,0,0-3.26-4.64Z"/><path d="M1569.53,1487.81a2.83,2.83,0,0,0-.65,5.63h0l.32,0a2.83,2.83,0,0,0,.32-5.65Z"/><path d="M1571.76,681.08a2.84,2.84,0,1,0,4-.16A2.83,2.83,0,0,0,1571.76,681.08Z"/><path d="M1583.19,675.21a2.83,2.83,0,1,0-1.82-.66A2.81,2.81,0,0,0,1583.19,675.21Z"/><path d="M1566,691.17a2.83,2.83,0,0,0-4,4,2.8,2.8,0,0,0,2,.85,2.83,2.83,0,0,0,2-4.82Z"/><path d="M1302.84,48.65a2.83,2.83,0,1,0-3.56,1.83,2.93,2.93,0,0,0,.87.14A2.82,2.82,0,0,0,1302.84,48.65Z"/><path d="M1134.64,8.51a2.83,2.83,0,0,0-.73,5.62,2.36,2.36,0,0,0,.37,0,2.83,2.83,0,0,0,.36-5.64Z"/><path d="M963.46,1479.29a2.84,2.84,0,1,0,2.84,2.82A2.84,2.84,0,0,0,963.46,1479.29Z"/><path d="M957.81,839.32a2.84,2.84,0,0,0,0,5.67h0a2.84,2.84,0,0,0-.08-5.67Z"/><path d="M950.25.65a2.84,2.84,0,0,0,.07,5.67h.08a2.84,2.84,0,0,0-.15-5.67Z"/><path d="M972,839.11a2.84,2.84,0,1,0,2.88,2.79A2.83,2.83,0,0,0,972,839.11Z"/><path d="M964.44.34a2.84,2.84,0,0,0,0,5.67h.06a2.84,2.84,0,1,0-.11-5.67Z"/><path d="M915.29,839.72a2.84,2.84,0,0,0,0,5.67h0a2.84,2.84,0,0,0,0-5.67Z"/><path d="M943.64,839.49a2.84,2.84,0,0,0,0,5.67h0a2.84,2.84,0,0,0-.06-5.67Z"/><path d="M921.88,1.62A2.83,2.83,0,0,0,922,7.28h.12a2.83,2.83,0,0,0-.24-5.66Z"/><path d="M921,1479.33a2.84,2.84,0,1,0,2.83,2.84A2.84,2.84,0,0,0,921,1479.33Z"/><path d="M929.47,839.62a2.84,2.84,0,0,0,0,5.67h0a2.84,2.84,0,0,0,0-5.67Z"/><path d="M977.63,1479.24a2.83,2.83,0,1,0,0,5.66h0a2.83,2.83,0,0,0,0-5.66Z"/><path d="M935.13,1479.34h0a2.84,2.84,0,1,0,2.84,2.83A2.84,2.84,0,0,0,935.12,1479.34Z"/><path d="M936.07,1.08a2.84,2.84,0,0,0,.09,5.67h.1a2.84,2.84,0,1,0-.19-5.67Z"/><path d="M1035.46.54a2.83,2.83,0,1,0-.18,5.66h.09a2.84,2.84,0,0,0,.09-5.67Z"/><path d="M1020.12,1479h0a2.83,2.83,0,0,0,0,5.66h0a2.84,2.84,0,0,0,0-5.67Z"/><path d="M1014.48,838.17a2.84,2.84,0,0,0,.08,5.67h.08a2.83,2.83,0,1,0-.16-5.66Z"/><path d="M1007,0a2.84,2.84,0,1,0,0,5.67h0A2.84,2.84,0,1,0,1007,0Z"/><path d="M1021.25.17a2.84,2.84,0,0,0-.11,5.67h.06a2.84,2.84,0,0,0,0-5.67Z"/><path d="M978.63.12a2.84,2.84,0,0,0,0,5.67h0a2.84,2.84,0,0,0-.07-5.67Z"/><path d="M1034.29,1478.81a2.84,2.84,0,0,0,0,5.68h0a2.84,2.84,0,0,0-.06-5.68Z"/><path d="M1028.65,837.74a2.83,2.83,0,0,0,.08,5.66h.1a2.83,2.83,0,0,0-.18-5.66Z"/><path d="M991.79,1479.16a2.84,2.84,0,0,0,0,5.67h0a2.84,2.84,0,0,0,0-5.67Z"/><path d="M986.15,838.85a2.84,2.84,0,0,0,.06,5.67h.06a2.84,2.84,0,0,0-.12-5.67Z"/><path d="M992.83,0h0a2.84,2.84,0,0,0,0,5.67h0a2.84,2.84,0,0,0,0-5.67Z"/><path d="M1006,1479.07a2.84,2.84,0,0,0,0,5.67h0a2.84,2.84,0,0,0,0-5.67Z"/><path d="M1000.32,838.54a2.83,2.83,0,0,0,.07,5.66h.06a2.83,2.83,0,1,0-.13-5.66Z"/><path d="M949.29,1479.32a2.84,2.84,0,1,0,2.84,2.83A2.84,2.84,0,0,0,949.29,1479.32Z"/><path d="M836,1478a2.84,2.84,0,0,0-.17,5.67h.08A2.84,2.84,0,0,0,836,1478Z"/><path d="M830.23,840a2.84,2.84,0,0,0,0,5.67h0a2.84,2.84,0,0,0,0-5.67Z"/><path d="M822.79,8.68a2.84,2.84,0,0,0,.28,5.66h.29a2.84,2.84,0,0,0-.57-5.65Z"/><path d="M821.87,1477.6a2.83,2.83,0,1,0-.2,5.66h.1a2.83,2.83,0,0,0,.1-5.66Z"/><path d="M907.71,2.27a2.83,2.83,0,0,0,.14,5.66H908a2.83,2.83,0,0,0-.28-5.66Z"/><path d="M844.41,839.89a2.84,2.84,0,0,0,0,5.67h0a2.84,2.84,0,1,0,0-5.67Z"/><path d="M808.67,10.19a2.83,2.83,0,0,0,.31,5.65l.31,0a2.83,2.83,0,1,0-.62-5.63Z"/><path d="M794.57,11.82a2.83,2.83,0,0,0,.33,5.65l.34,0a2.83,2.83,0,1,0-.67-5.63Z"/><path d="M801.86,840.34a2.84,2.84,0,0,0,0,5.67H802a2.84,2.84,0,0,0-.1-5.67Z"/><path d="M816.05,840.13a2.84,2.84,0,0,0,0,5.67h0a2.84,2.84,0,0,0-.07-5.67Z"/><path d="M793.58,1476.48a2.83,2.83,0,0,0-.26,5.66h.13a2.84,2.84,0,0,0,.13-5.67Z"/><path d="M807.72,1477.07a2.84,2.84,0,0,0-.23,5.67h.12a2.84,2.84,0,0,0,.11-5.67Z"/><path d="M850.17,1478.42a2.84,2.84,0,0,0-.14,5.67h.07a2.84,2.84,0,0,0,.07-5.67Z"/><path d="M836.91,7.31a2.83,2.83,0,0,0,.27,5.65h.26a2.83,2.83,0,1,0-.53-5.64Z"/><path d="M892.64,1479.16a2.83,2.83,0,1,0-.06,5.66h0a2.83,2.83,0,0,0,0-5.66Z"/><path d="M893.53,3a2.84,2.84,0,0,0,.16,5.67h.17A2.83,2.83,0,0,0,893.53,3Z"/><path d="M886.94,839.82a2.84,2.84,0,1,0,2.84,2.83A2.85,2.85,0,0,0,886.94,839.82Z"/><path d="M901.12,839.78a2.84,2.84,0,1,0,0,5.67h0a2.84,2.84,0,0,0,0-5.67Z"/><path d="M906.8,1479.27a2.84,2.84,0,0,0,0,5.67h0a2.84,2.84,0,0,0,0-5.67Z"/><path d="M879.37,3.92h0a2.83,2.83,0,0,0,.19,5.66h.19a2.84,2.84,0,0,0-.37-5.66Z"/><path d="M878.48,1479a2.83,2.83,0,1,0-.08,5.66h0a2.83,2.83,0,0,0,0-5.66Z"/><path d="M1296,811.18a2.84,2.84,0,0,0,.54,5.62,3.51,3.51,0,0,0,.55,0,2.84,2.84,0,0,0-1.09-5.57Z"/><path d="M858.6,839.85a2.84,2.84,0,1,0,2.83,2.83A2.82,2.82,0,0,0,858.6,839.85Z"/><path d="M851.06,6.06a2.83,2.83,0,0,0,.23,5.65h.24a2.83,2.83,0,1,0-.47-5.64Z"/><path d="M872.77,839.84a2.84,2.84,0,1,0,2.84,2.83A2.83,2.83,0,0,0,872.77,839.84Z"/><path d="M865.21,4.93h0a2.83,2.83,0,0,0,.22,5.66h.21a2.83,2.83,0,1,0-.42-5.65Z"/><path d="M864.32,1478.73a2.84,2.84,0,1,0-.11,5.67h0a2.84,2.84,0,0,0,.06-5.67Z"/><path d="M1198.12,826.08a2.83,2.83,0,0,0,.31,5.65h.33a2.84,2.84,0,0,0-.64-5.64Z"/><path d="M1204.18,1474.83a2.83,2.83,0,0,0,.11,5.66h.11a2.83,2.83,0,1,0-.22-5.66Z"/><path d="M1203.58,25.59a2.74,2.74,0,0,0,.56.06,2.86,2.86,0,1,0-.56-.06Z"/><path d="M1212.17,824.41a2.84,2.84,0,0,0,.34,5.65l.36,0a2.83,2.83,0,1,0-.7-5.62Z"/><path d="M1231.81,31.67a2.82,2.82,0,1,0-.65-.07A2.88,2.88,0,0,0,1231.81,31.67Z"/><path d="M1218.32,1474.24a2.83,2.83,0,0,0,.13,5.66h.12a2.83,2.83,0,1,0-.25-5.66Z"/><path d="M1226.2,822.59a2.84,2.84,0,0,0,.37,5.65l.39,0a2.82,2.82,0,0,0,2.43-3.18A2.85,2.85,0,0,0,1226.2,822.59Z"/><path d="M1175.88,1475.86a2.84,2.84,0,0,0,.09,5.67h.1a2.84,2.84,0,1,0-.19-5.67Z"/><path d="M1176.82,14.83a2.84,2.84,0,0,0-1,5.59,2.77,2.77,0,0,0,.49,0,2.84,2.84,0,0,0,.47-5.63Z"/><path d="M1170,829.05a2.84,2.84,0,0,0,.27,5.66l.28,0a2.83,2.83,0,1,0-.55-5.64Z"/><path d="M1184.05,827.63a2.83,2.83,0,0,0,.29,5.65h.3a2.84,2.84,0,0,0-.59-5.64Z"/><path d="M1190.77,17.33a2.83,2.83,0,0,0-1,5.57,2.44,2.44,0,0,0,.53.05,2.83,2.83,0,0,0,.51-5.62Z"/><path d="M1190,1475.37a2.84,2.84,0,0,0,.11,5.67h.1a2.84,2.84,0,1,0-.21-5.67Z"/><path d="M1246.6,1472.89a2.83,2.83,0,0,0,.15,5.66h.14a2.83,2.83,0,1,0-.29-5.66Z"/><path d="M1268.16,816.25a2.84,2.84,0,0,0,.47,5.63,2.59,2.59,0,0,0,.48,0,2.84,2.84,0,1,0-.95-5.59Z"/><path d="M1274.86,1471.28a2.84,2.84,0,0,0,.17,5.67h.18a2.84,2.84,0,1,0-.35-5.66Z"/><path d="M1275.71,40.29a2.84,2.84,0,1,0-3.51,2,3.06,3.06,0,0,0,.78.11A2.84,2.84,0,0,0,1275.71,40.29Z"/><path d="M1282.09,813.81a2.83,2.83,0,0,0,.51,5.62,2.94,2.94,0,0,0,.51,0,2.83,2.83,0,1,0-1-5.57Z"/><path d="M1232.46,1473.59a2.84,2.84,0,0,0,.14,5.67h.14a2.83,2.83,0,0,0-.28-5.66Z"/><path d="M1289.31,44.35a2.84,2.84,0,1,0-3.54,1.89,2.66,2.66,0,0,0,.83.13A2.84,2.84,0,0,0,1289.31,44.35Z"/><polygon points="1042.8 837.24 1042.8 837.24 1042.81 837.24 1042.8 837.24"/><path d="M1245.58,35a2.85,2.85,0,1,0-.69-.09A2.72,2.72,0,0,0,1245.58,35Z"/><path d="M1260.73,1472.12a2.83,2.83,0,0,0,.16,5.66h.16a2.83,2.83,0,0,0-.32-5.66Z"/><path d="M1240.22,820.64a2.83,2.83,0,0,0,.4,5.64l.41,0a2.83,2.83,0,1,0-.81-5.61Z"/><path d="M1162.79,12.53a2.83,2.83,0,0,0-.88,5.6h0a2.28,2.28,0,0,0,.45,0,2.83,2.83,0,0,0,.43-5.63Z"/><path d="M1254.2,818.53h0a2.84,2.84,0,0,0,.44,5.64,2.25,2.25,0,0,0,.44,0,2.83,2.83,0,1,0-.88-5.59Z"/><path d="M1289,1470.37a2.83,2.83,0,0,0,.19,5.66h.19a2.84,2.84,0,0,0-.38-5.66Z"/><path d="M1078.06,2.8a2.84,2.84,0,1,0-.42,5.66h.21a2.84,2.84,0,0,0,.21-5.67Z"/><path d="M1071.16,836a2.84,2.84,0,0,0,.13,5.67h.14a2.84,2.84,0,0,0-.27-5.67Z"/><path d="M1085.33,835.31a2.84,2.84,0,0,0,.15,5.67h.16a2.83,2.83,0,0,0-.31-5.66Z"/><path d="M1076.78,1478.25a2.84,2.84,0,0,0,0,5.67h0a2.84,2.84,0,1,0-.09-5.67Z"/><path d="M1092.23,3.94a2.84,2.84,0,1,0-.49,5.65h.24a2.84,2.84,0,0,0,.25-5.66Z"/><path d="M1099.49,834.51a2.83,2.83,0,0,0,.16,5.66h.18a2.83,2.83,0,1,0-.34-5.65Z"/><path d="M1090.94,1478a2.84,2.84,0,0,0,0,5.67h0a2.84,2.84,0,0,0-.1-5.67Z"/><path d="M1049.67,1.1a2.83,2.83,0,0,0-.26,5.66h.14a2.84,2.84,0,0,0,.12-5.67Z"/><path d="M1048.45,1478.65a2.84,2.84,0,0,0,0,5.67h0a2.84,2.84,0,0,0-.07-5.67Z"/><path d="M1042.8,837.24a2.84,2.84,0,0,0,.11,5.67h.11a2.84,2.84,0,0,0-.22-5.67Z"/><path d="M1063.87,1.86a2.83,2.83,0,1,0-.34,5.65h.17a2.83,2.83,0,0,0,.17-5.66Z"/><path d="M1057,836.68a2.83,2.83,0,0,0,.12,5.66h.12a2.83,2.83,0,1,0-.24-5.66Z"/><path d="M1062.61,1478.47a2.84,2.84,0,0,0,0,5.67h0a2.84,2.84,0,1,0-.08-5.67Z"/><path d="M787.68,840.61a2.84,2.84,0,0,0,.06,5.67h.06a2.84,2.84,0,1,0-.12-5.67Z"/><path d="M1105.1,1477.74a2.84,2.84,0,0,0,.06,5.67h0a2.84,2.84,0,1,0-.11-5.67Z"/><path d="M1147.57,1476.73a2.83,2.83,0,0,0,.08,5.66h.08a2.83,2.83,0,1,0-.16-5.66Z"/><path d="M1161.73,1476.31a2.84,2.84,0,0,0,.08,5.67h.09a2.84,2.84,0,1,0-.17-5.67Z"/><path d="M1148.73,10.42a2.83,2.83,0,1,0-.8,5.61,2.69,2.69,0,0,0,.4,0,2.83,2.83,0,0,0,.4-5.64Z"/><path d="M1155.92,830.35a2.84,2.84,0,0,0,.24,5.66h.25a2.84,2.84,0,1,0-.49-5.65Z"/><path d="M1133.42,1477.1a2.84,2.84,0,0,0,.06,5.67h.08a2.84,2.84,0,0,0-.14-5.67Z"/><path d="M1141.84,831.54a2.83,2.83,0,0,0,.23,5.66h.23a2.83,2.83,0,0,0-.46-5.65Z"/><path d="M1113.63,833.61a2.83,2.83,0,0,0,.18,5.66h.19a2.84,2.84,0,0,0-.37-5.66Z"/><path d="M1127.75,832.62a2.84,2.84,0,0,0,.2,5.67h.21a2.84,2.84,0,0,0-.41-5.66Z"/><path d="M1106.39,5.27a2.83,2.83,0,1,0-.57,5.64l.29,0a2.84,2.84,0,0,0,.28-5.66Z"/><path d="M1119.26,1477.44a2.83,2.83,0,0,0,.06,5.66h.07a2.83,2.83,0,0,0-.13-5.66Z"/><path d="M1120.52,6.79a2.84,2.84,0,0,0-.64,5.64h.32a2.83,2.83,0,0,0,.32-5.65Z"/></g></g></svg>