<svg width="72" height="42" xmlns="http://www.w3.org/2000/svg">
    <g transform="translate(-1)" fill-rule="nonzero" fill="none">
        <path d="M65.77 41.19H3.58a2.85 2.85 0 0 1-2.48-3.66l3.75-10c.115-.49.115-1 0-1.49L1.08 3.65A2.86 2.86 0 0 1 3.57 0h62.19a2.63 2.63 0 0 1 2.48 2.18l4.12 23.9c.12.49.12 1 0 1.49L68.25 39a2.64 2.64 0 0 1-2.48 2.16v.03z" fill="#FFDB00"/>
        <path d="M58.8 17.19v3.14a1.88 1.88 0 0 1-1.89 1.88h-3.77a3 3 0 0 0-5.87 0H28.39a3 3 0 0 0-5.87 0h-3.86a2.1 2.1 0 0 1-2.08-2.1V8.74a2.11 2.11 0 0 1 2.11-2.1H55a2 2 0 0 1 2 1.6l1.8 8.95z" fill="#FFF"/>
        <path d="M60.22 17.08L58.35 8A3.47 3.47 0 0 0 55 5.23H18.68a3.44 3.44 0 0 0-3.43 3.43v11.56a3.44 3.44 0 0 0 3.43 3.43h3.82a3 3 0 0 0 5.91 0h18.84a3 3 0 0 0 5.91 0h3.64a3.44 3.44 0 0 0 3.44-3.43v-3a.89.89 0 0 0-.02-.14zM55 6.67a2 2 0 0 1 2 1.6l1.7 8.24h-2.76a.62.62 0 0 1-.6-.49l-2-9.35H55zm-29.5 17.9a1.59 1.59 0 0 1-1.5-.92v-.07-.07a.14.14 0 0 0 0-.06v-.06-.06a.43.43 0 0 1 0-.05V22.99a.2.2 0 0 0 0-.07v-.07-.33l.05-.09a1.59 1.59 0 0 1 2.78 0V22.84a.17.17 0 0 1 0 .07V23.2a.11.11 0 0 0 0 .05.13.13 0 0 1 0 .06v.06a.14.14 0 0 0 0 .06v.14a1.61 1.61 0 0 1-1.37 1h.04zm24.75 0a1.61 1.61 0 0 1-1.45-.92v-.14a.14.14 0 0 1 0-.06v-.06a.13.13 0 0 1 0-.06.11.11 0 0 0 0-.05v-.42a.17.17 0 0 1 0-.07.29.29 0 0 0 0-.09v-.09a.19.19 0 0 1 0-.07v-.08l.05-.09a1.6 1.6 0 0 1 1.4-.82 1.58 1.58 0 0 1 1.39.82V22.79a.17.17 0 0 1 0 .07v.33a.13.13 0 0 0 0 .06.11.11 0 0 0 0 .05.13.13 0 0 1 0 .06v.06a.14.14 0 0 0 0 .06.19.19 0 0 0 0 .07v.07a1.6 1.6 0 0 1-1.43.95h.04zm8.59-4.24a1.88 1.88 0 0 1-1.89 1.88h-3.81a3 3 0 0 0-5.87 0H28.39a3 3 0 0 0-5.87 0h-3.86a2.1 2.1 0 0 1-2.08-2.1V8.74a2.11 2.11 0 0 1 2.11-2.1h33.18l2.07 9.69a2.05 2.05 0 0 0 2 1.62h2.86l.04 2.38zM19.85 31.86a.94.94 0 0 0 .32-.41 1.65 1.65 0 0 0-.37-1.72 1.79 1.79 0 0 0-1.26-.44h-1.69a.06.06 0 0 0-.06.06v5.75c0 .033.027.06.06.06h1.86a2.37 2.37 0 0 0 1.55-.42 1.79 1.79 0 0 0 .5-1.41 1.63 1.63 0 0 0-.28-1 1.28 1.28 0 0 0-.63-.47zm-.85-.52a.49.49 0 0 1-.42.17h-.63v-1.23h.62a.53.53 0 0 1 .45.18.69.69 0 0 1 .13.43.68.68 0 0 1-.15.45zm-1.06 1.23h.82a1.08 1.08 0 0 1 .7.17.84.84 0 0 1 .18.61 1.69 1.69 0 0 1 0 .35.51.51 0 0 1-.37.38 2 2 0 0 1-.47.05h-.83l-.03-1.56zM23.93 33.35a.75.75 0 0 1-.85.84c-.53 0-.8-.27-.8-.84v-4a.06.06 0 0 0-.06-.06h-1a.06.06 0 0 0-.06.06v4c-.036.504.146 1 .5 1.36a2.06 2.06 0 0 0 1.43.46 2.19 2.19 0 0 0 1.47-.46 1.73 1.73 0 0 0 .52-1.36v-4a.06.06 0 0 0-.08-.05h-1a.07.07 0 0 0-.07.06v3.99zM29.16 32.25a1.12 1.12 0 0 0-.3-.27 1.18 1.18 0 0 0-.36-.17 2 2 0 0 0-.4-.09l-.84-.13-.2-.05-.16-.08a.32.32 0 0 1-.12-.11 1.26 1.26 0 0 1-.07-.16 1.52 1.52 0 0 1 0-.23.7.7 0 0 1 .16-.53 1 1 0 0 1 .58-.14 1 1 0 0 1 .55.12.57.57 0 0 1 .18.45.07.07 0 0 0 .07.06h1a.07.07 0 0 0 .07-.07 2.16 2.16 0 0 0-.19-.74 1.25 1.25 0 0 0-.4-.5 1.71 1.71 0 0 0-.56-.27 3.2 3.2 0 0 0-.73-.08 2 2 0 0 0-1.44.44 1.6 1.6 0 0 0-.45 1.3c0 .213.026.424.08.63.047.162.121.314.22.45a1 1 0 0 0 .32.3c.115.076.24.136.37.18.13.042.264.072.4.09l.72.1a.81.81 0 0 1 .21 0l.17.08c.052.03.1.066.14.11.034.05.064.104.09.16a.64.64 0 0 1 0 .2.73.73 0 0 1-.85.86 1 1 0 0 1-.63-.15.63.63 0 0 1-.19-.48.06.06 0 0 0-.06-.05h-1a.05.05 0 0 0-.06.06c0 1.11.65 1.67 1.94 1.67a2.17 2.17 0 0 0 1.58-.45 2 2 0 0 0 .47-1.48 2.15 2.15 0 0 0-.07-.6 1.43 1.43 0 0 0-.24-.43z" fill="#100C0B"/>
        <rect fill="#100C0B" x="30.14" y="32.1" width="3.19" height="1" rx=".06"/>
        <path d="M36.87 31.83a3.76 3.76 0 0 0 .26-.67v-.15c0-.1.06-.18.08-.24a1.26 1.26 0 0 1 .08-.18.48.48 0 0 1 .09-.13l.14-.08a.65.65 0 0 1 .2 0 1.6 1.6 0 0 1 .31 0 .06.06 0 0 0 .06-.06l.08-.93a.07.07 0 0 0 0-.07 2.53 2.53 0 0 0-.79 0 1.4 1.4 0 0 0-1 .69c-.14.268-.25.55-.33.84A.93.93 0 0 1 36 31v.12a.55.55 0 0 1-.05.12v.11c0 .06 0 .08-.06.08a.59.59 0 0 1-.08.08.19.19 0 0 1-.07.06h-.43v-2.23a.06.06 0 0 0-.06-.06h-1a.07.07 0 0 0-.07.06v5.76s0 .06.07.06h1a.06.06 0 0 0 .06-.06v-2.36h.31l1.5 2.4h1.32l-1.87-2.88a1.31 1.31 0 0 0 .3-.43zM40.75 30.64c0 .13-.11.36-.22.69-.11.33-.13.41-.17.57L40 30.64l-.4-1.32a.07.07 0 0 0-.06 0h-1.08l1.32 4.08-.14.49a.3.3 0 0 1-.26.24 2.53 2.53 0 0 1-.42-.06s-.06 0-.07.05l-.19.86a.07.07 0 0 0 0 .07 3.1 3.1 0 0 0 .68.15h.14c.146.003.292-.02.43-.07a1 1 0 0 0 .46-.31 1.88 1.88 0 0 0 .31-.6l1.58-4.91h-1.06a.07.07 0 0 0-.06 0l-.43 1.33zM45.94 29.71a2.43 2.43 0 0 0-1.57-.42H43a.07.07 0 0 0-.07.06v5.75s0 .06.07.06h1a.05.05 0 0 0 0-.06v-1.7h.34a2.36 2.36 0 0 0 1.58-.4 1.7 1.7 0 0 0 .52-1.36v-.53a1.7 1.7 0 0 0-.5-1.4zm-1.57 2.58H44v-1.94h.36c.2-.01.401.021.59.09a.54.54 0 0 1 .27.24c.054.14.078.29.07.44v.43a.74.74 0 0 1-.2.57 1.24 1.24 0 0 1-.72.17zM50.1 31.5a2.35 2.35 0 0 0-1.55-.44h-.35v-1.72a.06.06 0 0 0-.06-.06h-1a.06.06 0 0 0-.06.06v5.76a.06.06 0 0 0 .06.06h1.44a2.42 2.42 0 0 0 1.56-.42 1.69 1.69 0 0 0 .5-1.35v-.53a1.69 1.69 0 0 0-.54-1.36zm-1.53 2.63h-.37v-2h.35c.258-.027.518.04.73.19a.74.74 0 0 1 .21.59v.42a1.16 1.16 0 0 1 0 .35.56.56 0 0 1-.13.24.55.55 0 0 1-.27.15 1.65 1.65 0 0 1-.52.06zM52.38 32.71h1.89a.07.07 0 0 0 .07-.06v-.92a.07.07 0 0 0-.07-.06h-1.89V30.3h2.23a.07.07 0 0 0 .07-.06v-.89a.07.07 0 0 0-.07-.06h-3.3a.06.06 0 0 0-.06.06v5.76c0 .033.027.06.06.06h3.41a.06.06 0 0 0 .06-.06v-.93a.06.06 0 0 0-.06-.06h-2.34v-1.41zM58.52 29.71a2.4 2.4 0 0 0-1.52-.42h-1.47a.06.06 0 0 0-.06.06v5.75c0 .033.027.06.06.06h1a.06.06 0 0 0 .06-.06v-1.7H57a2.4 2.4 0 0 0 1.51-.4 1.73 1.73 0 0 0 .49-1.4v-.53a1.67 1.67 0 0 0-.48-1.36zM57 32.29h-.4v-1.94h.4c.197-.01.395.021.58.09a.47.47 0 0 1 .27.24c.054.14.078.29.07.44v.43a.74.74 0 0 1-.2.57 1.24 1.24 0 0 1-.72.17zM18.89 18h-8.16a.72.72 0 0 1-.73-.76.72.72 0 0 1 .72-.72h8.16a.72.72 0 0 1 .72.72.72.72 0 0 1-.71.76zM18.89 11.91h-8.16a.72.72 0 1 1-.01-1.44h8.16a.72.72 0 0 1 .01 1.44zM20.18 14.93H12a.72.72 0 0 1 0-1.44h8.16a.72.72 0 0 1 .02 1.44zM28.69 11.91v5.75h-1.44v-5.75z" fill="#100C0B"/>
        <path d="M29.62 13.84l-2.16-2.17a.72.72 0 0 1 0-1 .71.71 0 0 1 1 0l2.17 2.17a.72.72 0 0 1 0 1 .72.72 0 0 1-1.01 0z" fill="#100C0B"/>
        <path d="M26.31 13.84l2.16-2.17a.72.72 0 0 0 0-1 .71.71 0 0 0-1 0l-2.17 2.17a.72.72 0 0 0 0 1 .72.72 0 0 0 1.01 0zM30.12 18h-4.31a.72.72 0 0 1 0-1.44h4.31a.72.72 0 0 1 0 1.44zM37.28 14.63v3.03h-1.44v-3.03z" fill="#100C0B"/>
        <path d="M38.81 18h-4.32a.72.72 0 0 1 0-1.44h4.32a.72.72 0 0 1 0 1.44zM36.57 15.53a2.35 2.35 0 0 1-2.35-2.35v-2a.72.72 0 0 1 .72-.72h3.27a.71.71 0 0 1 .71.72v2a2.35 2.35 0 0 1-2.35 2.35zM35.65 12v1.17a.93.93 0 1 0 1.85 0V12a.13.13 0 0 0-.13-.12h-1.6a.13.13 0 0 0-.12.12zM46.47 18a1.85 1.85 0 0 1-1.85-1.85v-1.8a.71.71 0 1 1 1.42 0v1.75a.43.43 0 0 0 .85 0 .72.72 0 0 1 1.43 0 1.85 1.85 0 0 1-1.85 1.9z" fill="#100C0B"/>
        <path d="M45.33 10.44a3.84 3.84 0 0 0-3.84 3.84.41.41 0 0 0 .42.4h6.85a.41.41 0 0 0 .41-.4 3.84 3.84 0 0 0-3.84-3.84zm-1.89 2.83a.12.12 0 0 1-.11-.18 2.24 2.24 0 0 1 2-1.22 2.26 2.26 0 0 1 2 1.22.13.13 0 0 1-.11.18h-3.78z" fill="#100C0B"/>
    </g>
</svg>
