<svg xmlns="http://www.w3.org/2000/svg" viewBox="0 0 84.96 41.33">
    <defs>
        <style>
            .cls-2{fill:#fff}.cls-3{fill:#18120e}
        </style>
    </defs>
    <g id="Layer_2" data-name="Layer 2">
        <g id="&#x421;&#x43B;&#x43E;&#x439;_1" data-name="&#x421;&#x43B;&#x43E;&#x439; 1">
            <path d="M78.17 34.6H6.46a4.88 4.88 0 0 1-4.88-4.88V5.81A4.89 4.89 0 0 1 6.46.93h4.74l.8 8.59a5.15 5.15 0 0 0 5.1 4.68l56.16.23 1.58 6.41a4.35 4.35 0 0 0 3.53 3.26l5.1.24.23 5.41a5.54 5.54 0 0 1-5.53 4.85z" fill="#ffdb2e" fill-rule="evenodd"/>
            <circle class="cls-2" cx="21.33" cy="34.81" r="5.38"/>
            <path class="cls-3" d="M21.33 41.33a6.53 6.53 0 1 1 6.52-6.52 6.53 6.53 0 0 1-6.52 6.52zm0-10.76a4.24 4.24 0 1 0 4.24 4.24 4.24 4.24 0 0 0-4.24-4.24z"/>
            <circle class="cls-2" cx="66.49" cy="34.81" r="5.38"/>
            <path class="cls-3" d="M66.49 41.33A6.53 6.53 0 1 1 73 34.81a6.53 6.53 0 0 1-6.51 6.52zm0-10.76a4.24 4.24 0 1 0 4.23 4.24 4.24 4.24 0 0 0-4.23-4.24z"/>
            <path class="cls-3" d="M78.67 36.13h-3.31a1.14 1.14 0 1 1 0-2.28h3.31a4 4 0 0 0 4-4v-5L78.2 6.57c-.74-2.88-2.2-4.29-4.64-4.29H6.29a4 4 0 0 0-4 4v23.56a4 4 0 0 0 4 4h6.46a1.14 1.14 0 0 1 0 2.28H6.29A6.29 6.29 0 0 1 0 29.84V6.29A6.29 6.29 0 0 1 6.29 0h67.27c3.44 0 5.87 2.14 6.85 6l4.52 18.41a1.24 1.24 0 0 1 0 .27v5.15a6.29 6.29 0 0 1-6.26 6.3z"/>
            <path class="cls-3" d="M57.7 36.13H30.43a1.14 1.14 0 0 1 0-2.28H57.7a1.14 1.14 0 0 1 0 2.28zM73.05 15.86H18.1a8.38 8.38 0 0 1-8.37-8.37V1.14A1.14 1.14 0 0 1 10.87 0h59.25a1.15 1.15 0 0 1 1.12.9l2.93 13.58a1.18 1.18 0 0 1-.23 1 1.15 1.15 0 0 1-.89.38zM12 2.28v5.21a6.09 6.09 0 0 0 6.09 6.09h53.55L69.2 2.28z"/>
            <path class="cls-3" d="M83.64 25h-6.12a4.29 4.29 0 0 1-4.16-3.37L69 1.38a1.14 1.14 0 0 1 .22-1 1.18 1.18 0 0 1 .9-.38h3.65a6.58 6.58 0 0 1 6.4 5l4.58 18.62a1.16 1.16 0 0 1-.21 1 1.14 1.14 0 0 1-.9.38zM71.53 2.28l4.06 18.91a2 2 0 0 0 1.93 1.57h4.66L78 5.56a4.29 4.29 0 0 0-4.18-3.28z"/>
        </g>
    </g>
</svg>
