<svg xmlns="http://www.w3.org/2000/svg" viewBox="0 0 355.08 69.52">
    <g data-name="Layer 2">
        <g data-name="&#x421;&#x43B;&#x43E;&#x439; 1">
            <path d="M7.22 69.52L0 41l6.87-1.74a12.42 12.42 0 0 1 3.13-.42 4.94 4.94 0 0 1 2.4.68 5.18 5.18 0 0 1 1.91 2.12 17 17 0 0 1 1.41 3.88l.63 2.48a13.05 13.05 0 0 1 .47 5 4.78 4.78 0 0 1-1.58 3.05 9.14 9.14 0 0 1-3.68 1.69L6.65 59l2.54 10zm-1-12.27L11.11 56c2-.49 3.15-1.28 3.61-2.37s.39-2.8-.2-5.13l-.59-2.33c-.25-1-.49-1.77-.72-2.39a7.5 7.5 0 0 0-.87-1.67 2.91 2.91 0 0 0-1.19-1 4 4 0 0 0-1.62-.33 8 8 0 0 0-2.21.3l-4.91 1.21zM22.48 57.4l-1.39-5.83c-.69-2.91-.63-5.14.18-6.67s2.43-2.59 4.86-3.17 4.26-.35 5.55.69 2.29 3 3 5.91l.77 3.24-11.81 2.82.58 2.43c.55 2.31 1.32 3.87 2.3 4.71s2.46 1 4.46.53a8.83 8.83 0 0 0 2.41-.9 3.26 3.26 0 0 0 1.29-1.26 3.57 3.57 0 0 0 .4-1.5 7.33 7.33 0 0 0-.22-1.8l1.43-.34q1.43 6-4.9 7.5-3.64.87-5.76-.58t-3.15-5.78zm.75-4.71l10.11-2.42-.34-1.48a18.32 18.32 0 0 0-.87-2.79A6.58 6.58 0 0 0 31 44.13a3.16 3.16 0 0 0-1.83-1 6.55 6.55 0 0 0-2.62.16q-3 .72-3.75 2.49c-.5 1.18-.46 2.95.1 5.32zM41.83 60.91L37 39.43l1.87-.43 4 18 1-3.32 5.58-17.07L51 36.3l4.8 21.48-1.8.42-4-18-1.64 5.59-4.9 14.76zm-3.52-28.8l1.69-.38a2 2 0 0 0 1.17 1.61 4.14 4.14 0 0 0 2.3 0 4.13 4.13 0 0 0 2-.95 2 2 0 0 0 .35-2l1.73-.39q.77 3.84-3.73 4.85c-3.04.72-4.88-.2-5.51-2.74zM57.73 49.19l-1.21-5.79c-.62-2.95-.48-5.16.39-6.65s2.53-2.47 4.94-3 4.08-.32 5.29.48a7.19 7.19 0 0 1 2.64 4.4L68 39a7.62 7.62 0 0 0-.68-1.8 4.35 4.35 0 0 0-1-1.25 3.22 3.22 0 0 0-1.67-.65 7.47 7.47 0 0 0-2.38.16c-2 .41-3.19 1.18-3.74 2.31s-.58 2.87-.1 5.21l1.2 5.7a17.31 17.31 0 0 0 .82 2.9 5.45 5.45 0 0 0 1.18 1.84 3.18 3.18 0 0 0 1.79.91 7.36 7.36 0 0 0 2.58-.14 8.4 8.4 0 0 0 2.45-.85 3.13 3.13 0 0 0 1.3-1.34 4.06 4.06 0 0 0 .43-1.68 10 10 0 0 0-.2-2.16l1.79-.37a6.94 6.94 0 0 1-.64 5.43q-1.34 2-4.79 2.73c-2.39.5-4.26.23-5.63-.81s-2.36-3.02-2.98-5.95zM75 45.68l-1.17-6a13.13 13.13 0 0 1-.18-5 4.89 4.89 0 0 1 1.75-3 8.79 8.79 0 0 1 3.76-1.5A10.86 10.86 0 0 1 82.3 30a5 5 0 0 1 2.4.91 5.79 5.79 0 0 1 1.79 2.3 16.71 16.71 0 0 1 1.19 3.91L88.82 43q.87 4.45-.42 6.64c-.87 1.46-2.5 2.42-4.92 2.89a11.08 11.08 0 0 1-3.14.21 4.88 4.88 0 0 1-2.39-.9 5.65 5.65 0 0 1-1.78-2.27A16 16 0 0 1 75 45.68zm1.83-.52a19.79 19.79 0 0 0 .77 3A5.5 5.5 0 0 0 78.7 50a2.94 2.94 0 0 0 1.78.92 8.25 8.25 0 0 0 2.67-.16c2-.38 3.2-1.13 3.72-2.26s.54-2.88.07-5.27l-1.13-5.82a22.21 22.21 0 0 0-.6-2.48 8.86 8.86 0 0 0-.77-1.73 2.83 2.83 0 0 0-1.13-1.1 4.13 4.13 0 0 0-1.6-.4 8.85 8.85 0 0 0-2.23.19 7.56 7.56 0 0 0-2.43.83 3.21 3.21 0 0 0-1.32 1.46 5.24 5.24 0 0 0-.4 2.12 15.82 15.82 0 0 0 .36 3zM94.23 50.35l-4-22 6.34-1.14a6.89 6.89 0 0 1 4.76.54 5.19 5.19 0 0 1 2.33 3.8 7 7 0 0 1-.08 3 3.12 3.12 0 0 1-1.58 2.03 5.49 5.49 0 0 1 1.4.14 2.73 2.73 0 0 1 1.05.52 5.16 5.16 0 0 1 .73.76 3.73 3.73 0 0 1 .52 1c.14.42.26.8.34 1.14s.16.77.26 1.3a9.42 9.42 0 0 1 0 3.89 4.11 4.11 0 0 1-1.8 2.45 10.78 10.78 0 0 1-4.13 1.44zm-.39-12.93l4.29-.77a4.85 4.85 0 0 0 3.23-1.6 3.92 3.92 0 0 0 .5-3.06 3.92 3.92 0 0 0-1.53-2.8 4.9 4.9 0 0 0-3.4-.3l-4.48.8zm2 10.87l4.25-.76a11.78 11.78 0 0 0 2.31-.63 5.34 5.34 0 0 0 1.38-.81 2.13 2.13 0 0 0 .65-1.13 4.45 4.45 0 0 0 .13-1.33 15 15 0 0 0-.21-1.71 11.31 11.31 0 0 0-.46-2 3.39 3.39 0 0 0-.8-1.28 2.26 2.26 0 0 0-1.4-.64 8.13 8.13 0 0 0-2.21.14l-5.3 1zM111.13 47.17l-3.55-21.84 1.88-.31 1.42 8.78 4.8-.78q6.91-1.12 8 5.43c.37 2.27 0 4-1 5.25a7.67 7.67 0 0 1-4.89 2.39zm1.59-2l4.8-.78a5.44 5.44 0 0 0 3.63-1.78 4.85 4.85 0 0 0 .63-3.83 4.93 4.93 0 0 0-1.78-3.5 5.48 5.48 0 0 0-4-.54l-4.8.78zm15.88-.81l-3.54-21.84 1.87-.3L130.47 44zM134.62 43.41l-3.14-21.9 1.65-.24 5.41 8.73 3.23 5.66 1.46-6.15L146 19.42l1.62-.23 3.18 21.91-1.88.26-1.43-10-.88-7.73-4.12 15.27-.59.09-8.2-13.5 1.36 7.66 1.43 10zM154.88 40.4l-2.76-21.84 1.88-.24 2.32 18.32 1.24-3.21 7-16.44 1.56-.2 2.77 21.84-1.89.24-2.32-18.32-2.1 5.4-6 14.24zM181.3 31.63a6 6 0 0 1 .52-3.45 5 5 0 0 1 2.27-2.18 14.07 14.07 0 0 1 3.85-1.22 31.15 31.15 0 0 1 5.25-.45l-.34-3.33a6.45 6.45 0 0 0-1.53-4.15 4.69 4.69 0 0 0-3.86-.93 9.09 9.09 0 0 0-2.08.41 3.63 3.63 0 0 0-1.4.9 3.09 3.09 0 0 0-.79 1.64 9.32 9.32 0 0 0 0 2.57l-1.81.19q-.36-3.54 1-5.31t4.92-2.14a6.63 6.63 0 0 1 5.2 1.2c1.19 1 1.91 2.83 2.18 5.39l1.54 15-1.59.16-.34-2.93a6 6 0 0 1-2.38 2.71 9.66 9.66 0 0 1-3.82 1.08 6.68 6.68 0 0 1-4.67-1 5.58 5.58 0 0 1-2.12-4.16zm1.89-.16a3.77 3.77 0 0 0 1.54 3 6 6 0 0 0 3.84.59 6.47 6.47 0 0 0 2.16-.58 4.62 4.62 0 0 0 1.53-1.09 5.69 5.69 0 0 0 .93-1.4 5.76 5.76 0 0 0 .45-1.53 6.5 6.5 0 0 0 0-1.46l-.3-2.86c-3.71 0-6.39.42-8 1.25a3.8 3.8 0 0 0-2.15 4.08zM200.58 35.55l-2-22.3 6.41-.56a6.83 6.83 0 0 1 4.69 1 5.16 5.16 0 0 1 2 4 7 7 0 0 1-.36 3 3.11 3.11 0 0 1-1.81 1.91 5.45 5.45 0 0 1 1.38.27 2.61 2.61 0 0 1 1 .62 4.76 4.76 0 0 1 .65.82 3.49 3.49 0 0 1 .43 1.06 10.88 10.88 0 0 1 .23 1.17c.05.34.1.78.14 1.31a9.35 9.35 0 0 1-.3 3.88 4.18 4.18 0 0 1-2 2.28 11.11 11.11 0 0 1-4.23.99zm.77-12.91l4.35-.38a4.82 4.82 0 0 0 3.36-1.3 3.93 3.93 0 0 0 .77-3 3.9 3.9 0 0 0-1.27-2.96 5 5 0 0 0-3.36-.6l-4.53.39zm1 11l4.31-.38a11 11 0 0 0 2.35-.42 4.91 4.91 0 0 0 1.45-.68 2.07 2.07 0 0 0 .75-1.06 4.32 4.32 0 0 0 .25-1.32v-1.71a12.2 12.2 0 0 0-.28-2.07 3.45 3.45 0 0 0-.68-1.35 2.24 2.24 0 0 0-1.34-.76 7.75 7.75 0 0 0-2.21-.06l-5.36.47zM214.21 13.76l-.13-1.76 14.06-1 .13 1.75-6.08.45 1.5 20.32-1.89.14-1.5-20.32zM231.38 24.86l-.38-6.09a12.76 12.76 0 0 1 .48-5 4.86 4.86 0 0 1 2.12-2.72 9 9 0 0 1 3.92-1 10.64 10.64 0 0 1 3.16.2 5 5 0 0 1 2.32 1.23 5.81 5.81 0 0 1 1.43 2.52 16.19 16.19 0 0 1 .66 4l.36 6c.18 3-.25 5.2-1.29 6.52s-2.8 2.07-5.25 2.22a10.92 10.92 0 0 1-3.15-.2 4.94 4.94 0 0 1-2.25-1.21 5.64 5.64 0 0 1-1.51-2.47 16.79 16.79 0 0 1-.62-4zm1.89-.28a19.77 19.77 0 0 0 .37 3.09 5.4 5.4 0 0 0 .86 2 2.85 2.85 0 0 0 1.63 1.14 8.23 8.23 0 0 0 2.67.2c2-.12 3.33-.71 4-1.76s.92-2.78.77-5.21l-.35-5.92a19.77 19.77 0 0 0-.28-2.54 8.53 8.53 0 0 0-.53-1.81 2.8 2.8 0 0 0-1-1.24 4.26 4.26 0 0 0-1.53-.61 9.12 9.12 0 0 0-2.24-.11 7.56 7.56 0 0 0-2.52.51 3.12 3.12 0 0 0-1.5 1.27 5.17 5.17 0 0 0-.68 2.05 17.24 17.24 0 0 0 0 3zM249.27 23.7l-.56-12.26a22.62 22.62 0 0 1 0-2.63 17 17 0 0 1 .29-2.07 6.38 6.38 0 0 1 .51-1.6 10.12 10.12 0 0 1 .66-1.14 3.19 3.19 0 0 1 .89-.86 7.65 7.65 0 0 1 1-.59 5.76 5.76 0 0 1 1.07-.36q.66-.15 1.11-.21l1.23-.18.75-.1.76-.11.65-.12a3.35 3.35 0 0 0 .68-.2l.57-.28a2.39 2.39 0 0 0 .58-.4 4.36 4.36 0 0 0 .48-.54l1.26 1.28a5.31 5.31 0 0 1-1.7 1.27 6.1 6.1 0 0 1-1.72.63l-2 .32-1.1.18c-.22 0-.55.1-1 .19a3.09 3.09 0 0 0-1.08.4 3.32 3.32 0 0 0-.76.65q-1.49 1.68-1.27 6.38v1a4.42 4.42 0 0 1 2.07-2 7.71 7.71 0 0 1 3-.72c2.51-.11 4.34.46 5.49 1.73s1.87 3.5 1.99 6.64l.24 5.33c.13 2.9-.34 5-1.41 6.37s-2.83 2.07-5.27 2.18a10.71 10.71 0 0 1-3.14-.24 4.87 4.87 0 0 1-2.23-1.23 5.72 5.72 0 0 1-1.44-2.54 17 17 0 0 1-.6-4.17zm1.89-.05c.11 2.48.55 4.17 1.29 5.08s2.13 1.32 4.14 1.23 3.35-.63 4-1.61 1-2.68.85-5.09l-.22-5.26q-.17-3.71-1.3-5.13c-.76-1-2.14-1.38-4.15-1.29a5.17 5.17 0 0 0-3.83 1.47q-1.2 1.37-1.05 4.5zM265.38 9l2.1-.06 2.81 8.87 3.24 10.21 2.22-10.36 2.16-9 2.1-.06-6.49 26.6c-.49 2-1.3 3.3-2.42 4s-2.69.69-4.67.12l.61-1.69a3.93 3.93 0 0 0 3 0 4.35 4.35 0 0 0 1.64-2.63l.9-3.95zM282.79 22.5l-.1-5.91c-.05-3 .49-5.16 1.64-6.46s2.94-2 5.4-2 4.08.45 5.11 1.47a7.14 7.14 0 0 1 1.76 4.81h-1.82a7.94 7.94 0 0 0-.33-1.89 4.12 4.12 0 0 0-.8-1.43 3.2 3.2 0 0 0-1.52-.95 7.45 7.45 0 0 0-2.37-.29c-2 0-3.35.56-4.11 1.57s-1.1 2.7-1.06 5.09l.1 5.83a16.75 16.75 0 0 0 .27 3 5.5 5.5 0 0 0 .8 2 3.18 3.18 0 0 0 1.59 1.22A7.22 7.22 0 0 0 290 29a8.62 8.62 0 0 0 2.56-.37 3.18 3.18 0 0 0 1.56-1.05 4 4 0 0 0 .68-1.58 9.84 9.84 0 0 0 .22-2.16h1.82A7 7 0 0 1 295.2 29q-1.69 1.72-5.22 1.78t-5.38-1.86q-1.72-1.92-1.81-6.42zM300.15 24.7a6.12 6.12 0 0 1 .84-3.38 5 5 0 0 1 2.48-2 13.8 13.8 0 0 1 3.94-.85 31.3 31.3 0 0 1 5.27.06v-3.3a6.4 6.4 0 0 0-1.15-4.23 4.72 4.72 0 0 0-3.76-1.3 9.33 9.33 0 0 0-2.1.22 3.64 3.64 0 0 0-1.49.76 3.12 3.12 0 0 0-.94 1.55 9.7 9.7 0 0 0-.28 2.56h-1.82q0-3.55 1.53-5.19c1-1.1 2.73-1.65 5.09-1.67s4 .55 5.06 1.7 1.64 3 1.66 5.57l.1 15.12H313l-.06-2.95a6 6 0 0 1-2.63 2.47 9.76 9.76 0 0 1-3.91.71 6.75 6.75 0 0 1-4.55-1.4 5.54 5.54 0 0 1-1.7-4.45zm1.89 0a3.75 3.75 0 0 0 1.25 3.1 5.91 5.91 0 0 0 3.77 1 6.48 6.48 0 0 0 2.21-.36 5 5 0 0 0 1.62-.94 5.31 5.31 0 0 0 1.05-1.31 5.24 5.24 0 0 0 .6-1.48 6 6 0 0 0 .17-1.45v-2.88c-3.7-.35-6.4-.18-8.11.49a3.78 3.78 0 0 0-2.6 3.86zM318.94 30.35l.83-22.12 1.67.07 3.75 9.59 2.16 6.11 2.54-5.79 4.58-9.46 1.64.06-.84 22.19-1.89-.07.38-10.09.51-7.76-6.78 14.28h-.59l-5.65-14.75v7.78l-.38 10.09zM339.26 31.08L341 9.13l1.89.15-1.49 18.41 1.88-2.89 10.2-14.66 1.57.13-1.77 21.94-1.89-.15 1.48-18.41-3.16 4.86-8.82 12.7z"/>
        </g>
    </g>
</svg>
