<svg xmlns="http://www.w3.org/2000/svg" viewBox="0 0 421.79 59.97">
    <g data-name="Layer 2">
        <g data-name="&#x421;&#x43B;&#x43E;&#x439; 1">
            <path d="M3.75 60L0 25.16l8.39-.9a14.21 14.21 0 0 1 3.76 0 6 6 0 0 1 2.73 1.2 6.23 6.23 0 0 1 1.89 2.81 20.48 20.48 0 0 1 1 4.82l.33 3a15.48 15.48 0 0 1-.29 6 5.73 5.73 0 0 1-2.37 3.33 11.08 11.08 0 0 1-4.63 1.38l-6 .64 1.34 12.27zm.85-14.67l6-.64q3.57-.39 4.65-2.2t.63-6.08l-.31-2.84a29 29 0 0 0-.45-2.95 8.9 8.9 0 0 0-.74-2.11 3.56 3.56 0 0 0-1.23-1.43 5.1 5.1 0 0 0-1.86-.65 10.12 10.12 0 0 0-2.66 0l-6 .65zM23.77 48.2L23 41.11c-.37-3.56.05-6.17 1.24-7.86s3.28-2.67 6.24-3 5.13.28 6.52 1.75 2.22 3.91 2.59 7.44l.4 4-14.39 1.39.31 3q.43 4.22 2 5.92c1 1.13 2.76 1.58 5.19 1.32a10.34 10.34 0 0 0 3-.68 3.85 3.85 0 0 0 1.72-1.29 4 4 0 0 0 .71-1.71 8.44 8.44 0 0 0 0-2.15l1.71-.24q.75 7.29-7 8.09c-3 .3-5.19-.23-6.71-1.58s-2.4-3.78-2.76-7.31zm1.62-5.44l12.31-1.27-.18-1.81a22.9 22.9 0 0 0-.58-3.41 8.15 8.15 0 0 0-1.1-2.41 3.75 3.75 0 0 0-2-1.48 7.67 7.67 0 0 0-3.12-.21c-2.43.25-4 1-4.81 2.35s-1 3.41-.71 6.3zM46.19 55.34l-2.57-26.09 2.25-.25L48 50.91l1.62-3.79 9.08-19.36 1.86-.19 2.57 26.1-2.25.22L58.76 32 56 38.37l-7.83 16.77zm0-34.56l2-.2a2.4 2.4 0 0 0 1.15 2.08 5.21 5.21 0 0 0 2.73.32 5 5 0 0 0 2.55-.83 2.47 2.47 0 0 0 .69-2.27l2-.21q.34 4.66-5.1 5.2c-3.58.37-5.62-1-6-4.09zM66.69 43.76l-.66-7c-.33-3.57.12-6.18 1.36-7.81s3.32-2.59 6.24-2.87 4.87.16 6.2 1.28 2.16 3 2.52 5.56l-2.16.2a9.2 9.2 0 0 0-.56-2.22 4.84 4.84 0 0 0-1.08-1.63 3.89 3.89 0 0 0-1.89-1 8.6 8.6 0 0 0-2.84-.12q-3.52.33-4.74 2.23t-.8 6.15l.65 6.9a20.53 20.53 0 0 0 .59 3.57 6.72 6.72 0 0 0 1.14 2.34 3.77 3.77 0 0 0 2 1.31 8.68 8.68 0 0 0 3.11.16 10.18 10.18 0 0 0 3-.67 3.77 3.77 0 0 0 1.75-1.39 4.79 4.79 0 0 0 .74-1.93 13.13 13.13 0 0 0 .06-2.58l2.15-.2c.26 2.76-.23 4.88-1.47 6.34s-3.26 2.33-6 2.6-5.08-.31-6.56-1.73-2.44-3.93-2.75-7.49zM87.62 41.9L87 34.66a15.32 15.32 0 0 1 .4-5.95 5.84 5.84 0 0 1 2.43-3.32 10.65 10.65 0 0 1 4.64-1.31 12.9 12.9 0 0 1 3.76.13 5.9 5.9 0 0 1 2.73 1.37 6.91 6.91 0 0 1 1.84 2.94 19.63 19.63 0 0 1 .93 4.78l.63 7.11q.48 5.39-1.32 7.81c-1.2 1.62-3.25 2.56-6.17 2.82a12.8 12.8 0 0 1-3.75-.14 5.84 5.84 0 0 1-2.72-1.36 6.81 6.81 0 0 1-1.84-2.9 19.79 19.79 0 0 1-.94-4.74zm2.23-.4a24.82 24.82 0 0 0 .55 3.67 6.7 6.7 0 0 0 1.09 2.35 3.48 3.48 0 0 0 2 1.3 9.66 9.66 0 0 0 3.19.14q3.56-.32 4.68-2.22c.74-1.27 1-3.35.73-6.24l-.62-7a25.55 25.55 0 0 0-.42-3 9.43 9.43 0 0 0-.7-2.14 3.33 3.33 0 0 0-1.2-1.44 4.83 4.83 0 0 0-1.84-.67 10.43 10.43 0 0 0-2.67-.06 9.28 9.28 0 0 0-3 .69 3.8 3.8 0 0 0-1.74 1.57 6.23 6.23 0 0 0-.74 2.46 20.35 20.35 0 0 0 .06 3.61zM110 49.75l-2.24-26.57 7.63-.65a8.19 8.19 0 0 1 5.59 1.18 6.14 6.14 0 0 1 2.34 4.76 8.24 8.24 0 0 1-.43 3.54 3.74 3.74 0 0 1-2.17 2.28 6.91 6.91 0 0 1 1.64.32 3.05 3.05 0 0 1 1.19.74 6.2 6.2 0 0 1 .78 1 4.35 4.35 0 0 1 .5 1.26 14 14 0 0 1 .27 1.39c.06.41.12.93.17 1.57a11.16 11.16 0 0 1-.38 4.62 4.94 4.94 0 0 1-2.41 2.7 13 13 0 0 1-5.05 1.25zm1-15.37l5.17-.44a5.83 5.83 0 0 0 4-1.54 4.66 4.66 0 0 0 .92-3.57 4.58 4.58 0 0 0-1.5-3.49 5.81 5.81 0 0 0-4-.73l-5.4.45zm1 13.1l5.12-.43a13.17 13.17 0 0 0 2.8-.49 6.18 6.18 0 0 0 1.74-.8 2.52 2.52 0 0 0 .89-1.27 5.33 5.33 0 0 0 .31-1.57q0-.75-.06-2a14.12 14.12 0 0 0-.32-2.46 4.15 4.15 0 0 0-.81-1.61 2.7 2.7 0 0 0-1.59-.91 9.48 9.48 0 0 0-2.63-.08l-6.39.54zM130.45 47.84l-2.07-26.27 2.25-.18.83 10.61 5.78-.46q8.31-.64 8.93 7.23c.21 2.73-.34 4.78-1.68 6.14s-3.34 2.14-6 2.35zm2.09-2.25l5.77-.45a6.48 6.48 0 0 0 4.48-1.76 5.8 5.8 0 0 0 1.13-4.48 5.9 5.9 0 0 0-1.81-4.3 6.51 6.51 0 0 0-4.71-1l-5.77.45zm18.93.6l-2.07-26.27 2.25-.18L153.72 46zM158.87 45.63L157 19.35l2-.15 5.68 10.87 3.37 7 2.25-7.18 4.18-11.81 1.94-.14 1.9 26.29-2.25.16-.87-12-.4-9.25-6.2 17.79h-.71l-8.61-16.72 1 9.21.87 12zM183.31 43.71l-1.74-26.17 2.26-.15 1.45 22 1.72-3.78 9.46-19 1.87-.13 1.74 26.16-2.26.15-1.46-21.99-2.89 6.27-8.17 16.5zM215.43 35a7.28 7.28 0 0 1 .79-4.08 6.08 6.08 0 0 1 2.83-2.52 16.83 16.83 0 0 1 4.64-1.25 37.43 37.43 0 0 1 6.27-.25l-.23-3.9q-.16-3.53-1.6-5c-1-1-2.48-1.44-4.54-1.32a10.84 10.84 0 0 0-2.49.39 4.29 4.29 0 0 0-1.72 1 3.65 3.65 0 0 0-1 1.91 11 11 0 0 0-.18 3.06l-2.16.13q-.25-4.23 1.5-6.27t6-2.28q4.07-.24 6.11 1.71c1.37 1.29 2.14 3.47 2.31 6.52l1 18-1.9.11-.25-3.5a7.15 7.15 0 0 1-3 3.1 11.68 11.68 0 0 1-4.61 1.08 8 8 0 0 1-5.5-1.39c-1.38-1.1-2.13-2.83-2.27-5.25zm2.26-.09a4.44 4.44 0 0 0 1.66 3.61 7.11 7.11 0 0 0 4.55.91 8.06 8.06 0 0 0 2.6-.57 5.81 5.81 0 0 0 1.88-1.21 6.75 6.75 0 0 0 1.17-1.63 6.94 6.94 0 0 0 .62-1.79 7.28 7.28 0 0 0 .11-1.74l-.2-3.42q-6.63-.29-9.61 1.07a4.48 4.48 0 0 0-2.78 4.8zM238.28 40.69l-1.38-26.63 7.65-.4A8.19 8.19 0 0 1 250.1 15a6.09 6.09 0 0 1 2.18 4.83 8.17 8.17 0 0 1-.54 3.53 3.71 3.71 0 0 1-2.25 2.2 6.71 6.71 0 0 1 1.64.38 3 3 0 0 1 1.16.77 6.58 6.58 0 0 1 .75 1 4.14 4.14 0 0 1 .46 1.29c.11.52.18 1 .23 1.4s.08.93.11 1.57a11 11 0 0 1-.53 4.6 4.94 4.94 0 0 1-2.49 2.63 13 13 0 0 1-5.1 1.08zm1.47-15.33l5.18-.27c1.94-.1 3.29-.57 4.06-1.41a4.62 4.62 0 0 0 1-3.54 4.59 4.59 0 0 0-1.38-3.54 5.86 5.86 0 0 0-4-.86l-5.41.28zm.68 13.13l5.14-.27a12.69 12.69 0 0 0 2.81-.4 5.63 5.63 0 0 0 1.76-.74 2.47 2.47 0 0 0 .94-1.24 5.3 5.3 0 0 0 .35-1.56 19 19 0 0 0 0-2 14.56 14.56 0 0 0-.24-2.47 4.2 4.2 0 0 0-.75-1.63 2.68 2.68 0 0 0-1.56-1 9.4 9.4 0 0 0-2.63-.17l-6.41.34zM255.34 15.33l-.09-2.08 16.75-.78.1 2.08-7.25.33L266 39.13l-2.25.1L262.6 15zM275.46 29.07l-.29-7.25a15.62 15.62 0 0 1 .68-5.93 5.8 5.8 0 0 1 2.6-3.19 10.56 10.56 0 0 1 4.69-1.09 12.84 12.84 0 0 1 3.75.31 5.88 5.88 0 0 1 2.66 1.5 6.94 6.94 0 0 1 1.7 3 19.73 19.73 0 0 1 .69 4.83l.3 7.12c.14 3.6-.42 6.18-1.7 7.74s-3.37 2.4-6.3 2.52a12.77 12.77 0 0 1-3.74-.32 5.9 5.9 0 0 1-2.65-1.48 6.83 6.83 0 0 1-1.69-3 19.4 19.4 0 0 1-.7-4.76zm2.25-.28a24.79 24.79 0 0 0 .37 3.68 6.58 6.58 0 0 0 1 2.41 3.41 3.41 0 0 0 1.92 1.39 9.85 9.85 0 0 0 3.18.3q3.57-.15 4.78-2t1-6.19l-.28-7a25.71 25.71 0 0 0-.27-3 9.92 9.92 0 0 0-.6-2.18 3.35 3.35 0 0 0-1.13-1.49 4.76 4.76 0 0 0-1.81-.76 9.77 9.77 0 0 0-2.66-.18 9.32 9.32 0 0 0-3 .54 3.75 3.75 0 0 0-1.81 1.49 6.1 6.1 0 0 0-.86 2.42 19.72 19.72 0 0 0-.12 3.6zM296.82 28.09l-.5-14.61a26.4 26.4 0 0 1 .06-3.13 22.26 22.26 0 0 1 .33-2.47 7.5 7.5 0 0 1 .63-1.88 11.48 11.48 0 0 1 .82-1.42 4 4 0 0 1 1.06-1 11.62 11.62 0 0 1 1.16-.68 5.51 5.51 0 0 1 1.28-.41c.52-.12 1-.2 1.32-.25l1.47-.24.9-.12.9-.11c.17 0 .43-.07.78-.14a3.31 3.31 0 0 0 .82-.23l.68-.32a3.11 3.11 0 0 0 .69-.47 5.22 5.22 0 0 0 .58-.61l1.49 1.54a6.3 6.3 0 0 1-2 1.55 7.14 7.14 0 0 1-2.06.73l-2.33.35-1.32.2c-.26 0-.66.11-1.19.22a3.8 3.8 0 0 0-1.3.46 4 4 0 0 0-.9.76c-1.19 1.33-1.73 3.86-1.6 7.59v1.24a5.21 5.21 0 0 1 2.5-2.34 9.07 9.07 0 0 1 3.52-.81q4.49-.16 6.52 2.12t2.23 7.83l.22 6.35c.12 3.46-.47 6-1.76 7.57s-3.39 2.43-6.31 2.53a12.91 12.91 0 0 1-3.72-.33 5.7 5.7 0 0 1-2.64-1.49 6.8 6.8 0 0 1-1.69-3 20.67 20.67 0 0 1-.64-4.98zm2.26 0c.1 2.95.59 5 1.47 6.07s2.52 1.6 4.92 1.51 4-.7 4.81-1.87 1.17-3.18 1.07-6l-.22-6.26q-.13-4.54-1.48-6.2t-4.93-1.6a6.21 6.21 0 0 0-4.58 1.71c-1 1.07-1.39 2.85-1.31 5.34zM316.07 10.82l2.5-.07 3.32 10.58 3.81 12.16h.05l2.67-12.32L331 10.4l2.5-.07L325.7 42q-.87 3.56-2.9 4.7t-5.55.13l.73-2c1.63.5 2.84.52 3.62.07a5.11 5.11 0 0 0 1.87-3.08l1.09-4.71zM336.86 26.91l-.15-7c-.08-3.59.56-6.15 1.91-7.7s3.5-2.34 6.44-2.4 4.85.51 6.08 1.72 1.95 3.11 2.12 5.72l-2.17.05a9.17 9.17 0 0 0-.4-2.26 4.92 4.92 0 0 0-.95-1.7 3.87 3.87 0 0 0-1.82-1.12 9 9 0 0 0-2.82-.33c-2.37.05-4 .68-4.89 1.88s-1.3 3.23-1.21 6.04l.14 6.93a20.49 20.49 0 0 0 .33 3.57 6.66 6.66 0 0 0 1 2.42 3.72 3.72 0 0 0 1.89 1.45 8.67 8.67 0 0 0 3.09.39 10.28 10.28 0 0 0 3.06-.46 3.71 3.71 0 0 0 1.84-1.25 4.65 4.65 0 0 0 .87-1.87 12.19 12.19 0 0 0 .25-2.57l2.17-.05c.06 2.78-.59 4.85-1.93 6.22s-3.42 2.09-6.21 2.15-5-.67-6.42-2.19-2.15-4.07-2.22-7.64zM357.62 29.41a7.34 7.34 0 0 1 1-4 6 6 0 0 1 2.91-2.41 16.69 16.69 0 0 1 4.7-1 35.4 35.4 0 0 1 6.26 0l-.05-4c0-2.36-.46-4-1.38-5.09s-2.41-1.55-4.48-1.52a11.22 11.22 0 0 0-2.5.28 4.4 4.4 0 0 0-1.77.91 3.73 3.73 0 0 0-1.1 1.87 10.93 10.93 0 0 0-.32 3h-2.17q0-4.23 1.78-6.19t6.05-2c2.72 0 4.74.62 6 2s2 3.56 2 6.62l.24 18L373 36l-.09-3.5a7.25 7.25 0 0 1-3.11 3 11.48 11.48 0 0 1-4.65.87 8.05 8.05 0 0 1-5.44-1.62q-2.03-1.75-2.09-5.34zm2.26 0a4.48 4.48 0 0 0 1.51 3.68 7.08 7.08 0 0 0 4.5 1.11 7.84 7.84 0 0 0 2.63-.46 5.67 5.67 0 0 0 1.92-1.13 6.36 6.36 0 0 0 1.25-1.57 6.43 6.43 0 0 0 .69-1.76 6.85 6.85 0 0 0 .19-1.73l-.05-3.43c-4.4-.38-7.62-.17-9.64.65a4.5 4.5 0 0 0-3 4.65zM380.37 35.89l-.13-26.35h2l4.95 11.22 2.87 7.24 2.73-7 5-11.5h1.95l.12 26.35h-2.25l-.06-12 .22-9.26-7.35 17.33h-.7l-7.51-17.32.36 9.25.06 12zM404.9 35.62L405 9.4h2.26l-.1 22 2-3.6 10.76-18.34h1.87l-.11 26.22h-2.26l.1-22-3.32 6.06-9.32 15.88z"/>
        </g>
    </g>
</svg>
