<svg width="496" height="496" xmlns="http://www.w3.org/2000/svg">
    <path d="M131.5 209.5L55.1 92.1C102.7 32.9 174.1.3 247.1 0c42.3-.3 85.5 10.5 124.8 33.2 43.4 25.2 76.4 61.4 97.4 103L264 125.4c-58.1-3.4-113.4 29.3-132.5 84.1zm32.9 38.5c0 46.2 37.4 83.6 83.6 83.6 46.2 0 83.6-37.4 83.6-83.6 0-46.2-37.4-83.6-83.6-83.6-46.2 0-83.6 37.3-83.6 83.6zm314.9-89.2L339.6 166c37.9 44.3 38.5 108.2 6.6 157.2L234.1 495.6c46.5 2.5 94.4-7.7 137.8-32.9 107.4-62 150.9-192 107.4-303.9zM133.7 295.6L40.4 112.1C14.9 151.1 0 197.9 0 248c0 124 90.8 226.7 209.5 244.9l63.7-124.8c-57.6 10.8-113.2-20.8-139.5-72.5z" fill="#FFF" fill-rule="nonzero"/>
</svg>
