<svg xmlns="http://www.w3.org/2000/svg" viewBox="0 0 57.39 54.21">
    <defs>
        <style>
            .cls-1{fill:#ffdb2e;stroke:#18120e;stroke-linecap:round;stroke-linejoin:round;stroke-width:1.73px}.cls-2{stroke:#000;stroke-miterlimit:10;stroke-width:.42px}
        </style>
    </defs>
    <g id="Layer_2" data-name="Layer 2">
        <g id="&#x421;&#x43B;&#x43E;&#x439;_1" data-name="&#x421;&#x43B;&#x43E;&#x439; 1">
            <circle class="cls-1" cx="28.7" cy="26.83" r="21.04"/>
            <path class="cls-1" d="M28.7 9.74V5.79M28.7 47.87v-3.94M45.79 26.83h3.95M7.66 26.83h3.94M43.32 12.44l-1.14 1.14M15.23 40.53l-1.14 1.14M43.32 12.44l-1.14 1.14M15.23 40.53l-1.14 1.14M14.09 12.44l1.14 1.14M42.18 40.53l1.14 1.14"/>
            <path class="cls-2" d="M57 24.66a.66.66 0 0 0-.92 0l-.75.75a26.67 26.67 0 0 0-53.1-1.77.65.65 0 1 0 1.29.16A25.37 25.37 0 0 1 54 25.25l-.59-.59a.65.65 0 0 0-.92.93l1.79 1.78.07.05a.48.48 0 0 0 .14.09.53.53 0 0 0 .25 0 .56.56 0 0 0 .25 0 1.1 1.1 0 0 0 .14-.09l.07-.05 1.8-1.78a.65.65 0 0 0 0-.93zM.4 29.55a.66.66 0 0 0 .92 0l.76-.75a26.67 26.67 0 0 0 53.1 1.77.65.65 0 1 0-1.29-.16A25.37 25.37 0 0 1 3.39 29l.59.59a.66.66 0 0 0 .92 0 .67.67 0 0 0 0-.93l-1.79-1.82-.11-.05a.67.67 0 0 0-.14-.09.53.53 0 0 0-.25-.05.56.56 0 0 0-.25.05 1.1 1.1 0 0 0-.14.09l-.07.05L.4 28.62a.67.67 0 0 0 0 .93z"/>
            <path class="cls-1" d="M28.7 13.58v13.25l7.52-7.52"/>
        </g>
    </g>
</svg>
