<svg width="291" height="291" xmlns="http://www.w3.org/2000/svg">
    <g fill-rule="nonzero" fill="none">
        <circle fill="#FFF" cx="145.02" cy="145.02" r="145.02"/>
        <rect stroke="#18120E" stroke-width="7.95" fill="#FFDB2E" stroke-linecap="round" stroke-linejoin="round" x="78.34" y="71.39" width="107.56" height="165.96" rx="20.49"/>
        <rect stroke="#18120E" stroke-width="7.95" fill="#FFF" stroke-linecap="round" stroke-linejoin="round" x="91.48" y="83.78" width="81.28" height="125.42" rx="10.63"/>
        <path d="M119.16 224.89a3.25 3.25 0 0 1 0-6.49h25.93a3.25 3.25 0 0 1 0 6.49h-25.93z" fill="#000"/>
        <path d="M203.64 52.7h-60.13A25.28 25.28 0 0 0 118.23 78v17.26a25.28 25.28 0 0 0 25.28 25.29h2c-.09 1-.14 1.93-.14 2.91a29.86 29.86 0 0 0 10.15 22.44 29.3 29.3 0 0 1-.3-4 29.83 29.83 0 0 1 9-21.35h39.43a25.28 25.28 0 0 0 25.28-25.29V78a25.28 25.28 0 0 0-25.29-25.3z" stroke="#18120E" stroke-width="7.95" fill="#FFF" stroke-linecap="round" stroke-linejoin="round"/>
        <circle fill="#18120E" cx="188.59" cy="98.89" r="3.72"/>
        <path d="M188.59 73.31v16.27" stroke="#18120E" stroke-width="7.95" fill="#FFF" stroke-linecap="round" stroke-linejoin="round"/>
        <circle fill="#18120E" cx="174.45" cy="98.89" r="3.72"/>
        <path d="M174.45 73.31v16.27" stroke="#18120E" stroke-width="7.95" fill="#FFF" stroke-linecap="round" stroke-linejoin="round"/>
        <circle fill="#18120E" cx="160.32" cy="98.89" r="3.72"/>
        <path d="M160.32 73.31v16.27" stroke="#18120E" stroke-width="7.95" fill="#FFF" stroke-linecap="round" stroke-linejoin="round"/>
    </g>
</svg>
