<svg xmlns="http://www.w3.org/2000/svg" viewBox="0 0 50.03 60.98">
    <defs>
        <style>
            .cls-2{stroke:#18120e;stroke-linecap:round;stroke-linejoin:round;stroke-width:1.61px;fill:#fff}.cls-4{fill:#18120e}
        </style>
    </defs>
    <g id="Layer_2" data-name="Layer 2">
        <g id="&#x421;&#x43B;&#x43E;&#x439;_1" data-name="&#x421;&#x43B;&#x43E;&#x439; 1">
            <rect x=".81" y="6.82" width="34.58" height="53.36" rx="6.59" stroke="#18120e" stroke-linecap="round" stroke-linejoin="round" stroke-width="1.61" fill="#ffdb2e"/>
            <rect class="cls-2" x="5.03" y="10.8" width="26.13" height="40.32" rx="3.42"/>
            <path d="M14.79 56a.83.83 0 1 1 0-1.66h6.62a.83.83 0 1 1 0 1.66z" fill-rule="evenodd"/>
            <path class="cls-2" d="M41.09.81H21.76a8.13 8.13 0 0 0-8.13 8.13v5.55a8.13 8.13 0 0 0 8.13 8.13h.65v.94a9.58 9.58 0 0 0 3.26 7.21 9.08 9.08 0 0 1-.1-1.28 9.64 9.64 0 0 1 2.88-6.87h12.64a8.13 8.13 0 0 0 8.13-8.13V8.94A8.13 8.13 0 0 0 41.09.81z"/>
            <circle class="cls-4" cx="36.25" cy="15.66" r="1.2"/>
            <path class="cls-2" d="M36.25 7.43v5.24"/>
            <circle class="cls-4" cx="31.71" cy="15.66" r="1.2"/>
            <path class="cls-2" d="M31.71 7.43v5.24"/>
            <circle class="cls-4" cx="27.16" cy="15.66" r="1.2"/>
            <path class="cls-2" d="M27.16 7.43v5.24"/>
        </g>
    </g>
</svg>
